<?xml version="1.0" encoding="utf-8"?>
<!-- Generator: Adobe Illustrator 26.0.1, SVG Export Plug-In . SVG Version: 6.00 Build 0)  -->
<svg version="1.1" id="Layer_1" xmlns="http://www.w3.org/2000/svg" xmlns:xlink="http://www.w3.org/1999/xlink" x="0px" y="0px"
	 viewBox="0 0 959.7 332.2" style="enable-background:new 0 0 959.7 332.2;" xml:space="preserve">
<style type="text/css">
	.st0{fill:#FFFFFF;}
</style>
<path d="M438.4,33.3c-1.9,0.8-19.7,7.4-39.5,14.8l-36,13.3l-0.3,3.6c-0.3,3.3-0.5,3.5-5,4.2c-10,1.5-19.4,8.9-22.2,17.5
	c-0.7,2.2-1.4,4-1.6,4c-0.1,0-2.5-1.6-5.3-3.5c-7.8-5.1-16.5-5.9-24.1-2.1c-1.8,0.9-3.4,1.6-3.5,1.6c-0.2,0-0.5-2.6-0.7-5.8
	c-0.6-8.1-3.2-12.9-9-16.5l-4.8-3V49.2c0-10.3-0.3-12.4-1.6-12.9c-0.9-0.3-2.1-0.3-2.7,0.1c-0.7,0.5-11.1,1-23.2,1.3l-22,0.5
	l-51,14.8c-28,8.2-51.4,15.2-51.9,15.7s-0.8,7.7-0.7,16l0.2,15.1l-4-2.1c-8-4-18.6-1.8-24.8,5.3c-1.8,2.1-3.6,3.7-4,3.7
	c-0.4-0.1-2.5-2.5-4.5-5.4C92,95.2,82.3,88.2,75.7,86.4c-7-1.8-6.9-2,16.2-17.7c8.2-5.5,14.4-10,13.9-10c-2.2,0-23.9,11.8-33.9,18.5
	c-19.8,13.1-34,28.2-41.5,44c-4.8,10.3-6.1,15.6-6.1,26.8c-0.2,22.3,10,41.4,33,62c41,36.6,126.3,68.8,228.3,86.1
	c167.2,28.4,365.7,18.5,502.3-25c69.1-22,116.5-49,139.4-79.5c29.3-38.8,18-80.3-30.6-112.8c-9.5-6.4-35-19-45.3-22.5
	c-8.7-3-8.3-2.7,7,5.8c11.3,6.3,11.5,6.4,11.3,9.7c-0.2,1.9-0.6,7.3-0.9,12.1l-0.6,8.6l-5,3.1c-11.6,7.3-12.9,23.6-2.5,32.8
	c4.9,4.3,9.7,5.7,17.4,5c5.9-0.6,6.4-0.5,7.9,1.8c2.1,3.2,12.3,10.9,18.9,14.3l5,2.6l-4.4,0.8c-2.3,0.4-5.1,1-6.1,1.3
	c-1.4,0.4-2.3-0.5-4-3.9c-6-12.5-24.3-18.4-37.7-12.1l-5.3,2.4l-1.9-4.4c-1.4-3.2-3-5-5.5-6.2c-2-0.9-3.6-2-3.6-2.4s1.8-2.2,4-3.9
	c3.3-2.6,3.8-3.5,2.9-4.7c-1-1.1-0.9-2.1,0.6-4.6c2.7-4.5,2.6-12.4-0.3-16.4c-4.9-6.8-12.6-8.1-48.9-8.2l-23.1-0.1l-1.2-3.5
	c-2.4-7.2-11-12-21.5-11.9c-11.4,0.1-20.5,7.7-22.9,19.1c-0.6,2.8-3.4,5.1-21.4,17.6c-11.4,7.9-25.3,17.9-31,22.1
	c-5.6,4.2-10.7,7.6-11.2,7.6c-0.7,0-1-4.9-0.8-13.8l0.3-13.7l5-0.6c6.6-0.8,12.7-4,16.1-8.4c12-15.8,2.6-36.5-16-35.3l-5.1,0.3
	l-0.5-18.5l-0.5-18.5l-112-0.2C457.8,31.8,441.4,32,438.4,33.3z M646.4,38.5c0,0.5-10.4,5.9-23.1,12l-23.1,11.2l-45.7-0.8
	c-25.1-0.5-73-0.7-106.6-0.4c-40.3,0.2-60.7,0.1-60-0.6c0.6-0.5,13.8-5.7,29.5-11.6l28.5-10.5l100.3-0.1
	C601.3,37.7,646.4,38.1,646.4,38.5z M269.2,41.2c-0.3,0.3-11.3,3.7-24.4,7.6c-13.1,3.8-33.1,9.7-44.4,13.1L179.9,68l-15.3,0.1
	c-8.3,0-15.2-0.2-15.2-0.5s2.6-1.3,5.8-2.2c3.1-0.9,23.5-6.8,45.2-13.1l39.5-11.5h14.9C263,40.7,269.5,40.9,269.2,41.2z M280.2,63.1
	l0.2,20.6l-2.2,0.9c-1.3,0.5-2.6,0.7-3,0.4c-0.5-0.2-0.8-9.6-0.8-20.8c0-18.4,0.2-20.5,1.8-21.4c0.9-0.6,2.2-0.9,2.7-0.7
	C279.5,42.2,280,50.4,280.2,63.1z M268.5,49.4c0,2.1,0.4,11.4,0.8,20.8c0.8,14.7,0.7,17.2-0.7,18.7c-3,3.5-4.5,2.3-3.7-3.2
	c0.4-3.2,0.3-5.5-0.4-6.4c-0.6-0.7-1.4-8-1.8-16.5c-0.7-16.1-0.4-17,4-17.1C268,45.7,268.4,46.6,268.5,49.4z M258.2,62l0.3,12.8
	l-2.3-0.3c-2.2-0.3-2.3-0.7-2.6-11.7c-0.3-12.7,0-14.4,2.5-13.9C257.7,49.2,257.9,50.8,258.2,62z M247.8,53.4
	c0.3,1,0.6,6.1,0.8,11.3c0.2,9,0.1,9.5-1.9,9.8c-2.2,0.3-2.6-0.9-3.9-14.1c-0.5-5.4-0.4-7.1,0.7-7.8
	C245.7,51.2,247.2,51.5,247.8,53.4z M237.5,77c-1.3,1.3-1.8-1.5-2.5-13c-0.5-8.2-0.4-9.2,1.2-9.5c1.5-0.3,1.7,0.9,2,10.6
	C238.3,71.3,238,76.5,237.5,77z M229.8,78.4c0.7,21.2,0.3,24.5-2.4,22.8c-0.9-0.5-1-2.5-0.6-6.4c0.6-5.2-0.7-26.7-2-33.8
	c-0.6-3.1-0.3-3.4,3.7-4.2C228.8,56.8,229.4,66.4,229.8,78.4z M219.8,68.9c0.3,5,0.6,14.9,0.6,22c0,12.7,0,12.9-2.5,14
	c-1.4,0.6-2.7,0.9-3,0.6c-0.7-0.7-3.5-30.8-3.5-38c0-5.2,0.2-5.7,2.8-6.6C219,59.1,219.1,59.3,219.8,68.9z M209.1,81.2
	c0.6,9.4,1.4,19.1,1.7,21.6c0.6,4.6,0.6,4.7-2.5,5.8c-5.4,1.9-5.4,1.8-5.7-9.2c-0.2-5.6-0.7-14.5-1.2-19.7
	c-1.4-14.2-1.3-14.8,1.3-15.3C207.9,63.4,207.8,63.1,209.1,81.2z M197.7,70.9c0.3,2.4,1.1,12.4,1.8,22.2c1.1,17.1,1.1,18-0.7,19.3
	c-4.2,3.1-4.9,1.6-5.6-12.7c-0.3-7.4-0.9-17.6-1.3-22.7c-0.6-8.3-0.5-9.2,1.2-9.6C196.7,66.5,197.1,66.8,197.7,70.9z M590.9,68.6
	l9,0.6l0.3,54c0.1,29.7,0,54.9-0.2,56c-0.5,1.9-1.3,2-27.8,1.8c-15,0-28.4-0.2-29.8-0.2l-2.6-0.1l0.4-9.3
	c0.5-11.4-0.9-18.7-5.4-27.5c-3.4-6.7-5.6-9.5-10.9-14.2c-2.1-1.8-1.7-1.1,1.4,2.9c2.4,3,5.3,7.5,6.6,10c5.1,10.2,8.4,26.6,7,34.5
	c-1.2,6.3-2.5,3.9-2.5-4.7c0-15.4-4.3-26-15-36.8c-10.3-10.5-21.1-14.9-36.2-14.9c-16.8,0-32.2,8.1-40.5,21.4
	c-2.6,4.1-4.3,3.7-4.3-1c0-4.2-4-15.1-6.4-17.7s-2.9-2.7-13.8-2.7c-12.8,0-14.6,0.7-17.7,6.9c-4,7.8-6.7,24.7-7.4,46.1l-0.2,7.5
	l-12.2,0.2c-9.1,0.2-12.4-0.1-13.2-1.1c-0.8-0.9-1-16.7-0.9-54.1l0.3-52.8l4.8-1.2c2.6-0.7,5.3-1.9,6-2.9c1.1-1.4,6.3-1.6,52.7-1.9
	C492.2,67.1,577.9,67.7,590.9,68.6z M189.5,86.4c0.4,8.7,1.1,18.9,1.4,22.6l0.5,6.8l-4.6,1.9c-2.5,1.1-4.8,2-5,2s-0.4-11-0.4-24.4
	V70.9l2.8-1c1.5-0.5,3.1-0.6,3.6-0.2C188.2,70.2,189,77.6,189.5,86.4z M292.1,72.6c2.8,4.2,4.3,9.3,4.3,14.8c0,2.4,0.3,4.3,0.8,4.3
	c0.4,0,3.1-0.9,6-2c6-2.3,10.7-2.5,16.4-0.8c8.7,2.6,19.3,16.1,16.9,21.5c-1.4,3-1.4,10.3-0.1,10.3c0.6,0,1-1.3,1-2.9
	c0-4.5,1.7-8.2,5.8-12.4c3.6-3.7,3.4-5.1-0.4-2.2c-3.5,2.7-4.4,1.9-4.4-4.3c0-10.3,6.3-19.7,16-24.1c8.7-3.9,8-7.1,8,36.5
	c0,43.3,0.9,39.2-7.5,36c-7.3-2.8-15.8-1.6-22.8,3.1c-2,1.4-4,2.4-4.2,2.1c-0.3-0.3-0.1-3.3,0.3-6.7c0.8-5.7,0.7-6.3-1.2-7.7
	c-1.8-1.2-2.2-2.7-2.5-9.9c-0.1-4.6,0.2-12.2,0.8-16.8c0.6-4.6,0.9-9.1,0.5-10c-2.3-6-29.5-5.4-36.4,0.8c-1.3,1.2-1.8,2.5-1.4,3.4
	s0.8,9.4,0.8,18.8c0.1,13.2-0.2,17.3-1.1,17.3c-1,0-1.3-8-1.3-36.6c0-34,0.1-36.5,1.7-36.2C289.1,69.1,290.9,70.7,292.1,72.6z
	 M170.7,71.3l7.7,0.7v24.9v24.8l-20.7-0.2l-20.8-0.3v-7.5c0-4.1-0.2-15.2-0.5-24.5l-0.4-17l10.4-0.6c5.8-0.3,11.9-0.6,13.6-0.7
	C161.7,70.8,166.5,71,170.7,71.3z M674.7,71.8c5.7,1.5,11.2,7,12.6,12.3c1.8,7.3,0.2,12.7-5.7,18.8c-3.6,3.8-12.2,7.6-14.2,6.3
	c-1.1-0.7-1.5-36.7-0.3-37.8C668,70.4,670.3,70.5,674.7,71.8z M892.7,83.8c11.8,8.9,26.7,24.1,31.6,32.2c6.3,10.7,8.4,17.3,8.9,27.9
	c0.4,8,0,11-1.8,17c-2.8,9.2-4.9,13.3-6.1,12.1c-3.2-3.2-2.8-21.6,0.7-30.3l1.4-3.5l-1.9,2.5c-1.1,1.4-2.5,4.4-3.2,6.7
	c-1.3,4.9-2.3,5.2-8.2,2.2c-10.9-5.6-22-15.3-28.8-25.1c-4.3-6.2-9.1-17.4-11-25.3c-1.3-5.7-1.7-25.4-0.5-27.3
	C874.8,71.2,879.6,74,892.7,83.8z M766.1,79.3c5,2.4,9.8,7.8,8.6,9.7c-0.3,0.5-7.2,0.6-16.3,0.2l-15.8-0.7l-4.7,3.2
	c-2.5,1.7-4.9,2.9-5.2,2.6c-1-0.9,1.9-6.8,5.1-10.5C744.4,76.4,756.5,74.4,766.1,79.3z M258.2,78.3c1.2,0.4,2.2,1.4,2.2,2.5
	c0,2.2-5.3,3.2-16,2.7c-5.6-0.2-7.5-0.6-7.5-1.7C236.9,78.8,251.2,76.5,258.2,78.3z M261.4,92.3c0,4.8-0.3,6.5-1.2,6.2
	c-1.5-0.5-2.2-6.9-1.4-10.5C260,83.5,261.4,85.8,261.4,92.3z M75.6,89.3c7.3,3.7,15.8,12.6,19.8,20.7c6.5,13.4,4.9,29.3-4.4,42.6
	c-2.2,3.2-6.1,7.5-8.5,9.5l-4.4,3.7l-2.6-2.4c-3.1-2.9-6.4-4.7-8.6-4.7c-1,0-0.3,1.1,2,3.2c4.9,4.2,7,8.8,8.9,18.8
	c0.9,4.6,1.8,8.5,2,8.8c1.8,1.7,1.8-14.6,0-19.2c-1-2.5,5.9-4.9,14.2-5c6,0,8,0.4,13.7,3.2c12.3,6.1,17.7,16.8,16.9,33.3
	c-0.2,3.4-0.4,3.7-4,4.3c-3.5,0.5-9.9,4.3-8.9,5.2c0.2,0.2,1.9-0.1,3.8-0.6c5.5-1.7,10.5-0.3,15.1,4c3.8,3.7,3.9,4,2.4,6.2
	c-2.4,3.4-1.9,4.3,0.7,1.3c2.4-2.8,7.9-4.2,12.1-3.1c3.5,0.9,8.4,5.3,10.6,9.5l1.9,3.7l-3.4,3.5c-3.4,3.4-8.9,7.9-9.8,7.9
	c-0.3,0-1.4-1.6-2.5-3.5c-2.4-4-6-5.2-10.1-3.6c-2.4,1.1-3.7,0.8-10.2-2.2c-5.3-2.4-7.8-4.1-8.7-6.1c-1.4-3.1-4.7-4.6-8.7-3.9
	c-2.6,0.5-2.8,0.4-2.1-1.8c3.6-12.1-0.3-21.4-10.9-25.5c-6.5-2.4-12.2-1.3-17.8,3.6c-2.4,2.2-4.7,3.6-5.1,3.3
	c-0.3-0.3-0.6-1.9-0.6-3.5c0-3.6-4.8-8.8-8-8.8c-2.2,0-2.2,0,0.4-3.5c5.9-7.7,7.3-17.2,3.7-24.3c-2.3-4.6-4.6-6.7-9.4-8.7l-3.7-1.5
	l2-3.3c2.5-4.1,2.5-6.4-0.1-10.6c-1.1-1.8-1.9-3.4-1.7-3.5c6.9-4,11.8-11.4,11.8-17.7c-0.1-4.7-3.1-10.9-6.9-14.1
	c-1.7-1.5-3.1-3.1-3.1-3.6c0-1.5,14-14.2,15.7-14.2C69.8,86.7,72.8,87.9,75.6,89.3z M254.2,90.3c0.2,1.7-0.3,3.5-1,4.1
	c-1.4,1.2-14.5,3.2-15.3,2.5c-0.3-0.3-0.5-2.7-0.5-5.4v-4.9l8.3,0.3l8.2,0.3L254.2,90.3z M280.4,118.4c0,29-0.6,35.3-2.8,32.8
	c-1.4-1.6-8-24.3-9.6-33c-4.6-24.6-4.7-22.7,1.7-26c1.8-0.9,4.3-2.3,5.7-3.1C280.5,86.2,280.4,85.5,280.4,118.4z M835.4,93.9
	c4,0.8,6.3,1.9,8.7,4.3c3.9,3.9,4.4,6,1.1,4.8c-6.3-2.3-14.7-0.1-22.5,5.8c-4.1,3.1-4.2,3.1-9.3,1.8c-4.8-1.2-5.7-1.1-11.5,0.9
	c-8.2,2.8-9.4,2.8-16.5-0.8c-6.7-3.4-9.8-3.7-16-1.5c-5.8,2-9.3,1.9-14.1-0.6c-5.5-2.8-10.5-2.6-16.7,0.5c-2.8,1.4-5.8,2.6-6.6,2.6
	c-1.8,0-10.6-4.1-10.6-4.9c0-0.4,4.9-3.8,10.8-7.8l10.7-7.2l43.5,0.5C810.3,92.6,832.4,93.3,835.4,93.9z M259.6,102.3
	c1.5,0.8,3,2.4,3.2,3.7c0.3,1.2,1.2,6.5,2.1,11.7c1,5.2,3.4,14.9,5.5,21.5c4.3,13.8,5.5,19.5,4.2,19.5c-0.5,0-1.7-1-2.5-2.3
	c-1.5-2.2-1.5-2.2-1-0.1c0.6,2.5-1,3.9-2.4,2.1c-0.5-0.6-1.7-3.3-2.7-6c-2.5-6.8-3.6-5.8-1.6,1.5c2.3,8.3,3.4,17.5,2.2,18.2
	c-0.5,0.3-1.5-2.2-2.2-5.7c-1.7-8.6-7.6-28.7-11.1-37.9c-6-15.4-15.6-18.1-25-7c-8.5,10-19.1,33.6-22.4,49.5c-2.1,10-2.1,10-4.5,8.7
	s-2.6-5.5-0.6-15.1c3.6-17,12.4-36,23.3-50.4c7.3-9.5,10.6-12.1,17.5-13.4C246.9,99.7,256,100.5,259.6,102.3z M321.5,101.6
	c2.2,1.8,2.3,2.1,0.8,3.6c-3.2,3.2-29.9,3.2-29.9,0c0-2,1.7-2.8,8.5-4.1C310.7,99.2,318.8,99.4,321.5,101.6z M127,102.3
	c5.2,2.5,6.4,5.8,6.4,16.9c0,5.2-0.2,9.5-0.5,9.5c-0.2,0-2.1-1.1-4.1-2.5c-2.8-1.9-5-2.5-9.1-2.5c-5.7,0-8.4,0.9-11.9,4.2l-2.1,1.9
	l-0.7-5.6c-0.3-3.1-1.2-7.6-1.8-10.1c-1.2-4.3-1.1-4.6,1.2-6.5c4.1-3.4,12.3-6.9,15.8-6.9C122.1,100.7,125.1,101.4,127,102.3z
	 M870.5,105.9c0.6,2.9,2,7.2,3.1,9.6c2.2,5.4,2.2,5.2-0.3,5.2c-3,0-5.7-1.7-7.3-4.8c-1.4-2.4-1.5-2.5-1.6-0.6c0,3.7,3.1,6.5,8,7.2
	l4.5,0.6l-4.5,0.8c-7,1.2-11-2.6-11-10.6c0-3.2,5.1-12.6,6.9-12.6C868.8,100.7,869.8,103.1,870.5,105.9z M225.5,107.5
	c-0.5,1-1.7,2.4-2.5,3.1c-2,1.7-10.6,15.1-14.1,22.1c-1.5,3-4.3,9.5-6.1,14.3c-3.3,9-5.7,12.8-7.7,12.4c-0.7-0.1-1.3,0.8-1.5,2
	c-0.2,1.5-1,2.3-2.3,2.3c-2.1,0-2.2-0.4-4.1-13.5l-1.2-9l-0.8,15.9c-0.4,8.7-0.9,16-1.2,16.3c-2.1,2.1-2.6-2.7-2.6-25.2v-24.5
	l4.3-2.1c5.5-2.9,37.8-15.8,39.5-15.9C226.1,105.7,226.2,106.2,225.5,107.5z M836.7,106.8c1.4,0.6,3,2.2,3.6,3.6
	c1.5,3.2,1.4,3.3-0.8,3.3c-1,0-5.4,2.5-9.7,5.7c-4.4,3.1-11.6,8.3-16.2,11.6c-4.5,3.3-12.7,7.9-18.2,10.2
	c-5.4,2.4-12.9,6.6-16.6,9.4c-7.1,5.4-8.8,6-9.8,3.6c-0.9-2.6,3.1-5.5,16.2-11.8c6.9-3.3,16.6-8.6,21.6-11.9s11.7-7.3,14.9-8.9
	c5.6-2.9,7.3-4.9,4-4.9c-2.1,0-12.8,5.9-21.8,12.1c-7.2,4.9-28.3,15.4-29.2,14.5c-0.6-0.6,2.4-2.4,21.1-13
	c7.1-4,17.3-10.5,22.7-14.5c8.1-5.9,14.5-10.1,15.6-10.1C834.2,105.7,835.4,106.2,836.7,106.8z M753.2,111.2
	c6.2,2.9,11.4,3.2,16.5,1c5.3-2.2,8.5-1.9,15.2,1.5c7.1,3.6,9.2,3.7,17,0.9c5.7-2,12.5-2,12.5,0c0,1.1-5.8,4.8-20.4,13.1
	c-10.6,6.1-10.9,6.2-14.6,5c-2.5-0.8-5.9-1-9.7-0.6c-15.6,1.9-15.6,1.9-22.6-0.5l-6.8-2.4l-6.4,2.3c-7.6,2.6-8.9,2.7-14.6,0.6
	c-6.1-2.1-10.8-2-15,0.5c-4,2.3-5.6,2.1-11.8-1.7l-3.2-2l13.6-9.6c7.4-5.3,14.4-9.6,15.4-9.6c1.1,0,4.3,1.1,7.3,2.5
	c2.9,1.4,6,2.5,6.8,2.5s4.2-1.3,7.5-2.9s6.5-3,7-3C747.5,108.7,750.3,109.8,753.2,111.2z M296.2,110.9c0.8,0.8,1.2,5.3,1.2,13.5
	c0,11.1-0.2,12.3-1.9,13.3c-3.9,2-4.1,1.4-4.1-13.5c0-13.3,0.1-14.5,1.8-14.5C294.2,109.7,295.5,110.2,296.2,110.9z M321.7,122.9
	c-0.2,7.3-0.6,13.2-1.1,13.1c-0.4-0.2-0.8-6.1-1-13.3c-0.2-10.2,0-13,1-13C321.7,109.7,321.9,112.6,321.7,122.9z M305.6,121.7
	c0,6,0.1,11.6,0.2,12.2c0.1,0.7-1.1,1.4-2.6,1.6l-2.8,0.3v-12.5v-12.6h2.5h2.5L305.6,121.7z M313.4,114.4c0,2.1,0.3,7.5,0.7,12.1
	l0.6,8.4l-2.9-0.4l-2.9-0.3l-0.3-11.8l-0.3-11.7h2.6C313.1,110.7,313.4,111.1,313.4,114.4z M245.3,120.5c1.5,1.5,3.8,5.4,5,8.6
	l2.2,6l-2.5,5.5c-3.8,8.7-4.9,14.3-4.4,23.9c0.7,13.5,6.2,24.2,12.5,24.2c2.9,0,3.9,1.8,2.1,3.7c-2.5,2.4-8.5,0.6-12.9-3.8
	c-4.2-4.2-5.7-8.3-6.6-18.3c-0.5-5.4-0.8-6.4-1.5-4.7c-1.6,4.4-2,15.6-0.8,21.4c0.6,3.2,0.9,6.1,0.6,6.4c-0.3,0.3-1.9-0.6-3.7-2.1
	c-2-1.7-3.8-2.5-5-2.1c-5.5,1.8-9.4-3.7-8.7-12.2c0.5-5.8-0.5-5.3-2.3,1.2c-0.9,3.2-1.3,3.6-2,2.2c-1.2-2-1.4-13.8-0.5-18.8
	c1.4-7.2-2.2,1.3-5,11.8c-1.5,5.7-3.1,10.3-3.6,10.3c-1.5,0-0.8-6.7,1.7-16.1c4.1-15.6,8-24.4,16.8-38.3
	C234.1,117.8,239.9,115,245.3,120.5z M423.4,124.4c0,0.3-1.1,3.4-2.5,6.8c-8.4,21.2-7.4,66.1,2,87.7c0.6,1.6,0.1,1.8-5,1.8
	c-3.5,0-5.4-0.4-5-1c0.3-0.6,1.5-1,2.7-1c2.3,0,2.3,0-0.6-12.5c-0.9-3.9-1.6-8.8-1.7-11c0-2.2-0.4-5.1-0.8-6.5
	c-0.7-2.2-0.9-1.9-1.6,2.3c-0.4,2.6-0.5,7.4-0.3,10.6c0.4,5.6,0.3,5.8-1.9,5.8c-1.8,0-2.5-0.7-3.3-3.6c-1.2-4.5-2.8-12.6-3.3-16.6
	c-0.2-1.7-0.5,0.4-0.6,4.5c-0.2,6.5-0.4,7.1-1.3,4.5c-1.7-5.1-1.4-42.9,0.4-51c2.5-11.3,3.7-14.8,5.8-18.3c1.9-3.2,2.1-3.2,9.5-3.2
	C420,123.7,423.4,124,423.4,124.4z M431.6,125.4c2.9,3.4,4.6,7.9,6.5,17.3c3.8,19.7,1.7,64.5-3.3,70.7c-1.4,1.6-1.5,1.4-1-2.5
	c0.3-2.3,0.8-6.1,1.1-8.5l0.5-4.2l-1.1,3.5c-1.1,3.6-2.5,5.7-3.3,4.9c-0.3-0.3,0.1-2.3,0.9-4.4c0.8-2.2,1.4-5.4,1.4-7
	c0-2.7-0.2-2.5-1.4,1.4c-1.3,4-2.8,6-4.7,6.1c-0.4,0,0.4-2.5,1.7-5.5c4.9-11,5.5-27.2,1.9-45.5c-1.8-8.6-3.6-12-6.4-12
	c-2.4,0-2.5-0.8-0.4-3.8c3.3-4.8,5.4-2.7,8.8,8.8c2.8,9.5,3.4,7.6,1-2.9c-1.8-8.3-3.2-10.4-6.7-10.4c-3.2,0-3.4-1.5-0.6-5.1
	C428.9,123.2,429.6,123.1,431.6,125.4z M123.4,126.8c5.2,3.1,7,5.8,7,10.7c0.1,14.6-19.9,16-22.6,1.7c-0.8-4.5,0.1-7,4.2-11
	C116,124.2,118.5,123.9,123.4,126.8z M178.2,148.9c0.2,19.9,0,23.8-1.2,23.8c-2,0-2.6-3.2-2.6-15.4c0-6-0.2-10.7-0.5-10.4
	c-0.3,0.2-0.9,4-1.5,8.4c-1.9,13.9-3.1,14.5-4.6,2.4l-0.8-6.5l-0.7,5.3c-0.4,2.9-1.4,6.3-2.3,7.7c-3.3,5.1-11,4.4-13.6-1.2
	c-1.9-4.1-3.6-4.2-4.5-0.3c-1,4.5-2.2,3.6-2.9-2.3c-0.4-2.8-1.3-7.5-1.9-10.2c-1.1-4.5-1.2-3.1-1.7,15.2c-0.4,13.9-1,20.7-1.8,21.5
	c-0.9,0.9-1.2-5.7-1.2-30.5v-31.7l20.8,0.2l20.7,0.3L178.2,148.9z M500.5,127.6c12.3,4.7,23.1,15.5,28,27.9c3.3,8.3,3.3,25.2,0,33.5
	c-7.4,18.7-27.3,32-45.2,30.3c-8.1-0.7-17.1-3.5-17.7-5.5c-0.4-1.1,0.1-1.2,1.9-0.7c8,2.5,10.9,2.9,14.1,1.9c3.1-1,3.1-1.1,0.7-1.2
	c-4.4-0.2-11.5-2.7-13.8-5c-2.6-2.6-2.8-4.6-0.3-3.6c5.4,2.4,12.4,3.6,18.7,3.3c13.1-0.7,23.9-7.8,29.7-19.6
	c3.1-6.3,3.3-7.3,3.3-17.2c0-8.7-0.4-11.3-2.2-15.2c-2.9-6.4-11.1-14.3-18.1-17.6c-4.9-2.3-7-2.7-15.2-2.7s-10.3,0.4-15,2.6
	c-7.9,3.8-13.3,8.9-17.1,16.4c-1.9,3.6-3.7,6.5-4.2,6.5c-1.7,0,3-12.1,5.3-13.5c0.5-0.3,1-1.1,1-1.7c0-1.9-3.1,1.5-6.1,6.7
	c-2.2,3.8-2.9,4.5-2.9,2.7c0-2.4,2.9-8.7,6.3-13.7l2.1-3l-2.3,2c-1.3,1.1-3.4,3.9-4.8,6.2c-2.7,4.7-4.8,5.8-3.3,1.7
	c1.5-3.9,6.6-10.9,10.1-13.8c4-3.4,12-7.5,17.9-9.2C478.1,124.1,493.5,124.9,500.5,127.6z M845.9,134.2c2.8,2.7,3.4,5.8,1.1,4.9
	c-1-0.4-2,0.7-3.1,3.3c-1.7,4.1-6.2,9.3-8,9.3c-0.6,0-1.9-1.6-3-3.6c-1-1.9-3.2-4.7-4.9-6.1l-3-2.5l2.5-2
	C835.7,131,841.6,129.9,845.9,134.2z M690.7,138.6c6.7,5.6,7.8,5.7,15.4,2.2l6.6-3.1l4.3,2.5c5.4,3.1,8.5,3.1,16.9-0.1l6.8-2.5
	l7,2.1c5.7,1.8,8.4,2,13.9,1.5c7.3-0.7,8.2-0.1,4.7,3.1c-2.9,2.6-4.9,7.5-4.9,12.2v3.9l-5.7,0.6c-3.2,0.4-8,1-10.6,1.3
	c-3.3,0.5-7.5,0.1-12.8-1.1c-7.5-1.7-8.3-1.7-13.3-0.2c-6.7,2.1-10.4,2.1-16.9,0c-4.9-1.6-5.3-1.6-11.3,0.5
	c-7.5,2.6-9.3,2.7-13.8,0.5c-3.3-1.5-3.8-1.5-8,0.1c-2.5,1-5.5,1.5-6.6,1.1c-4.7-1.5-3.3-9.9,2.8-15.7c5.8-5.5,16.4-12.8,18.7-12.8
	C685,134.7,688.1,136.5,690.7,138.6z M815.2,140.7c-6.2,7.6-37.5,26-44.1,26c-3,0-3.9-0.5-5.2-3c-1.7-3.3-2-9.7-0.5-12
	c0.7-1.1,1-0.8,1,1.6c0,4.1,2.1,5.8,6.1,5c2.5-0.5,3-0.3,2.5,0.9c-0.9,2.3,0.2,1.9,10.8-4.4c5.5-3.2,10.4-5.7,11-5.5s5.4-2.5,10.6-6
	c5.2-3.6,9.9-6.5,10.3-6.5C818.2,136.7,817,138.5,815.2,140.7z M322.1,139.7l3.1,1.1l0.1,9.3c0,10.5,1.9,19.1,8,36.2
	s8.6,32.3,6.5,40.1c-1.3,4.6-2.3,2.1-2.3-5.5c0.1-6.7-0.4-8.9-4-17.7l-4.1-10v7.1c0,5.2-0.4,7.3-1.4,7.7c-1.6,0.6-4.6-2.2-4.6-4.4
	c0-1.2-0.2-1.2-1,0.1c-1.3,2.1-2.1,0.8-2.3-3.8c-0.2-4.9-1.4-3.5-2.3,2.6c-0.3,2.4-0.9,4.1-1.1,3.8c-0.3-0.3-0.6-6.9-0.8-14.8
	c-0.3-22.6-3.3-32.5-10.8-36.1c-4.6-2.3-8.9-1.2-13.4,3.6c-5.5,5.8-14.3,26.4-14.3,33.6c0,2.2-0.5,3.1-1.6,3.1c-1.3,0-1.5-1-1.2-5.4
	c0.3-5.9-0.2-6.3-2.2-1.6c-1.3,3.1-3,4-3,1.7c0-0.8,0.7-3.6,1.5-6.3c1.2-4.3,1.2-4.7,0-3c-0.8,1.1-2.4,4.5-3.5,7.5
	c-3.3,9.1-3.2,8.8-3.7,7.3c-1-2.6,1.9-10.9,7.4-21.2c3.1-5.8,7.1-13.4,8.9-17c5.3-10.6,11.6-15.7,22.9-18.6
	C308.3,137.6,317,138,322.1,139.7z M256.9,149.8c3.3,10.7,6.5,25.1,6.5,28.7c0,4.1-2.7,7.4-5.8,7c-4.4-0.5-9.2-12.9-9.2-23.8
	c0-7.6,4-22.4,5.6-20.7C254.2,141.2,255.5,145.2,256.9,149.8z M427.1,143.7c3.7,7.8,4.4,36.2,1.3,47.9c-2.2,8.1-5,12.8-6.9,11.7
	c-1.3-0.9-1.5-7.6-0.1-7.6s3.6-4.8,4.9-11c1.5-7.1,1.5-28.5,0-34.7c-0.7-2.6-1.8-5.5-2.5-6.4c-1.9-2.1-1.7-3.1,0.3-2.7
	C425.1,141.1,426.4,142.3,427.1,143.7z M879.6,142.7c5.4,2,15.8,10.2,15.8,12.3c0,0.7-1.3,1.9-2.9,2.9c-4.3,2.4-9,9.4-10.8,16.1
	c-1.6,5.6-1.8,5.8-4.4,5.2c-1.9-0.4-3.9,0-5.9,1.1c-2.9,1.8-3,1.8-4.5-0.1c-1.9-2.6-1.9-4,0-5.5c2.5-2.1,1.8-6.6-1.2-9
	c-2.4-1.9-3.6-2.1-7.9-1.6c-4.2,0.5-5.4,0.2-6.8-1.3c-1.6-1.7-1.4-1.9,2.4-4.5c2.2-1.4,4-3.1,4-3.6s-1.8-1.5-4-2.1
	c-4.8-1.5-5-3-0.7-6.2C860.1,140.7,870.6,139.3,879.6,142.7z M104.4,144.2c0,2,4.8,7.3,8.1,9c4.3,2.3,10.7,1.8,15.8-1
	c2.3-1.4,4.5-2.5,4.7-2.5s0.4,9.5,0.4,21c0,17.7-0.3,21.5-1.6,23.5c-0.9,1.4-2,2.5-2.4,2.5s-1-3.1-1.2-6.9
	c-0.6-8.3-3.5-14.8-9.1-20.4c-6-6-11.7-8.2-21.4-8.2c-4.6,0-8.3-0.2-8.3-0.4s1.8-2.3,3.9-4.6c2.2-2.4,5.1-6.6,6.6-9.4
	C102.3,142.1,104.4,140.8,104.4,144.2z M827,145.2c3.9,4.2,5.7,9.8,4.5,14l-0.8,3l-1.8-4.3c-1.8-4.5-3.2-5.1-6.8-2.8
	c-2.1,1.4-2.4,1.2-5.9-2.8l-3.7-4.3l4.2-3.1c2.3-1.7,4.8-3.1,5.6-3.1C823,141.7,825.2,143.3,827,145.2z M500.4,146.1
	c2,2.5,0.8,6.1-2,6.3c-1.4,0.1-1.8,0-0.7-0.3c0.9-0.3,1.7-1.3,1.6-2.2c0-1.1-0.2-1.2-0.6-0.5c-0.2,0.7-1.3,1.3-2.4,1.3
	c-1.3,0-1.9-0.7-1.9-2.3c0-1.3,0.3-2.7,0.7-3C496.2,144.2,499.1,144.6,500.4,146.1z M359.8,154.1l2.6,1.6v16v15.9l-4.2-0.2
	c-3.7-0.2-4.4,0.2-5.5,2.5c-1.2,2.4-1.6,2.5-4.3,1.5c-3.1-1.2-3.7-2.1-2-3.2c0.6-0.3,1-2.4,1-4.6c0-6.4-6.1-10.5-11.7-8
	c-1.4,0.7-2.7,1-2.9,0.9c-0.1-0.2-1.2-3.6-2.3-7.6l-2-7.2l2.7-3.1c4.3-5.2,9.5-7,18.4-6.6C354.6,152.2,358.1,153,359.8,154.1z
	 M475.2,156c2.2,1.7,1,7-1.9,8.6c-2.4,1.3-2.9,1.3-5.3-0.2c-1.8-1.2-2.6-2.6-2.6-4.7C465.4,154.6,470.9,152.5,475.2,156z
	 M850.4,154.7c0.8,0.5,1.2,1.1,1,1.4c-1.3,1.2-27.2,16.2-37.2,21.5c-11.9,6.3-25.7,12.5-26.4,11.8c-0.2-0.2,2.9-2.2,6.9-4.4
	c3.9-2.2,15.4-8.6,25.4-14.3c10-5.6,20.2-11.7,22.5-13.5C847.2,153.5,848.1,153.2,850.4,154.7z M919,156.5c0.6,0.4,1.4,3.3,1.8,6.5
	c0.3,3.1,1.3,7.5,2.2,9.7l1.6,3.9l-4.5,5.8c-2.5,3.2-7.3,8.5-10.6,11.8l-6.1,5.9l-5.4-1.8c-3-1.1-6.8-3.2-8.3-4.8
	c-2.6-2.8-2.8-3.5-2.8-11.6s0.2-9.1,3.2-13.7c3.5-5.4,7.6-8.6,13.8-10.9C908.2,155.7,917.2,155.2,919,156.5z M304.3,158.2
	c4.9,2.5,8.1,11.9,8,23.5v6.5l-2.4-7.4c-3.1-9.8-4.2-10.5-3.7-2.7c0.4,5.9,0.2,6.7-2.1,9c-4.8,4.8-13.7,2-13.7-4.1
	c0-3.5-1.8-1.8-3,2.8c-0.9,3.2-1.4,3.8-2.4,2.9c-1.1-0.8-1.5-0.3-2,2.4c-0.4,2-1.1,3.8-1.6,4.1c-1.8,1.1-1-5.6,1.5-13.1
	c5.2-15.6,11.7-24.9,17.8-25.3C301.1,156.7,302.8,157.4,304.3,158.2z M516.2,161.2c0.8,2.2,1.5,7.4,1.5,11.5c0.1,6.2-0.4,8.4-2.6,13
	c-4.1,8.4-6.9,11.2-11.1,11.5c-3.7,0.3-10.1,4.7-8.8,6c0.4,0.4-0.6,0.4-2.3,0c-3.8-1-7.4-1-8.6,0.2c-0.5,0.5,0.9,0.7,3.3,0.5
	c2.8-0.3,3.9-0.1,3.4,0.7c-0.8,1.2-11.6,1.2-11.6,0c0-0.4,1.2-1.7,2.6-2.8c2.9-2.3,6.4-2.7,9.7-1c2.1,1,2.1,1,0.3-0.5
	c-3.6-2.9-9.3-1.6-12.7,2.7c-1.5,1.9-2.1,2-5.7,0.9c-5.6-1.7-12.8-6.9-16.5-11.9c-2.8-3.9-3-4.9-3.3-13.7
	c-0.1-5.3,0.1-10.7,0.4-12.1l0.7-2.6l3.5,2.3c4.6,3,8.2,10.1,7.8,15.3c-0.3,3.7-0.5,4-3.7,4.3l-3.3,0.3l3.3,1.7
	c3.4,1.8,4.1,2.7,6.1,7.7c0.9,2.3,1.2,2.6,1.5,1.2c0.3-1,0-3.1-0.5-4.6c-0.9-2.5-0.7-3.2,1.6-5.4c5-4.8,12.1-6,17.2-3
	c4.3,2.5,5.4,5.3,3.6,8.8c-2,3.9-1.4,4.2,1.9,0.9c2.2-2.2,3.3-2.5,6.1-2.1c3.6,0.6,4.7-0.7,1.5-1.8c-3.8-1.2-3.5-12.7,0.5-20.9
	c2.2-4.3,9.5-11.7,11.3-11.4C514.1,157.1,515.4,159,516.2,161.2z M702.4,164.2c5.4,1.9,9.3,1.9,16.1-0.1c5-1.5,6.1-1.5,15.1,0.1
	c8.2,1.4,10.8,1.5,16.5,0.5c8.2-1.5,12.7-1.1,13.1,1.1c0.4,2.1-9.7,2.7-56.3,3.5c-33.9,0.6-40.5,0.2-40.5-2.4c0-0.4,1.5-1.3,3.4-2
	c2.7-1,4-1,6.9,0.3c4.7,1.9,8.2,1.8,13.7-0.5C696,162.4,697.1,162.3,702.4,164.2z M658.9,165.8c0.5,1.5,0,2.8-1.7,4.6l-2.5,2.4
	l1.1-4.5C657,163.3,657.9,162.5,658.9,165.8z M849.7,165.4c2.9,3.3,2.5,4.5-1.8,5c-2.3,0.2-16.6,6.4-34,14.6
	c-26.5,12.6-30.6,14.8-35.2,19.4c-2.9,2.8-5.3,5.8-5.3,6.7c0,2.9,2.8,4.5,6.7,3.9c4.1-0.7,4,1.1-0.1,2.1c-3.4,0.8-7.5-0.9-8.6-3.6
	c-0.7-1.8-0.9-1.9-0.9-0.6c-0.2,3.5-2.1,1.7-2.1-1.9c0-3.1,0.8-4.4,5.3-8.7c4.4-4.3,8.3-6.5,24.2-13.6c10.4-4.7,25.3-12.2,33-16.7
	s14.7-8.3,15.6-8.3S848.8,164.5,849.7,165.4z M448.1,173.9c0.4,8.9-1,10.4-2.6,2.8s-1.5-11.2,0.6-10.8
	C447.4,166.1,447.8,167.7,448.1,173.9z M788.2,170c1.9,2,2.4,3.6,2.4,7.6c-0.1,5.9-0.9,7.8-2.5,6.2c-1.5-1.5-4.8-1.4-9,0.4
	c-7.1,3-7.8,1.3-1.2-2.8c2.5-1.6,4.5-3,4.5-3.2c0-0.7-12.7,3.3-14.9,4.6c-1.9,1.3-2.4,1.2-3.9-0.7c-4.8-6-12.3-6.6-63.5-5.3
	c-23.1,0.5-42.4,0.6-42.8,0.2c-0.5-0.5,0.4-2.4,1.9-4.2l2.7-3.3l5.4,1.8c4.9,1.6,8.5,1.7,39.1,1.1c43.9-0.9,67.2-2.4,72.5-4.7
	C783.3,165.8,784.6,166.2,788.2,170z M425,177.9c-0.9,6.9-2.6,13.2-3.3,12.4c-0.6-0.6,2.8-17.6,3.6-17.6
	C425.5,172.7,425.4,175.1,425,177.9z M852,178.1c-0.7,3-5.2,5.6-9.5,5.6c-2.2,0-4.4,1.1-7.2,3.7l-4.1,3.7l0.4-2.9
	c0.2-2.5,1.5-3.7,8.2-7.6c4.3-2.5,8.3-5.4,8.8-6.3c0.9-1.6,1.2-1.7,2.5-0.3C852.1,175,852.4,176.4,852,178.1z M186.9,179.9
	c13.4,2.8,29.9,15.3,34.5,26.1c2,4.5,5,14,5,15.8c0,0.3-2.6,0.6-5.7,0.5c-4.1,0-7.1,0.7-10.1,2.3c-5.1,2.6-5.1,3.5-0.1,2.1
	c8.6-2.5,18.8,0.3,23.3,6.4c5.6,7.5,6.2,10,4.1,18.6c-0.5,1.8,0,1.3,1.7-1.5c5.1-8.5,13.9-11,20-5.6l3.2,2.9l-3.2,3
	c-1.8,1.6-3.2,3.6-3.2,4.3c0,0.8,0.8,0.5,2.3-0.8c3.3-3,6.1-3.6,10.1-1.9c2,0.8,3.6,1.1,3.6,0.6c0-1.3-4.2-4-6.2-4
	c-1,0-2.5-1.2-3.5-2.8c-2.9-4.7-5.4-6.2-10.9-6.2c-3.6,0-5.9,0.6-7.6,2c-2.8,2.2-3.8,1.8-3.8-1.7c0-3.6-3.4-9.6-7.6-13.3
	c-3-2.6-3.5-3.6-2.7-4.9c2-3.2,12.9-11.3,19.8-14.6c27-13,54.8-8.7,76.1,11.7c4.5,4.3,9.4,9.7,10.9,11.9l2.8,4l-2.1,6.7
	c-1.2,3.7-2.2,7.8-2.2,9.2s-0.9,3.8-2,5.5c-2.8,4.3-2.5,5.2,0.6,1.6c5.2-6.3,14.2-5.7,18.4,1.1c2.8,4.7,2.6,6.4-1,7.2
	c-1.7,0.3-4.3,1.9-5.9,3.6c-2.7,3-2.8,3-4.5,1.1c-5.2-5.8-15.8-4.5-19.3,2.3l-1.6,3.1l3.7-3.3c2.9-2.5,4.6-3.2,7.9-3.2
	c4.3,0,8.6,2.1,11.2,5.6c1.4,1.9,1.4,1.9,1.5-0.2c0-3.6,4.6-6.9,9.5-6.9c3.6,0,5,0.6,7.9,3.4c2,1.9,3.6,2.9,3.6,2.2
	c0-1.8-6.5-8.1-8.4-8.1c-0.9,0-1.6-0.8-1.6-2c0-3.8-2.9-9-6.2-11c-2.6-1.7-4.3-2-8-1.5c-2.7,0.3-4.8,0.3-4.8,0s1.6-3.8,3.6-7.8
	c5.1-10.1,15.7-20.6,23.9-23.6c8.8-3.3,18.9-2.6,28.2,1.9c8.5,4.2,19.1,14.5,26.1,25.4c6,9.4,6,12.1,0,17.7c-2.1,2-3.8,4.1-3.8,4.8
	s1.3-0.1,3-1.7c3.5-3.5,6.8-4.3,10.7-2.7c3.6,1.6,6,4.3,6.5,7.5c0.3,2.4,0.4,2.3,2.1-1.1c1-2,3.3-4.5,5.2-5.5
	c2.9-1.5,4.1-1.7,7.6-0.7c3.6,0.9,3.9,0.9,2.6-0.4c-0.8-0.8-3.2-1.7-5.3-2c-3.1-0.4-4.7,0.1-7.8,2.2l-3.9,2.6l-2.6-2.5
	c-1.4-1.3-3.9-2.8-5.4-3.2c-2.5-0.6-2.8-1-2.2-3.2c1.1-4.3,7.2-12.7,11.8-15.9c13.7-9.9,31.2-8,43,4.6c5,5.3,9.1,12.9,8.5,15.8
	c-0.2,0.8-1.8,2.1-3.7,2.7c-1.9,0.6-4.1,2.1-4.9,3.4l-1.5,2.3l3.7-2.2c4.5-2.6,8.8-2,12.8,1.8c1.6,1.6,2.8,2.1,2.8,1.4
	c0-0.8-1.6-2.8-3.5-4.6l-3.5-3.3l3.4-3c6-5.3,12.9-5,19,0.6c5,4.7,6.5,7.9,5.5,11.8c-0.8,2.9,0.3,11.4,1.5,11.4
	c0.1,0,0.2-2.6,0.2-5.8c-0.1-5,0.4-6.5,2.7-9.5c1.5-2.1,4.1-4.4,5.8-5.2c2.7-1.4,2.9-1.4,2.9,0.1s0.4,1.4,2.5-0.6
	c6.9-6.4,16.3,0.5,16.6,12.2l0.1,4.3l1-3.2c0.6-1.7,0.7-4.8,0.4-6.8c-0.8-4.3-5.6-10-9.2-10.9c-2.9-0.8-17.6,3.8-19.5,6
	c-2.7,3.2-4.7,0.2-7-10.6c-2.6-12.4,4.7-25.7,17.1-31.3c7.1-3.2,18-2.9,24.6,0.5c5.5,2.9,12.2,9.8,14.8,15.2c2,4.2,2.1,8.6,0.2,8.6
	c-1.7,0-6.6,3.8-6.6,5.2c0,0.6,0.8,0.4,1.8-0.5c3.9-3.5,9.4-2.1,12.2,3.1c1.8,3.6,1.9,3.6,2,1c0-1.4-1.2-4-2.6-5.7
	c-3.1-3.8-2.6-5.7,2.1-7.6c4.4-1.9,5.9-1.9,10.2,0.2c7.4,3.5,9.7,13.7,4.8,20.9c-1.4,2-2.5,4.4-2.5,5.3s0.9,0.2,2-1.7
	c3.9-6.4,12.9-7.8,18.7-2.8c2.5,2.2,2.6,2.6,1.5,5.1c-1.5,3.3-0.9,4.6,0.7,1.6c0.6-1.1,3.2-3.3,5.8-4.8c5.1-3,4.5-4.2-1-2
	c-3.3,1.4-3.5,1.4-6.5-1.5c-2.1-2.2-4.2-3.2-7.6-3.5l-4.6-0.6v-4.1c0-13.8,15.3-25.6,29.2-22.7c11,2.4,20.2,8.8,25.5,17.9
	c4.2,7.1,4.4,10.1,1.1,14.4c-1.6,2-3.8,5.7-4.9,8.2c-1.9,4.5-2.1,4.6-6.4,4.6c-3.4,0-5.3,0.7-8.9,3.5c-4,3-5.8,3.6-12.9,4.5
	l-8.2,0.9l-3-3.3c-8.2-9.2-18.7-8.5-25.4,1.7c-1.9,2.9-2.7,3.4-4.2,2.7c-1-0.6-2.9-1-4.2-1c-2.3,0-2.5-0.3-2-4
	c0.5-3.4,0.2-4.3-2.5-7c-5.6-5.5-14.8-3.7-17.8,3.6c-0.8,1.8-1.4,5-1.4,7c0,2.7-0.4,3.5-1.4,3.1c-0.7-0.3-2.5,0.1-3.9,0.8
	c-2.3,1.2-2.8,1.1-4.4-0.7c-5.1-5.6-10.7-5.7-15-0.2l-2.5,3.4h-16.4c-16.1,0-16.3,0-18.8-2.5c-3-3-7.5-3.3-11.2-0.8
	c-2.5,1.6-2.7,1.6-3.6-0.1c-0.7-1.2-1.7-1.6-3.4-1.2c-1.3,0.4-2.4,0.2-2.4-0.3c0-1.7-4.1-3.3-6.7-2.6c-1.5,0.3-3,1.8-3.9,4l-1.4,3.5
	h-8.8h-8.9l-2.4-3.7c-3.4-5.2-7-7.5-12.6-8c-5.9-0.6-12,2.1-15.5,6.7c-2,2.8-2.6,3-8.7,3c-3.6,0-9-0.3-11.9-0.7l-5.3-0.6l2.3-2.4
	c1.3-1.4,4.9-4.2,8.2-6.4c3.2-2.1,5.3-3.9,4.7-3.9c-3,0-8.6,3.4-13.6,8.1c-3.5,3.3-6,4.9-7,4.5c-1.4-0.5-1.4-0.9-0.1-3.4
	c4.1-8,15.7-17.7,26.3-22.2c4.3-1.8,4.5-2,1.3-1.4c-5.9,0.9-16.2,6.5-21.1,11.4c-2.5,2.5-5.7,7-7,9.8c-2.1,4.6-2.7,5.2-5.5,5.2
	c-8.9,0-73.8-7.5-75.9-8.8c-0.5-0.4-2.1-0.5-3.5-0.4c-1.7,0.2-4.1-0.9-7.1-3.2c-5.1-4-11.7-6.6-16.3-6.5c-2.6,0.1-2.1,0.4,2.9,2
	c3.3,1,7.1,2.8,8.5,3.9c2.3,1.8,2.4,2,0.5,2c-2,0-28.8-4.5-33.2-5.6c-3.6-1-2.7-2.3,3.5-5.2c4.6-2.1,7.2-2.6,13.7-2.7
	c6.9,0,8.9,0.4,14.6,3.1c3.7,1.8,8.6,4.9,10.9,7c2.5,2.2,3.9,3,3.2,1.9c-2.7-5.1-10.5-10.6-18.2-12.9c-9.6-2.9-19.1-1.5-27.3,4.1
	l-5.2,3.5l-6.6-1.2l-6.6-1.1l-0.6-5.8c-1.1-12.1-8.2-19.6-18.7-19.6c-4.6,0-6.3,0.5-9.3,2.8c-1.9,1.5-4.1,4.3-4.8,6.2
	c-1.5,4-2.4,4.3-3.9,1.5c-1.3-2.4-6.1-5-9.3-5c-1.3,0-4.1,1.1-6.1,2.5c-2.5,1.7-3.8,2.1-4.1,1.2c-0.2-0.6-0.8-2.8-1.4-4.7
	c-1.4-4.3-12.4-16-15.1-16c-1.4,0-2.3-1.1-3.1-4c-2.3-7.7-12-14.4-18.1-12.4c-4.4,1.4-1-2.2,5.1-5.4c12.5-6.4,25.4-2.7,33.2,9.6
	c1.6,2.5,2.9,3.9,2.9,3c0-2.8-6.3-11.1-10.8-14.2c-3.5-2.5-5.5-3.1-11.3-3.4c-8.8-0.5-14.1,1.3-19.4,6.8c-2.2,2.2-4.2,4-4.6,4
	c-0.4,0-1-1.1-1.3-2.5c-0.3-1.3-2.2-3.7-4-5.2l-3.4-2.7l2.8-4c3.7-5.5,12.4-13.6,18-16.9C159.4,178.4,171.8,176.7,186.9,179.9z
	 M835.5,179.6c-2.8,2.1-24.4,13.1-41,20.8c-10.7,4.9-14,5.8-11.4,3.2c1.5-1.5,52.7-25.9,54.3-25.9
	C837.7,177.7,836.8,178.6,835.5,179.6z M750.7,179.3c4.6,0.8,4.7,2.1,0.5,3.8c-3.7,1.5-79.8,3.3-88,2.1c-4.6-0.7-8.8-2.8-7.7-3.9
	C656.7,180.1,744.2,178.3,750.7,179.3z M761.2,183.9c1.8,1.8,1.4,5.9-0.8,9.5l-2,3.3l-11.7-0.1c-6.5-0.1-14.5-0.4-17.8-0.8
	c-5.7-0.6-5.4-0.7,5-1.2c12.5-0.7,15-1.7,21-7.8C759.2,182.3,759.5,182.2,761.2,183.9z M395.8,185.3c0.3,0.9,0.6,3.1,0.6,4.9
	c0,5.5,2.7,18.1,5.4,24.6c2.4,5.9,2.4,6.1,0.4,4.2c-1.1-1.2-2.9-4.5-3.9-7.4c-1.7-5.1-2.3-5.2-3.1-0.4c-0.3,1.9-0.5,1.8-2.7-0.6
	c-1.9-2.3-2.9-2.6-6-2.2s-4.2,0.1-6-1.8c-1.1-1.2-2.1-2.9-2.1-3.6c0-0.8-0.4-1.1-1-0.8c-0.5,0.3-1,1.7-1,3.1c0,4.1-1.7,2.6-2.7-2.4
	l-1-4.7l-0.7,6.7c-0.6,4.8-1.3,6.8-2.2,6.8c-1.1,0-1.4-2.5-1.4-12.4c0-6.8,0.3-13.1,0.6-14c0.5-1.3,2.7-1.6,13.4-1.6
	C393.1,183.7,395.3,184,395.8,185.3z M599.9,185.9c0.3,1.3,0.4,14.2,0.3,28.7c-0.3,30.3-1.6,35.2-3.7,13.9c-2-20.7-2.4-22-3.6-10.5
	c-1,9.8-2.5,12.8-3.6,7.2l-0.6-3l-0.8,2.8c-1.4,5-7.6,6.4-11.3,2.4c-1.1-1.2-2.4-4.2-2.8-6.7c-1.3-8.6-4.9-12.4-9.3-10.1
	c-3.4,1.9-5.8,1.3-6.9-1.7c-1.7-4.3-3.2-10.4-3.3-13.7c-0.1-2.7-0.2-2.6-1,1c-0.4,2.2-0.8,5.9-0.8,8.2l-0.1,4.2l-5.3-0.6
	c-3.5-0.4-7.3,0-11.2,1.1c-5,1.5-7,2.9-15.6,11.3c-5.4,5.3-10.4,10-11.1,10.4c-2.3,1.5-5.7,1-10.8-1.6c-6.4-3.3-15.2-4.2-24-2.5
	c-6.1,1.1-7.2,1.1-9.3-0.3c-1.4-0.9-5.1-1.7-8.3-1.9l-5.9-0.3l-2-6l-2-6l-0.3,6.7l-0.3,6.7l-4.7-0.5c-5.9-0.6-10.9,1.8-13.1,6.3
	c-1.9,3.8-3.1,4.1-5.6,1.3c-1-1.1-4.4-3-7.6-4.1c-3.2-1.2-6.5-2.9-7.3-3.8c-1.3-1.5-0.5-1.6,10.9-1.3c12.1,0.4,12.5,0.3,14.9-2.1
	c2.3-2.3,6.6-13.8,6.6-17.6c0-3.6,1.4-2.9,7.1,3.3c10.8,11.8,22,16.8,37.4,16.8c23.7,0.1,40.1-12.2,50.3-37.5l1.2-2.7h31.5h31.5
	L599.9,185.9z M653.8,186.2c0.3,0.8,0.1,1.5-0.4,1.5c-0.6,0-1-0.7-1-1.5s0.2-1.5,0.4-1.5S653.4,185.4,653.8,186.2z M748.9,187.7
	c0.4,0.6-0.9,1.7-2.9,2.5c-4,1.7-29.1,2-63.9,0.8c-15.4-0.5-19.7-0.9-19.7-1.9c0-1.1,7.9-1.4,42.3-1.7c23.2-0.1,42.5-0.3,42.9-0.5
	C748,186.8,748.6,187.2,748.9,187.7z M820.4,192.5c0,0.5-1.6,2.3-3.6,4c-2.5,2.3-4.2,3-5.8,2.6c-1.4-0.3-2.8,0.2-3.9,1.4
	c-2.5,2.7-20.5,9.8-21.7,8.6c-0.7-0.7,3.5-3.1,12.7-7.3c7.6-3.4,15.4-7.1,17.3-8.1C819.3,191.6,820.4,191.3,820.4,192.5z
	 M651.9,198.5c-1.7,1.6-1.7,1.6-1.1-0.8c0.3-1.4,0.6-3.2,0.7-4c0-0.9,0.5-0.6,1.1,0.8C653.5,196.4,653.4,197.1,651.9,198.5z
	 M679.4,193.7c4.3,0.5,2.6,0.7-7.5,0.7c-8,0-11.7-0.2-9.5-0.7C667,192.7,672.6,192.7,679.4,193.7z M771.1,200
	c-2.4,2.4-4.8,5.8-5.1,7.4c-0.7,2.9-1,3.1-9.6,4.7c-4.8,1-11.4,2.6-14.7,3.7l-5.8,1.9l12-0.4c6.6-0.2,13.2-0.9,14.7-1.5
	c2.1-0.8,2.9-0.7,3.9,0.5c0.6,0.8,1,1.6,0.8,1.9c-0.8,0.7-43,2.6-44,2c-0.5-0.4-0.9-1.4-0.9-2.3c-0.2-6.9-8.9-6.8-11.3,0.1
	c-0.6,1.6-1.4,1.7-7.9,1c-9.1-1-16.7-1-33.4,0.1c-15,1-14.4,1.3-16.5-8.2c-0.8-4-0.7-5.7,0.5-8.6c1.7-4.2,3.6-4.7,3.6-1.1
	c0,1.8,0.7,2.6,2.5,3.1c3.1,0.8,5.7-1.2,5.3-4c-0.3-2.1,0-2.1,16.1-1.9c15.2,0.2,16.5,0.4,17.8,2.3c1.8,2.6,4.9,2.6,6.4-0.2
	c1.1-2.1,1.2-2.1,27.3-1.4c14.3,0.3,27,0.9,28.1,1.1c1.1,0.3,4.7-0.8,8-2.3c3.3-1.6,6.2-2.8,6.4-2.6S773.6,197.6,771.1,200z
	 M839.7,197.1c-2.1,3.6-13.8,12.2-22.9,16.7c-8.3,4.2-11.3,5.2-17,5.7c-6.3,0.5-6.8,0.4-5.5-1.1c0.7-1,5-3.5,9.4-5.7
	c4.5-2.3,8.7-4.6,9.5-5.3c1.7-1.4,24.1-11.4,26-11.6C840,195.7,840.2,196.2,839.7,197.1z M504.4,198.7c0,1-5.2,4-7.1,4
	c-1.6,0,1-3,3.6-4C503.6,197.5,504.4,197.5,504.4,198.7z M890.7,200.4c4.2,1,7.6,2.2,7.4,2.8c-0.8,2.3-24.4,17.1-39.2,24.5
	c-8.9,4.4-16.6,8-17.3,8c-2,0-1.4-2.3,2.4-8.6l3.5-5.9l-2.9,2.8c-1.7,1.6-4.2,5.6-5.7,8.8c-2.5,5.6-3.8,6.9-4.9,5.1
	c-0.3-0.4,1-3.9,2.9-7.8c3.2-6.7,10.8-15.7,17-20.3l3-2.2l-3.5,1.7c-9.3,4.5-16.8,13.7-20.1,24.6c-1.2,3.7-2.6,6.8-3.1,6.8
	c-1.8,0,0-5.7,4.6-15.6c6.7-14.1,15.9-22.8,27-25.5C867.7,198.2,882.7,198.6,890.7,200.4z M828.4,218.6c0,1.7-8.1,10-12.8,13
	c-7,4.5-16.3,7.4-40.9,12.7c-26.5,5.7-32.5,6.3-57.3,5.9c-27.8-0.5-40.5-3.6-49.8-11.9c-4.1-3.7-9-13.2-7.5-14.7
	c0.4-0.4,2.8,0.6,5.3,2.3c7,4.8,16,8.7,24.1,10.5c15.8,3.5,54.9,1.7,83.8-3.8c9.9-1.9,36.5-9.1,48.1-13
	C827.7,217.5,828.4,217.4,828.4,218.6z M714.4,223.7c6,0.8,10.4,0.8,15,0.1c10.3-1.7,16.4-1.4,19.1,0.9l2.4,2l-2.3,1.9
	c-4,3.5-11.8,4.3-37.5,3.9c-21.8-0.3-24.6-0.5-28.2-2.3c-2.2-1.1-4-2.4-4-3c0-1.8,5.8-3.8,13.4-4.4
	C700.5,222,701.4,222.1,714.4,223.7z M818.4,238.9c0,1.9-1.8,4.3-2.5,3.6c-0.4-0.3-0.2-1.6,0.5-2.7
	C817.6,237.4,818.4,237.1,818.4,238.9z M810.4,247c0,0.7-5,2.8-11.8,4.9c-14.3,4.6-18.2,5.4-18.2,4c0-1.2,9.4-7.5,13.5-9
	C798.3,245.4,810.4,245.4,810.4,247z M778.2,247.4c-0.2,0.5-1.8,3.4-3.6,6.5c-3.4,5.8-4.9,7.5-5.9,6.5c-0.8-0.8,2.7-10.5,4.4-12.2
	C774.6,246.7,778.8,246.1,778.2,247.4z M743.2,255.9c-3.4,4.9-6,7.8-7.1,7.8c-1.2,0-0.4-1.9,2.8-6.9c1.6-2.6,3.3-4.1,4.5-4.1
	C745.4,252.7,745.4,252.8,743.2,255.9z M703.9,258.4c8.4,2.9,18.6,10.8,17.1,13.2c-1.3,2.1-6.7,1.2-10.5-1.8
	c-6.9-5.4-12.4-7.3-20.9-7.3c-2.6,0.1-5.8,0.5-7.2,1.1c-1.9,0.7-1.2,0.8,3.1,0.4c3.6-0.4,7.5,0,11,1c6.2,1.9,15.6,7.5,14.3,8.6
	c-1.9,1.6-20.2,4.1-22.9,3.1c-4.4-1.7-8.3-1.1-14.3,1.9c-7.6,3.9-14.8,4.7-18.2,2.2l-2.4-1.9l3.5-4.5
	C668.6,258.8,687.2,252.5,703.9,258.4z M750.7,257.2c-0.3,1.3-5.3,2-5.3,0.7c0-1.5,1.3-2.3,3.5-2C750,256.1,750.8,256.6,750.7,257.2
	z M751.9,264.6c-0.6,0.5-2.8,1.2-5,1.6c-3.7,0.6-3.9,0.5-2.1-0.9C746.9,263.6,753.5,263,751.9,264.6z M653.3,281.6
	c0.7,0.5,0.9,1.1,0.5,1.4c-1.3,0.7-13.4,2-13.4,1.3c0-0.3,1.2-1.2,2.8-2C646.2,280.6,651.2,280.3,653.3,281.6z"/>
<path class="st0" d="M609.4,40.7c-8,0.3-14.3,0.7-14,0.9c0.3,0.3,7.5,0.7,16,1l15.5,0.6l-4.5,2.4c-4.8,2.5-14.9,8.9-16.5,10.4
	c-0.5,0.5,6.4-2.8,15.5-7.3s16.7-8.4,16.9-8.6C638.8,39.7,631.3,39.8,609.4,40.7z"/>
<path class="st0" d="M427.7,48.6c-10.5,4.2-19.4,7.9-19.8,8.3c-0.3,0.3,12.6,0.4,28.7,0.1l29.3-0.6l18.4-6.3
	c18.2-6.3,22.8-8.3,16.2-7c-1.8,0.3-9.5,0.7-17,0.8c-13.5,0.2-13.6,0.2-4.1,0.8c6.6,0.4,8.9,0.8,7.5,1.4C466,55.2,466.7,55,445.7,54
	c-12.5-0.7-18-1.3-16.3-1.8c1.4-0.5,6.1-2.8,10.5-5.1l8-4.2l26.5-0.9l26.5-1h-27l-27-0.1L427.7,48.6z"/>
<path class="st0" d="M525.9,56.6c-2.7,0.6,1.5,0.9,12.5,1c9.1,0.1,22.4,0.3,29.5,0.6c9.9,0.3,12.2,0.2,9.5-0.6
	C573.1,56.3,531.4,55.6,525.9,56.6z"/>
<path class="st0" d="M376.4,95.8c0,11.8,0.4,21.9,0.8,22.6c0.6,0.9,7.6,1,31.2,0.2c16.8-0.5,31.4-1.1,32.5-1.3
	c1.1-0.2-5.4-0.5-14.5-0.6c-9.1-0.2-18.3-0.4-20.5-0.5s-8.8-0.2-14.8-0.3l-10.7-0.2l0.2-18.3l0.3-18.2l32.5-0.5
	c17.9-0.3,33.1-0.3,33.8-0.1c0.8,0.2,1.2,2.8,1.3,8c0.1,4.2,0.4,11.4,0.8,16.1c0.6,7.9,0.7,7.2,1.2-9c0.3-9.6,0.5-17.7,0.3-17.9
	c-0.2-0.2-17-0.6-37.4-0.9l-37-0.5L376.4,95.8L376.4,95.8z"/>
<path class="st0" d="M559.8,77.1c-1,2.6,0.4,4.8,2.8,4.4c1.7-0.2,2.3-1,2.3-2.8s-0.6-2.6-2.3-2.8C561.3,75.7,560.1,76.2,559.8,77.1z
	"/>
<path class="st0" d="M595,84.9c-1.2,9.8-1.9,42.2-1.1,55.1c0.4,7.1,0.8,12.7,1,12.5c0.5-0.5,1.8-72.8,1.3-72.8
	C595.9,79.7,595.4,82.1,595,84.9z"/>
<path class="st0" d="M517.6,96.4l0.3,12.8l3.5,0.3c3.8,0.4,54.3-0.8,53.8-1.3c-0.3-0.3-13.9-1.2-21.3-1.5c-2.6-0.1-2.7-0.3-1-1
	c1.1-0.5,4-0.9,6.4-0.9c2.4-0.1,4.2-0.3,3.9-0.6c-0.5-0.5-32.9-0.6-38.8-0.2c-2.5,0.2-2.5,0.1-2.8-8.1l-0.3-8.2h7.8
	c4.3,0,17.8-0.3,30.1-0.7l22.2-0.6l0.1,4.4c0,2.4,0.4,6.6,0.9,9.4c0.6,4.2,0.8,3.3,0.9-5.8l0.1-10.7h-33h-33.1L517.6,96.4z"/>
<path class="st0" d="M424.8,87.1c-12.2,5.4-9.9,22.2,3.3,24.1c6.9,1.1,13.6-5,13.6-12.5C441.7,90,432.6,83.7,424.8,87.1z
	 M434.2,90.7c3.5,2.2,3.9,3.2,1.8,4.9c-0.7,0.6-2.6,3.8-4,7.2c-2.4,5.2-3,5.9-4.9,5.3c-3.3-1-6.5-4.3-7.2-7.5
	c-0.9-3.8,1.9-8.7,5.8-10.4C429.9,88.3,430.3,88.4,434.2,90.7z M438.8,100.4c-0.6,3.1-4.9,8.2-5.9,7.1c-0.3-0.3,0.7-3.1,2.1-6.2
	C437.7,95.3,439.9,94.8,438.8,100.4z"/>
<path class="st0" d="M429,97.1c-2.6,5.5-1.8,7.7,0.9,2.6c2.7-5,2.9-6,1.6-6C431,93.7,429.9,95.2,429,97.1z"/>
<path class="st0" d="M395.1,87.9c-2.8,2.2-3.2,6.3-0.8,8.7c2.9,2.9,6.5,2.7,9-0.6c3.2-4,0.7-9.3-4.4-9.3
	C397.7,86.7,396,87.3,395.1,87.9z M400.9,92.7c0,1.6-0.6,2.6-1.8,2.8c-1.9,0.4-3.2-2-2.3-4.4C397.7,88.6,400.9,89.8,400.9,92.7z"/>
<path class="st0" d="M568.9,89.3l-7,1.1l6,0.4c5.2,0.3,6,0.7,6,2.4c0,1.7-0.8,2-5.9,2.3c-4.6,0.2-6.1-0.1-7.2-1.5
	c-1.4-1.7-1.4-1.6-1.2,0.7c0.3,2.4,0.6,2.5,8.1,2.8c8.6,0.3,9.1,0,8.5-5.9l-0.3-3.4L568.9,89.3z"/>
<path class="st0" d="M394.1,100.4l-9.8,0.4l0.3,6.2l0.3,6.2l11.4,0.3c7.5,0.2,11.8-0.1,12.7-0.9c0.9-0.7,1.4-3.2,1.4-7v-5.9
	l-3.2,0.2C405.4,100,399.5,100.3,394.1,100.4z M403.6,106.2c0.3,4.3,0.2,4.5-2.4,4.5c-2.5,0-2.6-0.3-2.6-4.5c0.1-4,0.4-4.5,2.4-4.5
	C402.9,101.7,403.2,102.3,403.6,106.2z M408.2,106.8c-0.2,1.9-0.7,3.3-1.3,3.2c-1.2-0.3-1.9-4.9-1-7.1
	C406.9,100.3,408.6,103.1,408.2,106.8z"/>
<path class="st0" d="M587.5,132.9c-0.1,8.1,0.3,13.9,0.9,14.3c1.2,0.8,1.2-23.1,0-26C587.9,119.9,587.5,124.3,587.5,132.9z"/>
<path class="st0" d="M373.6,146.7c0,11.3,0.4,21.8,0.8,23.5s0.8-6.6,0.8-18.5c0-11.8-0.3-22.4-0.8-23.5
	C373.9,127,373.6,134.4,373.6,146.7z"/>
<path class="st0" d="M581.1,129.3c-1,1-0.9,10.6,0.2,12.3c0.6,1,1.1,0.2,1.5-2.5C583.4,134.8,582.3,128.1,581.1,129.3z"/>
<path class="st0" d="M142.9,73.5c-0.7,0.7-0.6,7.7,0.1,9.6c0.5,1.3,2.6,1.6,13,1.6h12.4v-4.3c0-2.3-0.4-4.7-0.8-5.3
	C166.9,74,144,72.5,142.9,73.5z M165.2,79.9c0.3,1.6-0.7,1.8-9.8,1.8c-7.7,0-10.1-0.3-9.8-1.3c0.6-1.6,5.8-2.5,13.3-2.3
	C163.7,78.2,164.9,78.5,165.2,79.9z"/>
<path class="st0" d="M141.4,102.1c0,14.9,0.2,15.1,15.6,14.7c6.5-0.1,12.2-0.5,12.6-0.7c1-0.6,1-11.9,0.2-19.2l-0.7-5.2h-13.8h-13.9
	L141.4,102.1L141.4,102.1z M152.4,95.3c0,0.4-1.3,2.2-3,4.1c-1.6,1.8-3,4.5-3,5.8s-0.4,2.7-1,3c-1.1,0.7-1.4-11.7-0.3-12.8
	C145.9,94.5,152.4,94.5,152.4,95.3z"/>
<path class="st0" d="M681.9,91.9c-2.1,6.5-4.8,10.4-8.9,12.9c-2.9,1.8-3,1.9-0.7,1.9c1.4,0,3.9-1.5,6.1-3.8c2.9-2.9,4-5,5-9.5
	C684.9,85.9,684.2,85.1,681.9,91.9z"/>
<path class="st0" d="M885.5,108.9c4,14.2,18.4,28.5,31.4,31.3c1.8,0.4,0.4-0.7-3.5-2.7c-8.9-4.5-20.4-16.1-24.9-25.1
	c-1.9-3.7-3.5-6.7-3.7-6.7C884.7,105.7,885,107.2,885.5,108.9z"/>
<path class="st0" d="M906.4,125.3c0,1.7,2.4,4.6,5,5.9c3.9,2,3.8,0.7-0.3-3.3C908,124.9,906.4,124,906.4,125.3z"/>
<path class="st0" d="M755.9,80.7c-2.2,0.3-4.9,1.1-5.9,1.7c-1.5,0.8-0.3,0.9,5,0.6c5.1-0.4,8-0.1,10.9,1.1l4,1.7l-2-2.1
	C765.2,81.1,760.9,80,755.9,80.7z"/>
<path class="st0" d="M90,121.8c1,10.7-3.7,27.9-9.3,34.1c-0.9,1-1.4,2-1.1,2.3c0.9,0.9,8-9.5,10-14.7c2.7-7.2,3.3-17.1,1.4-22.8
	l-1.6-4.5L90,121.8z"/>
<path class="st0" d="M84.8,136.3c-0.4,1-2.7,5-5.1,8.8c-2.4,3.7-4.2,7-4,7.3c1,1,8.8-9.3,9.8-12.9C86.6,135.4,86,132.9,84.8,136.3z"
	/>
<path class="st0" d="M102.4,176.6c7.9,2.6,13.7,7.9,17,15.3c1.1,2.7,2.2,4.8,2.4,4.8s0-1.9-0.6-4.2c-2-9-8.8-15.6-17-16.4
	C100.9,175.8,100.5,175.9,102.4,176.6z"/>
<path class="st0" d="M113.4,192.2c2.8,6.5,4.5,8.2,3.5,3.5c-0.4-1.9-1.8-4.6-3.1-6l-2.5-2.5L113.4,192.2z"/>
<path class="st0" d="M194.5,154.3c0,1.1,0.3,1.4,0.6,0.6c0.3-0.7,0.2-1.6-0.1-1.9C194.7,152.6,194.4,153.2,194.5,154.3z"/>
<path class="st0" d="M404.5,138.2c-2.1,6.7-4.7,24.2-3.8,25.2c0.3,0.2,0.8-2.2,1.1-5.4c0.4-3.2,1.7-10.3,3-15.8s2.2-10.2,2-10.3
	C406.7,131.7,405.6,134.5,404.5,138.2z"/>
<path class="st0" d="M404,153.4c-0.3,2.1-0.5,8.1-0.4,13.3l0.1,9.5l0.7-13c0.5-7.2,0.7-13.1,0.5-13.3
	C404.8,149.8,404.4,151.3,404,153.4z"/>
<path class="st0" d="M435.6,155.7c0,1.4,0.2,1.9,0.5,1.2c0.2-0.6,0.2-1.8,0-2.5C435.8,153.8,435.6,154.3,435.6,155.7z"/>
<path class="st0" d="M123.8,132.7c2.3,3.5,2,8.9-0.6,11.7c-1.2,1.3-1.9,2.3-1.5,2.3c0.3,0,1.5-1,2.7-2.2c2.7-2.9,2.7-8.8-0.1-11.9
	l-2.1-2.4L123.8,132.7z"/>
<path class="st0" d="M519.7,156.7c1.1,2.7,2.3,4.8,2.5,4.6c0.4-0.5-3.5-9.6-4.2-9.6C517.8,151.7,518.5,153.9,519.7,156.7z"/>
<path class="st0" d="M522.5,164.3c0,1.1,0.3,1.4,0.6,0.6c0.3-0.7,0.2-1.6-0.1-1.9C522.7,162.6,522.4,163.2,522.5,164.3z"/>
<path class="st0" d="M523.7,172.7c0,3.6,0.2,5,0.4,3.2c0.2-1.7,0.2-4.7,0-6.5C523.9,167.7,523.7,169.1,523.7,172.7z"/>
<path class="st0" d="M522.5,181.3c0,1.1,0.3,1.4,0.6,0.6c0.3-0.7,0.2-1.6-0.1-1.9C522.7,179.6,522.4,180.2,522.5,181.3z"/>
<path class="st0" d="M521.5,185.3c0,1.1,0.3,1.4,0.6,0.6c0.3-0.7,0.2-1.6-0.1-1.9C521.7,183.6,521.4,184.2,521.5,185.3z"/>
<path class="st0" d="M716.1,151.4c-3.4,0.3-7.1,1.2-9,2.3c-2.1,1.3-5.3,2-9.2,2.2c-4.1,0.1-4.9,0.3-2.5,0.6c1.9,0.2,8.7-0.1,15-0.8
	c18-1.8,20.6-1.8,28.3-0.4c4,0.8,8.6,1.4,10.2,1.3c1.7,0-1.3-0.9-6.5-1.9s-10.8-2.3-12.3-2.9c-1.6-0.6-4-1-5.5-0.9
	C723.1,151,719.3,151.2,716.1,151.4z"/>
<path class="st0" d="M899.4,167.9c-5.3,3.6-8.2,10.1-7.8,17.1c0.3,3.1,0.9,6.2,1.5,6.8c0.7,0.7,0.9-0.5,0.5-4.1
	c-0.6-6.3,1.8-12.8,6.6-18.2C904.2,165.1,904,164.8,899.4,167.9z"/>
<path class="st0" d="M900.1,181.6c-2.1,3.5-2.2,8-0.3,10.6c1.2,1.7,1.4,1.1,1.8-5.6c0.3-4.1,0.4-7.5,0.3-7.6
	C901.9,178.9,901,180.1,900.1,181.6z"/>
<path class="st0" d="M504.5,171.9c-1,2.4-2.1,6.3-2.4,8.8c-0.5,4.3-0.5,4.4,0.5,1c0.5-1.9,1.8-5.9,2.8-8.8
	C507.5,166.6,507,166,504.5,171.9z"/>
<path class="st0" d="M505.5,180.3c0,1.1,0.3,1.4,0.6,0.6c0.3-0.7,0.2-1.6-0.1-1.9C505.7,178.6,505.4,179.2,505.5,180.3z"/>
<path class="st0" d="M487,187.1c1,0.8,2.1,1.2,2.4,1c0.5-0.6-2.1-2.4-3.4-2.4C485.4,185.7,485.9,186.3,487,187.1z"/>
<path class="st0" d="M189.9,189.5c7.6,3.7,17.7,12.9,22.7,20.7c4.3,6.9,5,5.9,1.2-1.7c-4.9-9.7-16.9-19.4-26.4-21.2
	C184.6,186.7,185.1,187.1,189.9,189.5z"/>
<path class="st0" d="M201.4,204.3c0,0.9,7.9,11.4,8.6,11.4c1,0-0.8-4.4-2.8-6.9C205.1,206,201.4,203.2,201.4,204.3z"/>
<path class="st0" d="M265.4,206.2c-7.9,2.3-13.7,5.4-18.9,10.4c-4.3,4-4.3,4.1-0.8,1.7c13.4-9.6,32.5-13.5,48.7-10.1
	c1.4,0.3,0.7-0.2-1.5-1.1C287.2,204.8,272.3,204.3,265.4,206.2z"/>
<path class="st0" d="M274.3,212.7c-5.3,0.9-12.6,3.9-17,7.1c-4,2.8-3.1,3.5,1.2,1c5-2.8,15.4-5.8,23.9-6.7c7.2-0.7,7.3-0.8,3.5-1.5
	C281.2,211.7,280.4,211.7,274.3,212.7z"/>
<path class="st0" d="M359.9,226.3c-5.5,1.9-10.9,6.6-14.1,12c-3.1,5.2-2.6,7.1,0.4,2.2c4.2-6.7,12.8-12.2,22.6-14.3l6.1-1.3h-5.5
	C366.4,224.9,362.1,225.5,359.9,226.3z"/>
<path class="st0" d="M528.2,235.9c-6.2,5.8-9.8,15.8-8,22.3c0.8,2.7,0.9,2.5,1.6-2.9c0.8-7.5,3.4-13.2,8.1-18.5
	C534.3,231.9,533.3,231.3,528.2,235.9z"/>
<path class="st0" d="M635.4,242.4c5.8,1.4,7.1,2.2,12.7,7.9c4.8,4.9,6,5.7,5.2,3.6c-3-8-10.9-13.3-19.5-13.1l-4.9,0.1L635.4,242.4z"
	/>
<path class="st0" d="M444.1,243.7c-6,1.9-13.7,9.9-13.7,14c0.1,1,0.4,0.9,1.2-0.5c4-7.4,11.7-11.8,20.5-11.9
	c3.4-0.1,5.8-0.4,5.4-0.9C456.3,243.2,447.2,242.7,444.1,243.7z"/>
<path class="st0" d="M738,205.3c-0.9,0.8-1.6,2.2-1.6,2.9c0,2,2.8,4.5,5,4.5c2,0,5-2.5,5-4.1C746.4,204.2,741.1,202.2,738,205.3z"/>
<path class="st0" d="M678,206c-2.6,1.9-1.3,5.7,1.9,5.7c2.8,0,4.3-3.4,2.5-5.5C680.9,204.4,680.3,204.3,678,206z"/>
<path class="st0" d="M331.2,35.1c-8.9,3.2-15.7,11.8-15.8,19.6c0,4.9,3.7,11.8,8.3,15.4c3.2,2.6,4.9,3.1,10.5,3.4
	c6.2,0.4,7,0.2,11.7-3c6.8-4.5,9.8-10.3,9.3-18.1C354.3,39.9,342.1,31,331.2,35.1z M344.9,43c5.4,5.4,6.6,10,3.9,15.9
	c-5.3,11.9-21,12.9-27.3,1.8c-5.8-10.4,1.4-21.9,13.8-22C340.3,38.7,341,39,344.9,43z"/>
<path class="st0" d="M342.9,47.7c2.3,4.4,1.9,9.3-1.1,13.2l-2.6,3.3l3.1-3.3c2.3-2.4,3.1-4.2,3.1-6.8c0-3.2-2.3-9.4-3.6-9.4
	C341.6,44.7,342,46,342.9,47.7z"/>
<path class="st0" d="M99.6,76.2c-1.6,1.4-3.3,3.6-3.6,5c-1,4,1.7,8.9,5.9,10.9c7.5,3.6,14.5-1.2,14.5-9.9
	C116.4,74.2,106.2,70.6,99.6,76.2z M109.5,77.7c2.2,1.2,2.7,6.8,0.7,8.8c-1.7,1.7-6.4,1.5-8.2-0.4c-1.6-1.5-2.2-7.5-0.9-8.7
	C102.1,76.3,107.3,76.6,109.5,77.7z"/>
<path class="st0" d="M108,83.4c-0.6,1.4-0.5,1.5,0.5,0.6c0.7-0.7,1-1.5,0.7-1.8C108.9,81.9,108.3,82.4,108,83.4z"/>
</svg>
