<?xml version="1.0" encoding="UTF-8"?><svg xmlns="http://www.w3.org/2000/svg" viewBox="0 0 720 720"><defs><style>.d{fill:#fefefe;}</style></defs><g id="a"><path class="d" d="M68.89,556.63C30.26,496.63,2.17,433.69,.13,358.84-4.56,186.93,120.04,30.15,284.99,4.63c159.93-24.74,309.75,50.92,388.82,196.38,88.46,162.72,47.25,351.13-101.17,458.57-47.94,34.7-102.5,52.22-160.75,56.97-16.13,1.32-32.21,5.75-48.65,1.95-19.6-4.52-31.71-17.67-31.54-35.04,.2-19.22,11.91-33.38,33.28-34.39,33.82-1.59,67.16-4.1,99.77-14.51,138.84-44.33,217.61-196.07,175.78-339.34-40.37-138.27-169.6-233.43-309.36-222.93C188.15,83.04,73.99,182.53,70.33,349.37c-1.33,60.93,5.15,121.6,3.85,182.48-.17,7.88-.02,15.76-.02,23.64l-5.27,1.13Z"/></g><g id="b"><path class="d" d="M103.71,345.15c.42-132.46,105.77-241.22,234.35-243.75,165.32-3.26,290.96,127.86,279.54,297.08-6.55,97.02-61.31,161.88-147.64,199-29.22,12.56-60.13,18.39-91.51,21.33-28.84,2.71-50.34-17.04-47.04-42.37,2.66-20.42,18.47-32.39,44.54-30.99,39.56,2.14,73.82-11.63,104.18-35.85,75.41-60.16,90.74-156.09,39.42-241.16-63.75-105.66-208.49-128-293.86-45.18-37.5,36.39-53.23,82.48-52.15,134.32,1.94,92.54,2.54,185.08,1.55,277.63-.07,6.56,3.32,15.67-2.54,19.16-6.39,3.8-11.45-4.68-16.4-8.52-50.06-38.93-50.73-38.99-52.19-116.41-1.16-61.41-.23-122.86-.23-184.3Z"/></g><g id="c"><path class="d" d="M208.68,526.17c-.44-52.78-1.44-105.48-3.52-158.25-3.68-93.33,56.55-160.71,143.94-163.31,90.03-2.67,164.57,67.67,166.9,157.51,2,76.93-56.83,145.43-131.31,152.91-33.14,3.33-53.3-11.82-53.69-39.4-.23-16.22,7.51-25.75,21.48-30.54,6.79-2.33,14.07-3.94,21.2-4.28,32.03-1.54,53.5-18.33,64.55-48.4,11.65-31.69,6.93-61.82-15.77-86.62-24.68-26.97-55.53-37.31-90.68-25.57-34.01,11.37-54.39,39.96-54.33,79.62,.14,103.68,1.93,207.36,2.85,311.04,.33,37.12,.05,37.12-33.48,24.58-36.96-13.83-37.4-13.82-38-53.79-.58-38.49-.12-76.99-.12-115.49Z"/></g></svg>