<?xml version="1.0" standalone="no"?>
<!DOCTYPE svg PUBLIC "-//W3C//DTD SVG 20010904//EN"
 "http://www.w3.org/TR/2001/REC-SVG-20010904/DTD/svg10.dtd">
<svg version="1.0" xmlns="http://www.w3.org/2000/svg"
 width="1000.000000pt" height="940.000000pt" viewBox="0 0 1000.000000 940.000000"
 preserveAspectRatio="xMidYMid meet">

<g transform="translate(0.000000,940.000000) scale(0.100000,-0.100000)"
fill="#000000" stroke="none">
<path d="M4821 7001 c-12 -8 -11 -13 9 -29 22 -18 23 -22 11 -51 -8 -17 -19
-31 -25 -31 -6 0 -27 25 -46 55 -32 51 -38 55 -73 55 l-39 0 46 -63 c38 -54
45 -72 48 -118 3 -53 4 -54 36 -57 l33 -3 -2 55 c-2 48 1 60 23 84 40 42 51
69 38 92 -11 21 -36 26 -59 11z"/>
<path d="M5122 6890 c-1 -66 1 -121 5 -121 54 -8 58 -5 61 44 4 54 19 69 95
88 51 12 72 36 62 69 -7 24 -23 27 -135 34 l-85 5 -3 -119z m142 78 c14 -23 2
-42 -41 -69 l-33 -21 0 57 0 56 31 -3 c18 -2 37 -11 43 -20z"/>
<path d="M4535 6991 c-38 -7 -39 -7 -10 -12 42 -6 46 -40 7 -68 -46 -33 -54
-28 -50 29 l3 50 -37 0 -38 0 6 -77 c11 -160 11 -163 46 -163 l31 0 -5 49 c-6
59 2 76 30 67 14 -5 26 -24 37 -56 18 -53 41 -68 75 -50 20 11 20 13 6 29 -9
10 -16 22 -16 28 0 20 -42 63 -61 63 -29 0 -23 17 9 25 36 9 72 33 72 48 -1
35 -38 49 -105 38z"/>
<path d="M5376 6939 c-3 -34 -6 -88 -6 -119 l0 -57 53 -7 c28 -3 73 -6 98 -6
40 0 48 3 53 23 11 43 6 47 -31 21 -77 -52 -113 -45 -113 20 0 56 25 79 71 66
31 -9 59 -4 59 10 0 12 -65 22 -95 14 -26 -6 -26 -5 -23 37 3 42 4 44 33 41
17 -2 45 -12 63 -23 41 -24 42 -24 42 0 0 27 -3 28 -106 35 l-91 7 -7 -62z"/>
<path d="M4192 6973 c-52 -4 -53 -5 -48 -31 3 -15 8 -70 12 -122 l6 -96 69 7
c89 10 101 14 129 44 30 32 33 109 6 150 -18 28 -73 56 -103 53 -10 -1 -42 -3
-71 -5z m101 -40 c36 -72 26 -166 -19 -183 -49 -19 -49 -18 -59 118 l-7 92 36
0 c29 0 38 -5 49 -27z"/>
<path d="M5700 6977 c0 -2 -20 -53 -45 -113 -48 -116 -50 -124 -35 -124 6 0
10 8 10 19 0 28 20 38 70 36 41 -3 45 -5 53 -34 6 -26 12 -31 38 -31 26 0 31
3 26 20 -3 11 -16 64 -28 118 -13 53 -28 100 -34 104 -10 8 -55 11 -55 5z m26
-102 c8 -31 13 -59 10 -62 -2 -3 -22 -2 -44 2 l-40 6 20 52 c32 85 33 85 54 2z"/>
<path d="M4095 6923 c3 -21 8 -48 11 -60 7 -37 -18 -27 -80 32 -47 45 -62 54
-82 49 -13 -3 -24 -7 -24 -8 3 -42 30 -229 34 -234 8 -8 7 22 -4 98 -5 35 -7
66 -5 68 6 6 132 -97 149 -123 26 -40 39 -31 32 23 -3 26 -8 80 -12 120 -3 39
-10 72 -15 72 -6 0 -7 -16 -4 -37z"/>
<path d="M5925 6946 c-121 -52 -75 -237 58 -240 31 -1 51 5 66 18 24 22 28 68
6 86 -12 10 -13 6 -8 -23 4 -27 1 -39 -16 -56 -28 -28 -56 -27 -87 4 -24 24
-25 30 -19 88 8 78 22 115 47 122 20 7 49 -10 45 -27 -1 -5 5 -15 14 -21 13
-8 23 -7 43 6 14 10 26 21 26 25 0 6 -115 33 -137 32 -5 -1 -22 -7 -38 -14z"/>
<path d="M3874 6908 c3 -18 8 -63 12 -101 6 -57 4 -70 -11 -87 -10 -11 -28
-20 -40 -20 -40 0 -58 34 -69 131 l-10 91 -30 -6 c-16 -4 -31 -8 -33 -9 -2 -3
8 -76 22 -164 8 -44 51 -67 110 -58 71 10 79 27 70 150 -4 60 -11 105 -17 105
-6 0 -8 -13 -4 -32z"/>
<path d="M6115 6849 c-5 -46 -9 -100 -9 -119 -1 -38 -11 -34 140 -54 l51 -6
10 35 c13 41 11 42 -25 15 -31 -23 -91 -35 -109 -23 -8 6 -10 24 -5 58 l7 50
55 1 c70 0 78 2 60 14 -8 5 -36 10 -62 10 -52 0 -59 11 -38 64 8 23 12 24 42
15 18 -5 45 -18 61 -29 l27 -21 0 24 c0 28 -16 33 -130 43 l-67 7 -8 -84z"/>
<path d="M3526 6881 c-3 -5 -13 -60 -22 -122 -8 -62 -18 -117 -21 -122 -3 -5
0 -8 8 -5 8 2 15 18 17 35 3 28 6 31 50 36 46 6 64 -3 75 -36 1 -5 16 -7 35
-2 l32 7 -58 109 c-51 97 -60 109 -84 109 -15 0 -29 -4 -32 -9z m42 -86 c32
-65 29 -75 -17 -75 l-40 0 5 38 c13 98 20 103 52 37z"/>
<path d="M6601 6825 c-59 -50 -65 -138 -12 -189 52 -50 140 -44 180 13 61 88
8 201 -94 201 -32 0 -51 -7 -74 -25z m123 -7 c13 -20 13 -32 0 -93 -19 -97
-29 -115 -58 -115 -24 0 -56 23 -56 40 0 22 31 153 40 171 15 26 56 24 74 -3z"/>
<path d="M3237 6833 c-11 -3 -16 -11 -13 -21 3 -9 12 -55 21 -102 25 -131 15
-120 93 -103 36 7 77 20 89 29 28 18 30 53 3 87 -11 14 -20 30 -20 36 0 6 -6
11 -14 11 -24 0 -29 -39 -11 -81 21 -45 9 -69 -31 -69 -26 0 -35 22 -55 148
-12 74 -15 77 -62 65z"/>
<path d="M6845 6788 c-48 -201 -48 -217 1 -218 18 0 22 8 28 50 8 56 32 78 65
60 24 -12 71 -13 71 -1 0 12 -36 21 -83 21 -32 0 -37 3 -33 18 3 9 8 29 12 45
3 15 8 27 10 27 16 0 83 -35 101 -52 l23 -21 0 26 c0 22 -6 28 -38 37 -33 8
-138 30 -148 30 -2 0 -6 -10 -9 -22z"/>
<path d="M2968 6775 c-3 -3 2 -30 10 -60 8 -30 13 -58 10 -61 -5 -4 -81 42
-133 80 -6 5 -23 6 -37 3 l-24 -6 29 -116 c17 -63 32 -113 35 -111 2 3 -3 37
-13 76 -10 39 -15 73 -12 76 7 8 119 -61 146 -90 26 -28 57 -35 48 -12 -3 7
-15 60 -27 117 -23 110 -24 112 -32 104z"/>
<path d="M2648 6693 c-23 -6 -27 -26 -30 -154 -2 -73 0 -105 8 -102 6 2 8 17
6 33 -4 25 0 30 24 35 16 3 38 11 48 17 15 8 22 7 33 -8 7 -10 13 -22 13 -27
0 -9 58 -2 67 7 8 7 -130 206 -141 205 -6 -1 -19 -3 -28 -6z m31 -89 c35 -51
39 -74 14 -74 -10 0 -28 -3 -40 -6 -20 -6 -23 -3 -23 22 0 32 11 104 16 104 1
0 16 -20 33 -46z"/>
<path d="M7277 6593 c-21 -60 -37 -111 -37 -115 0 -16 20 -7 20 9 0 26 43 153
52 153 4 0 9 -41 10 -92 2 -55 7 -93 14 -95 6 -2 34 33 63 78 28 45 54 80 56
77 3 -2 -2 -39 -10 -82 -20 -102 -20 -102 14 -114 l28 -10 20 119 19 118 -28
10 c-27 10 -30 7 -70 -52 l-43 -62 -3 73 c-3 67 -5 74 -28 82 -14 6 -29 10
-33 10 -4 0 -24 -48 -44 -107z"/>
<path d="M2450 6636 l-35 -13 42 -6 c23 -4 49 -10 58 -14 16 -6 16 -4 0 20
-20 30 -18 30 -65 13z"/>
<path d="M2350 6606 c-19 -7 -34 -20 -33 -27 3 -33 61 -203 70 -206 11 -4 175
45 184 55 4 4 5 22 2 39 l-5 33 -29 -40 c-31 -43 -68 -66 -91 -57 -8 3 -20 24
-27 47 -15 51 -6 66 50 75 22 4 43 15 49 24 8 16 5 17 -36 6 -24 -6 -49 -16
-56 -23 -19 -19 -26 -15 -39 25 -10 32 -10 38 7 50 23 17 2 16 -46 -1z"/>
<path d="M7607 6588 c-19 -14 -25 -23 -17 -28 8 -5 5 -30 -14 -90 -14 -46 -24
-85 -22 -87 2 -2 16 -5 31 -6 27 -2 29 1 61 103 31 97 32 106 17 118 -22 16
-23 15 -56 -10z"/>
<path d="M7679 6469 c-19 -61 -32 -112 -28 -115 4 -2 12 17 18 43 7 25 19 62
27 82 l16 36 31 -60 c17 -33 36 -80 42 -104 7 -25 17 -47 22 -48 11 -4 89 214
81 223 -3 2 -12 -21 -22 -51 -9 -30 -21 -57 -26 -60 -8 -5 -55 87 -66 131 -5
18 -29 33 -54 34 -3 0 -22 -50 -41 -111z"/>
<path d="M2113 6528 l-21 -10 36 -107 c20 -58 38 -108 39 -110 2 -3 29 4 61
13 109 35 139 77 87 126 -14 13 -25 29 -25 37 0 18 -15 16 -31 -3 -11 -14 -10
-22 9 -55 27 -47 28 -65 3 -79 -42 -22 -49 -13 -83 95 -18 57 -37 104 -43 104
-5 0 -20 -5 -32 -11z"/>
<path d="M2020 6497 c-46 -14 -46 -14 -25 -37 20 -22 47 -14 65 20 13 25 3 29
-40 17z"/>
<path d="M7925 6498 c-48 -136 -70 -210 -64 -214 21 -13 125 -44 146 -44 85 0
141 105 97 180 -16 27 -62 60 -83 60 -5 0 1 -11 14 -25 29 -28 31 -47 10 -106
-27 -75 -72 -106 -115 -79 -13 8 -11 20 14 92 15 46 34 93 42 105 12 20 11 22
-18 32 -38 14 -38 14 -43 -1z"/>
<path d="M1928 6463 c-60 -37 -65 -145 -9 -195 36 -33 102 -38 151 -13 52 27
66 82 28 109 -29 21 -32 15 -11 -22 21 -37 12 -59 -30 -80 -44 -21 -72 0 -102
77 -31 82 -31 105 -3 125 30 21 10 20 -24 -1z"/>
<path d="M4540 6284 c-19 -8 -197 -74 -395 -148 l-360 -133 -3 -36 c-3 -33 -5
-35 -50 -42 -100 -15 -194 -89 -222 -175 -7 -22 -14 -40 -16 -40 -1 0 -25 16
-53 35 -78 51 -165 59 -241 21 -18 -9 -34 -16 -35 -16 -2 0 -5 26 -7 58 -6 81
-32 129 -90 165 l-48 30 0 122 c0 103 -3 124 -16 129 -9 3 -21 3 -27 -1 -7 -5
-111 -10 -232 -13 l-220 -5 -510 -148 c-280 -82 -514 -152 -519 -157 -5 -5 -8
-77 -7 -160 l2 -151 -40 21 c-80 40 -186 18 -248 -53 -18 -21 -36 -37 -40 -37
-4 1 -25 25 -45 54 -42 61 -139 131 -205 149 -70 18 -69 20 162 177 82 55 144
100 139 100 -22 0 -239 -118 -339 -185 -198 -131 -340 -282 -415 -440 -48
-103 -61 -156 -61 -268 -2 -223 100 -414 330 -620 410 -366 1263 -688 2283
-861 1672 -284 3657 -185 5023 250 691 220 1165 490 1394 795 293 388 180 803
-306 1128 -95 64 -350 190 -453 225 -87 30 -83 27 70 -58 113 -63 115 -64 113
-97 -2 -19 -6 -73 -9 -121 l-6 -86 -50 -31 c-116 -73 -129 -236 -25 -328 49
-43 97 -57 174 -50 59 6 64 5 79 -18 21 -32 123 -109 189 -143 l50 -26 -44 -8
c-23 -4 -51 -10 -61 -13 -14 -4 -23 5 -40 39 -60 125 -243 184 -377 121 l-53
-24 -19 44 c-14 32 -30 50 -55 62 -20 9 -36 20 -36 24 0 4 18 22 40 39 33 26
38 35 29 47 -10 11 -9 21 6 46 27 45 26 124 -3 164 -49 68 -126 81 -489 82
l-231 1 -12 35 c-24 72 -110 120 -215 119 -114 -1 -205 -77 -229 -191 -6 -28
-34 -51 -214 -176 -114 -79 -253 -179 -310 -221 -56 -42 -107 -76 -112 -76 -7
0 -10 49 -8 138 l3 137 50 6 c66 8 127 40 161 84 120 158 26 365 -160 353
l-51 -3 -5 185 -5 185 -1120 2 c-961 2 -1125 0 -1155 -13z m2080 -52 c0 -5
-104 -59 -231 -120 l-231 -112 -457 8 c-251 5 -730 7 -1066 4 -403 -2 -607 -1
-600 6 6 5 138 57 295 116 l285 105 1003 1 c551 0 1002 -4 1002 -8z m-3772
-27 c-3 -3 -113 -37 -244 -76 -131 -38 -331 -97 -444 -131 l-205 -61 -153 -1
c-83 0 -152 2 -152 5 0 3 26 13 58 22 31 9 235 68 452 131 l395 115 149 0 c82
1 147 -1 144 -4z m110 -219 l2 -206 -22 -9 c-13 -5 -26 -7 -30 -4 -5 2 -8 96
-8 208 0 184 2 205 18 214 9 6 22 9 27 7 6 -1 11 -83 13 -210z m-117 137 c0
-21 4 -114 8 -208 8 -147 7 -172 -7 -187 -30 -35 -45 -23 -37 32 4 32 3 55 -4
64 -6 7 -14 80 -18 165 -7 161 -4 170 40 171 13 0 17 -9 18 -37z m-103 -126
l3 -128 -23 3 c-22 3 -23 7 -26 117 -3 127 0 144 25 139 16 -3 18 -19 21 -131z
m-104 86 c3 -10 6 -61 8 -113 2 -90 1 -95 -19 -98 -22 -3 -26 9 -39 141 -5 54
-4 71 7 78 22 14 37 11 43 -8z m-103 -236 c-13 -13 -18 15 -25 130 -5 82 -4
92 12 95 15 3 17 -9 20 -106 1 -62 -2 -114 -7 -119z m-77 -14 c7 -212 3 -245
-24 -228 -9 5 -10 25 -6 64 6 52 -7 267 -20 338 -6 31 -3 34 37 42 3 0 9 -96
13 -216z m-100 95 c3 -50 6 -149 6 -220 0 -127 0 -129 -25 -140 -14 -6 -27 -9
-30 -6 -7 7 -35 308 -35 380 0 52 2 57 28 66 48 18 49 16 56 -80z m-107 -123
c6 -94 14 -191 17 -216 6 -46 6 -47 -25 -58 -54 -19 -54 -18 -57 92 -2 56 -7
145 -12 197 -14 142 -13 148 13 153 52 10 51 13 64 -168z m-114 103 c3 -24 11
-124 18 -222 11 -171 11 -180 -7 -193 -42 -31 -49 -16 -56 127 -3 74 -9 176
-13 227 -6 83 -5 92 12 96 36 9 40 6 46 -35z m3932 23 l90 -6 3 -540 c1 -297
0 -549 -2 -560 -5 -19 -13 -20 -278 -18 -150 0 -284 2 -298 2 l-26 1 4 93 c5
114 -9 187 -54 275 -34 67 -56 95 -109 142 -21 18 -17 11 14 -29 24 -30 53
-75 66 -100 51 -102 84 -266 70 -345 -12 -63 -25 -39 -25 47 0 154 -43 260
-150 368 -103 105 -211 149 -362 149 -168 0 -322 -81 -405 -214 -26 -41 -43
-37 -43 10 0 42 -40 151 -64 177 -24 26 -29 27 -138 27 -128 0 -146 -7 -177
-69 -40 -78 -67 -247 -74 -461 l-2 -75 -122 -2 c-91 -2 -124 1 -132 11 -8 9
-10 167 -9 541 l3 528 48 12 c26 7 53 19 60 29 11 14 63 16 527 19 598 3 1455
-3 1585 -12z m-4014 -178 c4 -87 11 -189 14 -226 l5 -68 -46 -19 c-25 -11 -48
-20 -50 -20 -2 0 -4 110 -4 244 l0 244 28 10 c15 5 31 6 36 2 4 -5 12 -79 17
-167z m1026 138 c28 -42 43 -93 43 -148 0 -24 3 -43 8 -43 4 0 31 9 60 20 60
23 107 25 164 8 87 -26 193 -161 169 -215 -14 -30 -14 -103 -1 -103 6 0 10 13
10 29 0 45 17 82 58 124 36 37 34 51 -4 22 -35 -27 -44 -19 -44 43 0 103 63
197 160 241 87 39 80 71 80 -365 0 -433 9 -392 -75 -360 -73 28 -158 16 -228
-31 -20 -14 -40 -24 -42 -21 -3 3 -1 33 3 67 8 57 7 63 -12 77 -18 12 -22 27
-25 99 -1 46 2 122 8 168 6 46 9 91 5 100 -23 60 -295 54 -364 -8 -13 -12 -18
-25 -14 -34 4 -9 8 -94 8 -188 1 -132 -2 -173 -11 -173 -10 0 -13 80 -13 366
0 340 1 365 17 362 10 -2 28 -18 40 -37z m-1214 13 l77 -7 0 -249 0 -248 -207
2 -208 3 0 75 c0 41 -2 152 -5 245 l-4 170 104 6 c58 3 119 6 136 7 17 1 65
-1 107 -4z m5040 -5 c57 -15 112 -70 126 -123 18 -73 2 -127 -57 -188 -36 -38
-122 -76 -142 -63 -11 7 -15 367 -3 378 9 10 32 9 76 -4z m2180 -120 c118 -89
267 -241 316 -322 63 -107 84 -173 89 -279 4 -80 0 -110 -18 -170 -28 -92 -49
-133 -61 -121 -32 32 -28 216 7 303 l14 35 -19 -25 c-11 -14 -25 -44 -32 -67
-13 -49 -23 -52 -82 -22 -109 56 -220 153 -288 251 -43 62 -91 174 -110 253
-13 57 -17 254 -5 273 10 17 58 -11 189 -109z m-1266 45 c50 -24 98 -78 86
-97 -3 -5 -72 -6 -163 -2 l-158 7 -47 -32 c-25 -17 -49 -29 -52 -26 -10 9 19
68 51 105 66 74 187 94 283 45z m-5079 10 c12 -4 22 -14 22 -25 0 -22 -53 -32
-160 -27 -56 2 -75 6 -75 17 0 30 143 53 213 35z m32 -140 c0 -48 -3 -65 -12
-62 -15 5 -22 69 -14 105 12 45 26 22 26 -43z m-1858 30 c73 -37 158 -126 198
-207 65 -134 49 -293 -44 -426 -22 -32 -61 -75 -85 -95 l-44 -37 -26 24 c-31
29 -64 47 -86 47 -10 0 -3 -11 20 -32 49 -42 70 -88 89 -188 9 -46 18 -85 20
-88 18 -17 18 146 0 192 -10 25 59 49 142 50 60 0 80 -4 137 -32 123 -61 177
-168 169 -333 -2 -34 -4 -37 -40 -43 -35 -5 -99 -43 -89 -52 2 -2 19 1 38 6
55 17 105 3 151 -40 38 -37 39 -40 24 -62 -24 -34 -19 -43 7 -13 24 28 79 42
121 31 35 -9 84 -53 106 -95 l19 -37 -34 -35 c-34 -34 -89 -79 -98 -79 -3 0
-14 16 -25 35 -24 40 -60 52 -101 36 -24 -11 -37 -8 -102 22 -53 24 -78 41
-87 61 -14 31 -47 46 -87 39 -26 -5 -28 -4 -21 18 36 121 -3 214 -109 255 -65
24 -122 13 -178 -36 -24 -22 -47 -36 -51 -33 -3 3 -6 19 -6 35 0 36 -48 88
-80 88 -22 0 -22 0 4 35 59 77 73 172 37 243 -23 46 -46 67 -94 87 l-37 15 20
33 c25 41 25 64 -1 106 -11 18 -19 34 -17 35 69 40 118 114 118 177 -1 47 -31
109 -69 141 -17 15 -31 31 -31 36 0 15 140 142 157 142 7 0 37 -12 65 -26z
m1786 -10 c2 -17 -3 -35 -10 -41 -14 -12 -145 -32 -153 -25 -3 3 -5 27 -5 54
l0 49 83 -3 82 -3 3 -31z m262 -281 c0 -290 -6 -353 -28 -328 -14 16 -80 243
-96 330 -46 246 -47 227 17 260 18 9 43 23 57 31 51 29 50 36 50 -293z m5550
245 c40 -8 63 -19 87 -43 39 -39 44 -60 11 -48 -63 23 -147 1 -225 -58 -41
-31 -42 -31 -93 -18 -48 12 -57 11 -115 -9 -82 -28 -94 -28 -165 8 -67 34 -98
37 -160 15 -58 -20 -93 -19 -141 6 -55 28 -105 26 -167 -5 -28 -14 -58 -26
-66 -26 -18 0 -106 41 -106 49 0 4 49 38 108 78 l107 72 435 -5 c239 -3 460
-10 490 -16z m-5758 -84 c15 -8 30 -24 32 -37 3 -12 12 -65 21 -117 10 -52 34
-149 55 -215 43 -138 55 -195 42 -195 -5 0 -17 10 -25 23 -15 22 -15 22 -10 1
6 -25 -10 -39 -24 -21 -5 6 -17 33 -27 60 -25 68 -36 58 -16 -15 23 -83 34
-175 22 -182 -5 -3 -15 22 -22 57 -17 86 -76 287 -111 379 -60 154 -156 181
-250 70 -85 -100 -191 -336 -224 -495 -21 -100 -21 -100 -45 -87 -24 13 -26
55 -6 151 36 170 124 360 233 504 73 95 106 121 175 134 53 11 144 3 180 -15z
m619 7 c22 -18 23 -21 8 -36 -32 -32 -299 -32 -299 0 0 20 17 28 85 41 98 19
179 17 206 -5z m-1945 -7 c52 -25 64 -58 64 -169 0 -52 -2 -95 -5 -95 -2 0
-21 11 -41 25 -28 19 -50 25 -91 25 -57 0 -84 -9 -119 -42 l-21 -19 -7 56 c-3
31 -12 76 -18 101 -12 43 -11 46 12 65 41 34 123 69 158 69 19 0 49 -7 68 -16z
m7435 -36 c6 -29 20 -72 31 -96 22 -54 22 -52 -3 -52 -30 0 -57 17 -73 48 -14
24 -15 25 -16 6 0 -37 31 -65 80 -72 l45 -6 -45 -8 c-70 -12 -110 26 -110 106
0 32 51 126 69 126 5 0 15 -24 22 -52z m-6450 -16 c-5 -10 -17 -24 -25 -31
-20 -17 -106 -151 -141 -221 -15 -30 -43 -95 -61 -143 -33 -90 -57 -128 -77
-124 -7 1 -13 -8 -15 -20 -2 -15 -10 -23 -23 -23 -21 0 -22 4 -41 135 l-12 90
-8 -159 c-4 -87 -9 -160 -12 -163 -21 -21 -26 27 -26 252 l0 245 43 21 c55 29
378 158 395 159 9 0 10 -5 3 -18z m6112 7 c14 -6 30 -22 36 -36 15 -32 14 -33
-8 -33 -10 0 -54 -25 -97 -57 -44 -31 -116 -83 -162 -116 -45 -33 -127 -79
-182 -102 -54 -24 -129 -66 -166 -94 -71 -54 -88 -60 -98 -36 -9 26 31 55 162
118 69 33 166 86 216 119 50 33 117 73 149 89 56 29 73 49 40 49 -21 0 -128
-59 -218 -121 -72 -49 -283 -154 -292 -145 -6 6 24 24 211 130 71 40 173 105
227 145 81 59 145 101 156 101 1 0 13 -5 26 -11z m-835 -44 c62 -29 114 -32
165 -10 53 22 85 19 152 -15 71 -36 92 -37 170 -9 57 20 125 20 125 0 0 -11
-58 -48 -204 -131 -106 -61 -109 -62 -146 -50 -25 8 -59 10 -97 6 -156 -19
-156 -19 -226 5 l-68 24 -64 -23 c-76 -26 -89 -27 -146 -6 -61 21 -108 20
-150 -5 -40 -23 -56 -21 -118 17 l-32 20 136 96 c74 53 144 96 154 96 11 0 43
-11 73 -25 29 -14 60 -25 68 -25 8 0 42 13 75 29 33 16 65 30 70 30 6 1 34
-10 63 -24z m-4570 3 c8 -8 12 -53 12 -135 0 -111 -2 -123 -19 -133 -39 -20
-41 -14 -41 135 0 133 1 145 18 145 10 0 23 -5 30 -12z m255 -120 c-2 -73 -6
-132 -11 -131 -4 2 -8 61 -10 133 -2 102 0 130 10 130 11 0 13 -29 11 -132z
m-161 12 c0 -60 1 -116 2 -122 1 -7 -11 -14 -26 -16 l-28 -3 0 125 0 126 25 0
25 0 2 -110z m78 73 c0 -21 3 -75 7 -121 l6 -84 -29 4 -29 3 -3 118 -3 117 26
0 c22 0 25 -4 25 -37z m-681 -61 c15 -15 38 -54 50 -86 l22 -60 -25 -55 c-38
-87 -49 -143 -44 -239 7 -135 62 -242 125 -242 29 0 39 -18 21 -37 -25 -24
-85 -6 -129 38 -42 42 -57 83 -66 183 -5 54 -8 64 -15 47 -16 -44 -20 -156 -8
-214 6 -32 9 -61 6 -64 -3 -3 -19 6 -37 21 -20 17 -38 25 -50 21 -55 -18 -94
37 -87 122 5 58 -5 53 -23 -12 -9 -32 -13 -36 -20 -22 -12 20 -14 138 -5 188
14 72 -22 -13 -50 -118 -15 -57 -31 -103 -36 -103 -15 0 -8 67 17 161 41 156
80 244 168 383 74 115 132 143 186 88z m1781 -39 c0 -3 -11 -34 -25 -68 -84
-212 -74 -661 20 -877 6 -16 1 -18 -50 -18 -35 0 -54 4 -50 10 3 6 15 10 27
10 23 0 23 0 -6 125 -9 39 -16 88 -17 110 0 22 -4 51 -8 65 -7 22 -9 19 -16
-23 -4 -26 -5 -74 -3 -106 4 -56 3 -58 -19 -58 -18 0 -25 7 -33 36 -12 45 -28
126 -33 166 -2 17 -5 -4 -6 -45 -2 -65 -4 -71 -13 -45 -17 51 -14 429 4 510
25 113 37 148 58 183 19 32 21 32 95 32 41 0 75 -3 75 -7z m82 -10 c29 -34 46
-79 65 -173 38 -197 17 -645 -33 -707 -14 -16 -15 -14 -10 25 3 23 8 61 11 85
l5 42 -11 -35 c-11 -36 -25 -57 -33 -49 -3 3 1 23 9 44 8 22 14 54 14 70 0 27
-2 25 -14 -14 -13 -40 -28 -60 -47 -61 -4 0 4 25 17 55 49 110 55 272 19 455
-18 86 -36 120 -64 120 -24 0 -25 8 -4 38 33 48 54 27 88 -88 28 -95 34 -76
10 29 -18 83 -32 104 -67 104 -32 0 -34 15 -6 51 24 31 31 32 51 9z m-3082
-14 c52 -31 70 -58 70 -107 1 -146 -199 -160 -226 -17 -8 45 1 70 42 110 40
40 65 43 114 14z m548 -221 c2 -199 0 -238 -12 -238 -20 0 -26 32 -26 154 0
60 -2 107 -5 104 -3 -2 -9 -40 -15 -84 -19 -139 -31 -145 -46 -24 l-8 65 -7
-53 c-4 -29 -14 -63 -23 -77 -33 -51 -110 -44 -136 12 -19 41 -36 42 -45 3
-10 -45 -22 -36 -29 23 -4 28 -13 75 -19 102 -11 45 -12 31 -17 -152 -4 -139
-10 -207 -18 -215 -9 -9 -12 57 -12 305 l0 317 208 -2 207 -3 3 -237z m3223
213 c123 -47 231 -155 280 -279 33 -83 33 -252 0 -335 -74 -187 -273 -320
-452 -303 -81 7 -171 35 -177 55 -4 11 1 12 19 7 80 -25 109 -29 141 -19 31
10 31 11 7 12 -44 2 -115 27 -138 50 -26 26 -28 46 -3 36 54 -24 124 -36 187
-33 131 7 239 78 297 196 31 63 33 73 33 172 0 87 -4 113 -22 152 -29 64 -111
143 -181 176 -49 23 -70 27 -152 27 -82 0 -103 -4 -150 -26 -79 -38 -133 -89
-171 -164 -19 -36 -37 -65 -42 -65 -17 0 30 121 53 135 5 3 10 11 10 17 0 19
-31 -15 -61 -67 -22 -38 -29 -45 -29 -27 0 24 29 87 63 137 l21 30 -23 -20
c-13 -11 -34 -39 -48 -62 -27 -47 -48 -58 -33 -17 15 39 66 109 101 138 40 34
120 75 179 92 67 20 221 12 291 -15z m3454 -66 c28 -27 34 -58 11 -49 -10 4
-20 -7 -31 -33 -17 -41 -62 -93 -80 -93 -6 0 -19 16 -30 36 -10 19 -32 47 -49
61 l-30 25 25 20 c82 65 141 76 184 33z m-1552 -44 c67 -56 78 -57 154 -22
l66 31 43 -25 c54 -31 85 -31 169 1 l68 25 70 -21 c57 -18 84 -20 139 -15 73
7 82 1 47 -31 -29 -26 -49 -75 -49 -122 l0 -39 -57 -6 c-32 -4 -80 -10 -106
-13 -33 -5 -75 -1 -128 11 -75 17 -83 17 -133 2 -67 -21 -104 -21 -169 0 -49
16 -53 16 -113 -5 -75 -26 -93 -27 -138 -5 -33 15 -38 15 -80 -1 -25 -10 -55
-15 -66 -11 -47 15 -33 99 28 157 58 55 164 128 187 128 11 0 42 -18 68 -39z
m1245 -21 c-62 -76 -375 -260 -441 -260 -30 0 -39 5 -52 30 -17 33 -20 97 -5
120 7 11 10 8 10 -16 0 -41 21 -58 61 -50 25 5 30 3 25 -9 -9 -23 2 -19 108
44 55 32 104 57 110 55 6 -2 54 25 106 60 52 36 99 65 103 65 5 1 -7 -17 -25
-39z m-4931 10 l31 -11 1 -93 c0 -105 19 -191 80 -362 61 -171 86 -323 65
-401 -13 -46 -23 -21 -23 55 1 67 -4 89 -40 177 l-41 100 0 -71 c0 -52 -4 -73
-14 -77 -16 -6 -46 22 -46 44 0 12 -2 12 -10 -1 -13 -21 -21 -8 -23 38 -2 49
-14 35 -23 -26 -3 -24 -9 -41 -11 -38 -3 3 -6 69 -8 148 -3 226 -33 325 -108
361 -46 23 -89 12 -134 -36 -55 -58 -143 -264 -143 -336 0 -22 -5 -31 -16 -31
-13 0 -15 10 -12 54 3 59 -2 63 -22 16 -13 -31 -30 -40 -30 -17 0 8 7 36 15
63 12 43 12 47 0 30 -8 -11 -24 -45 -35 -75 -33 -91 -32 -88 -37 -73 -10 26
19 109 74 212 31 58 71 134 89 170 53 106 116 157 229 186 54 15 141 11 192
-6z m-652 -101 c33 -107 65 -251 65 -287 0 -41 -27 -74 -58 -70 -44 5 -92 129
-92 238 0 76 40 224 56 207 2 -2 15 -42 29 -88z m1702 61 c37 -78 44 -362 13
-479 -22 -81 -50 -128 -69 -117 -13 9 -15 76 -1 76 14 0 36 48 49 110 15 71
15 285 0 347 -7 26 -18 55 -25 64 -19 21 -17 31 3 27 10 -2 23 -14 30 -28z
m4525 10 c54 -20 158 -102 158 -123 0 -7 -13 -19 -29 -29 -43 -24 -90 -94
-108 -161 -16 -56 -18 -58 -44 -52 -19 4 -39 0 -59 -11 -29 -18 -30 -18 -45 1
-19 26 -19 40 0 55 25 21 18 66 -12 90 -24 19 -36 21 -79 16 -42 -5 -54 -2
-68 13 -16 17 -14 19 24 45 22 14 40 31 40 36 0 5 -18 15 -40 21 -48 15 -50
30 -7 62 74 57 179 71 269 37z m-7752 -15 c0 -20 48 -73 81 -90 43 -23 107
-18 158 10 23 14 45 25 47 25 2 0 4 -95 4 -210 0 -177 -3 -215 -16 -235 -9
-14 -20 -25 -24 -25 -4 0 -10 31 -12 69 -6 83 -35 148 -91 204 -60 60 -117 82
-214 82 -46 0 -83 2 -83 4 0 2 18 23 39 46 22 24 51 66 66 94 24 47 45 60 45
26z m7226 -10 c39 -42 57 -98 45 -140 l-8 -30 -18 43 c-18 45 -32 51 -68 28
-21 -14 -24 -12 -59 28 l-37 43 42 31 c23 17 48 31 56 31 7 1 29 -15 47 -34z
m-3266 -9 c20 -25 8 -61 -20 -63 -14 -1 -18 0 -7 3 9 3 17 13 16 22 0 11 -2
12 -6 5 -2 -7 -13 -13 -24 -13 -13 0 -19 7 -19 23 0 13 3 27 7 30 11 12 40 8
53 -7z m-1406 -80 l26 -16 0 -160 0 -159 -42 2 c-37 2 -44 -2 -55 -25 -12 -24
-16 -25 -43 -15 -31 12 -37 21 -20 32 6 3 10 24 10 46 0 64 -61 105 -117 80
-14 -7 -27 -10 -29 -9 -1 2 -12 36 -23 76 l-20 72 27 31 c43 52 95 70 184 66
50 -2 85 -10 102 -21z m1154 -19 c22 -17 10 -70 -19 -86 -24 -13 -29 -13 -53
2 -18 12 -26 26 -26 47 0 51 55 72 98 37z m3752 13 c8 -5 12 -11 10 -14 -13
-12 -272 -162 -372 -215 -119 -63 -257 -125 -264 -118 -2 2 29 22 69 44 39 22
154 86 254 143 100 56 202 117 225 135 46 37 55 40 78 25z m686 -18 c6 -4 14
-33 18 -65 3 -31 13 -75 22 -97 l16 -39 -45 -58 c-25 -32 -73 -85 -106 -118
l-61 -59 -54 18 c-30 11 -68 32 -83 48 -26 28 -28 35 -28 116 0 81 2 91 32
137 35 54 76 86 138 109 43 16 133 21 151 8z m-6147 -17 c49 -25 81 -119 80
-235 l0 -65 -24 74 c-31 98 -42 105 -37 27 4 -59 2 -67 -21 -90 -48 -48 -137
-20 -137 41 0 35 -18 18 -30 -28 -9 -32 -14 -38 -24 -29 -11 8 -15 3 -20 -24
-4 -20 -11 -38 -16 -41 -18 -11 -10 56 15 131 52 156 117 249 178 253 4 1 21
-6 36 -14z m2119 -30 c8 -22 15 -74 15 -115 1 -62 -4 -84 -26 -130 -41 -84
-69 -112 -111 -115 -37 -3 -101 -47 -88 -60 4 -4 -6 -4 -23 0 -38 10 -74 10
-86 -2 -5 -5 9 -7 33 -5 28 3 39 1 34 -7 -8 -12 -116 -12 -116 0 0 4 12 17 26
28 29 23 64 27 97 10 21 -10 21 -10 3 5 -36 29 -93 16 -127 -27 -15 -19 -21
-20 -57 -9 -56 17 -128 69 -165 119 -28 39 -30 49 -33 137 -1 53 1 107 4 121
l7 26 35 -23 c46 -30 82 -101 78 -153 -3 -37 -5 -40 -37 -43 l-33 -3 33 -17
c34 -18 41 -27 61 -77 9 -23 12 -26 15 -12 3 10 0 31 -5 46 -9 25 -7 32 16 54
50 48 121 60 172 30 43 -25 54 -53 36 -88 -20 -39 -14 -42 19 -9 22 22 33 25
61 21 36 -6 47 7 15 18 -38 12 -35 127 5 209 22 43 95 117 113 114 8 -2 21
-21 29 -43z m1862 -30 c54 -19 93 -19 161 1 50 15 61 15 151 -1 82 -14 108
-15 165 -5 82 15 127 11 131 -11 4 -21 -97 -27 -563 -35 -339 -6 -405 -2 -405
24 0 4 15 13 34 20 27 10 40 10 69 -3 47 -19 82 -18 137 5 56 23 67 24 120 5z
m-435 -16 c5 -15 0 -28 -17 -46 l-25 -24 11 45 c12 50 21 58 31 25z m1908 4
c29 -33 25 -45 -18 -50 -23 -2 -166 -64 -340 -146 -265 -126 -306 -148 -352
-194 -29 -28 -53 -58 -53 -67 0 -29 28 -45 67 -39 41 7 40 -11 -1 -21 -34 -8
-75 9 -86 36 -7 18 -9 19 -9 6 -2 -35 -21 -17 -21 19 0 31 8 44 53 87 44 43
83 65 242 136 104 47 253 122 330 167 77 45 147 83 156 83 9 0 23 -8 32 -17z
m-4016 -85 c4 -89 -10 -104 -26 -28 -16 76 -15 112 6 108 13 -2 17 -18 20 -80z
m3401 39 c19 -20 24 -36 24 -76 -1 -59 -9 -78 -25 -62 -15 15 -48 14 -90 -4
-71 -30 -78 -13 -12 28 25 16 45 30 45 32 0 7 -127 -33 -149 -46 -19 -13 -24
-12 -39 7 -48 60 -123 66 -635 53 -231 -5 -424 -6 -428 -2 -5 5 4 24 19 42
l27 33 54 -18 c49 -16 85 -17 391 -11 439 9 672 24 725 47 44 19 57 15 93 -23z
m-3632 -79 c-9 -69 -26 -132 -33 -124 -6 6 28 176 36 176 2 0 1 -24 -3 -52z
m4270 -2 c-7 -30 -52 -56 -95 -56 -22 0 -44 -11 -72 -37 l-41 -37 4 29 c2 25
15 37 82 76 43 25 83 54 88 63 9 16 12 17 25 3 10 -10 13 -24 9 -41z m-6651
-18 c134 -28 299 -153 345 -261 20 -45 50 -140 50 -158 0 -3 -26 -6 -57 -5
-41 0 -71 -7 -101 -23 -51 -26 -51 -35 -1 -21 86 25 188 -3 233 -64 56 -75 62
-100 41 -186 -5 -18 0 -13 17 15 51 85 139 110 200 56 l32 -29 -32 -30 c-18
-16 -32 -36 -32 -43 0 -8 8 -5 23 8 33 30 61 36 101 19 20 -8 36 -11 36 -6 0
13 -42 40 -62 40 -10 0 -25 12 -35 28 -29 47 -54 62 -109 62 -36 0 -59 -6 -76
-20 -28 -22 -38 -18 -38 17 0 36 -34 96 -76 133 -30 26 -35 36 -27 49 20 32
129 113 198 146 270 130 548 87 761 -117 45 -43 94 -97 109 -119 l28 -40 -21
-67 c-12 -37 -22 -78 -22 -92 0 -14 -9 -38 -20 -55 -28 -43 -25 -52 6 -16 52
63 142 57 184 -11 28 -47 26 -64 -10 -72 -17 -3 -43 -19 -59 -36 -27 -30 -28
-30 -45 -11 -52 58 -158 45 -193 -23 l-16 -31 37 33 c29 25 46 32 79 32 43 0
86 -21 112 -56 14 -19 14 -19 15 2 0 36 46 69 95 69 36 0 50 -6 79 -34 20 -19
36 -29 36 -22 0 18 -65 81 -84 81 -9 0 -16 8 -16 20 0 38 -29 90 -62 110 -26
17 -43 20 -80 15 -27 -3 -48 -3 -48 0 0 3 16 38 36 78 51 101 157 206 239 236
88 33 189 26 282 -19 85 -42 191 -145 261 -254 60 -94 60 -121 0 -177 -21 -20
-38 -41 -38 -48 0 -7 13 1 30 17 35 35 68 43 107 27 36 -16 60 -43 65 -75 3
-24 4 -23 21 11 10 20 33 45 52 55 29 15 41 17 76 7 36 -9 39 -9 26 4 -8 8
-32 17 -53 20 -31 4 -47 -1 -78 -22 l-39 -26 -26 25 c-14 13 -39 28 -54 32
-25 6 -28 10 -22 32 11 43 72 127 118 159 137 99 312 80 430 -46 50 -53 91
-129 85 -158 -2 -8 -18 -21 -37 -27 -19 -6 -41 -21 -49 -34 l-15 -23 37 22
c45 26 88 20 128 -18 16 -16 28 -21 28 -14 0 8 -16 28 -35 46 l-35 33 34 30
c60 53 129 50 190 -6 50 -47 65 -79 55 -118 -8 -29 3 -114 15 -114 1 0 2 26 2
58 -1 50 4 65 27 95 15 21 41 44 58 52 27 14 29 14 29 -1 0 -15 4 -14 25 6 69
64 163 -5 166 -122 l1 -43 10 32 c6 17 7 48 4 68 -8 43 -56 100 -92 109 -29 8
-176 -38 -195 -60 -27 -32 -47 -2 -70 106 -26 124 47 257 171 313 71 32 180
29 246 -5 55 -29 122 -98 148 -152 20 -42 21 -86 2 -86 -17 0 -66 -38 -66 -52
0 -6 8 -4 18 5 39 35 94 21 122 -31 18 -36 19 -36 20 -10 0 14 -12 40 -26 57
-31 38 -26 57 21 76 44 19 59 19 102 -2 74 -35 97 -137 48 -209 -14 -20 -25
-44 -25 -53 0 -9 9 -2 20 17 39 64 129 78 187 28 25 -22 26 -26 15 -51 -15
-33 -9 -46 7 -16 6 11 32 33 58 48 51 30 45 42 -10 20 -33 -14 -35 -14 -65 15
-21 22 -42 32 -76 35 l-46 6 0 41 c0 138 153 256 292 227 110 -24 202 -88 255
-179 42 -71 44 -101 11 -144 -16 -20 -38 -57 -49 -82 -19 -45 -21 -46 -64 -46
-34 0 -53 -7 -89 -35 -40 -30 -58 -36 -129 -45 l-82 -9 -30 33 c-82 92 -187
85 -254 -17 -19 -29 -27 -34 -42 -27 -10 6 -29 10 -42 10 -23 0 -25 3 -20 40
5 34 2 43 -25 70 -56 55 -148 37 -178 -36 -8 -18 -14 -50 -14 -70 0 -27 -4
-35 -14 -31 -7 3 -25 -1 -39 -8 -23 -12 -28 -11 -44 7 -51 56 -107 57 -150 2
l-25 -34 -164 0 c-161 0 -163 0 -188 25 -30 30 -75 33 -112 8 -25 -16 -27 -16
-36 1 -7 12 -17 16 -34 12 -13 -4 -24 -2 -24 3 0 17 -41 33 -67 26 -15 -3 -30
-18 -39 -40 l-14 -35 -88 0 -89 0 -24 37 c-34 52 -70 75 -126 80 -59 6 -120
-21 -155 -67 -20 -28 -26 -30 -87 -30 -36 0 -90 3 -119 7 l-53 6 23 24 c13 14
49 42 82 64 32 21 53 39 47 39 -30 0 -86 -34 -136 -81 -35 -33 -60 -49 -70
-45 -14 5 -14 9 -1 34 41 80 157 177 263 222 43 18 45 20 13 14 -59 -9 -162
-65 -211 -114 -25 -25 -57 -70 -70 -98 -21 -46 -27 -52 -55 -52 -89 0 -738 75
-759 88 -5 4 -21 5 -35 4 -17 -2 -41 9 -71 32 -51 40 -117 66 -163 65 -26 -1
-21 -4 29 -20 33 -10 71 -28 85 -39 23 -18 24 -20 5 -20 -20 0 -288 45 -332
56 -36 10 -27 23 35 52 46 21 72 26 137 27 69 0 89 -4 146 -31 37 -18 86 -49
109 -70 25 -22 39 -30 32 -19 -27 51 -105 106 -182 129 -96 29 -191 15 -273
-41 l-52 -35 -66 12 -66 11 -6 58 c-11 121 -82 196 -187 196 -46 0 -63 -5 -93
-28 -19 -15 -41 -43 -48 -62 -15 -40 -24 -43 -39 -15 -13 24 -61 50 -93 50
-13 0 -41 -11 -61 -25 -25 -17 -38 -21 -41 -12 -2 6 -8 28 -14 47 -14 43 -124
160 -151 160 -14 0 -23 11 -31 40 -23 77 -120 144 -181 124 -44 -14 -10 22 51
54 125 64 254 27 332 -96 16 -25 29 -39 29 -30 0 28 -63 111 -108 142 -35 25
-55 31 -113 34 -88 5 -141 -13 -194 -68 -22 -22 -42 -40 -46 -40 -4 0 -10 11
-13 25 -3 13 -22 37 -40 52 l-34 27 28 40 c37 55 124 136 180 169 120 70 244
87 395 55z m6486 3 c-28 -21 -244 -131 -410 -208 -107 -49 -140 -58 -114 -32
15 15 527 259 543 259 3 0 -6 -9 -19 -19z m-848 3 c46 -8 47 -21 5 -38 -37
-15 -798 -33 -880 -21 -46 7 -88 28 -77 39 12 12 887 30 952 20z m105 -46 c18
-18 14 -59 -8 -95 l-20 -33 -117 1 c-65 1 -145 4 -178 8 -57 6 -54 7 50 12
125 7 150 17 210 78 43 45 46 46 63 29z m-3654 -14 c3 -9 6 -31 6 -49 0 -55
27 -181 54 -246 24 -59 24 -61 4 -42 -11 12 -29 45 -39 74 -17 51 -23 52 -31
4 -3 -19 -5 -18 -27 6 -19 23 -29 26 -60 22 -31 -4 -42 -1 -60 18 -11 12 -21
29 -21 36 0 8 -4 11 -10 8 -5 -3 -10 -17 -10 -31 0 -41 -17 -26 -27 24 l-10
47 -7 -67 c-6 -48 -13 -68 -22 -68 -11 0 -14 25 -14 124 0 68 3 131 6 140 5
13 27 16 134 16 107 0 129 -3 134 -16z m2041 -6 c3 -13 4 -142 3 -287 -3 -303
-16 -352 -37 -139 -20 207 -24 220 -36 105 -10 -98 -25 -128 -36 -72 l-6 30
-8 -28 c-14 -50 -76 -64 -113 -24 -11 12 -24 42 -28 67 -13 86 -49 124 -93
101 -34 -19 -58 -13 -69 17 -17 43 -32 104 -33 137 -1 27 -2 26 -10 -10 -4
-22 -8 -59 -8 -82 l-1 -42 -53 6 c-35 4 -73 0 -112 -11 -50 -15 -70 -29 -156
-113 -54 -53 -104 -100 -111 -104 -23 -15 -57 -10 -108 16 -64 33 -152 42
-240 25 -61 -11 -72 -11 -93 3 -14 9 -51 17 -83 19 l-59 3 -20 60 -20 60 -3
-67 -3 -67 -47 5 c-59 6 -109 -18 -131 -63 -19 -38 -31 -41 -56 -13 -10 11
-44 30 -76 41 -32 12 -65 29 -73 38 -13 15 -5 16 109 13 121 -4 125 -3 149 21
23 23 66 138 66 176 0 36 14 29 71 -33 108 -118 220 -168 374 -168 237 -1 401
122 503 375 l12 27 315 0 315 0 5 -22z m539 -3 c3 -8 1 -15 -4 -15 -6 0 -10 7
-10 15 0 8 2 15 4 15 2 0 6 -7 10 -15z m951 -15 c4 -6 -9 -17 -29 -25 -40 -17
-291 -20 -639 -8 -154 5 -197 9 -197 19 0 11 79 14 423 17 232 1 425 3 429 5
4 1 10 -3 13 -8z m715 -48 c0 -5 -16 -23 -36 -40 -25 -23 -42 -30 -58 -26 -14
3 -28 -2 -39 -14 -25 -27 -205 -98 -217 -86 -7 7 35 31 127 73 76 34 154 71
173 81 39 21 50 24 50 12z m-1685 -60 c-17 -16 -17 -16 -11 8 3 14 6 32 7 40
0 9 5 6 11 -8 9 -19 8 -26 -7 -40z m275 48 c43 -5 26 -7 -75 -7 -80 0 -117 2
-95 7 46 10 102 10 170 0z m917 -63 c-24 -24 -48 -58 -51 -74 -7 -29 -10 -31
-96 -47 -48 -10 -114 -26 -147 -37 l-58 -19 120 4 c66 2 132 9 147 15 21 8 29
7 39 -5 6 -8 10 -16 8 -19 -8 -7 -430 -26 -440 -20 -5 4 -9 14 -9 23 -2 69
-89 68 -113 -1 -6 -16 -14 -17 -79 -10 -91 10 -167 10 -334 -1 -150 -10 -144
-13 -165 82 -8 40 -7 57 5 86 17 42 36 47 36 11 0 -18 7 -26 25 -31 31 -8 57
12 53 40 -3 21 0 21 161 19 152 -2 165 -4 178 -23 18 -26 49 -26 64 2 11 21
12 21 273 14 143 -3 270 -9 281 -11 11 -3 47 8 80 23 33 16 62 28 64 26 2 -2
-17 -23 -42 -47z m686 29 c-21 -36 -138 -122 -229 -167 -83 -42 -113 -52 -170
-57 -63 -5 -68 -4 -55 11 7 10 50 35 94 57 45 23 87 46 95 53 17 14 241 114
260 116 8 1 10 -4 5 -13z m-3353 -16 c0 -10 -52 -40 -71 -40 -16 0 10 30 36
40 27 12 35 12 35 0z m3863 -17 c42 -10 76 -22 74 -28 -8 -23 -244 -171 -392
-245 -89 -44 -166 -80 -173 -80 -20 0 -14 23 24 86 l35 59 -29 -28 c-17 -16
-42 -56 -57 -88 -25 -56 -38 -69 -49 -51 -3 4 10 39 29 78 32 67 108 157 170
203 l30 22 -35 -17 c-93 -45 -168 -137 -201 -246 -12 -37 -26 -68 -31 -68 -18
0 0 57 46 156 67 141 159 228 270 255 59 14 209 10 289 -8z m-623 -182 c0 -17
-81 -100 -128 -130 -70 -45 -163 -74 -409 -127 -265 -57 -325 -63 -573 -59
-278 5 -405 36 -498 119 -41 37 -90 132 -75 147 4 4 28 -6 53 -23 70 -48 160
-87 241 -105 158 -35 549 -17 838 38 99 19 365 91 481 130 63 21 70 22 70 10z
m-1140 -51 c60 -8 104 -8 150 -1 103 17 164 14 191 -9 l24 -20 -23 -19 c-40
-35 -118 -43 -375 -39 -218 3 -246 5 -282 23 -22 11 -40 24 -40 30 0 18 58 38
134 44 82 8 91 7 221 -9z m1040 -152 c0 -19 -18 -43 -25 -36 -4 3 -2 16 5 27
12 24 20 27 20 9z m-80 -81 c0 -7 -50 -28 -118 -49 -143 -46 -182 -54 -182
-40 0 12 94 75 135 90 44 15 165 15 165 -1z m-322 -4 c-2 -5 -18 -34 -36 -65
-34 -58 -49 -75 -59 -65 -8 8 27 105 44 122 15 15 57 21 51 8z m-350 -85 c-34
-49 -60 -78 -71 -78 -12 0 -4 19 28 69 16 26 33 41 45 41 20 0 20 -1 -2 -32z
m-393 -25 c84 -29 186 -108 171 -132 -13 -21 -67 -12 -105 18 -69 54 -124 73
-209 73 -26 -1 -58 -5 -72 -11 -19 -7 -12 -8 31 -4 36 4 75 0 110 -10 62 -19
156 -75 143 -86 -19 -16 -202 -41 -229 -31 -44 17 -83 11 -143 -19 -76 -39
-148 -47 -182 -22 l-24 19 35 45 c121 156 307 219 474 160z m468 12 c-3 -13
-53 -20 -53 -7 0 15 13 23 35 20 11 -2 19 -7 18 -13z m12 -74 c-6 -5 -28 -12
-50 -16 -37 -6 -39 -5 -21 9 21 17 87 23 71 7z m-986 -170 c7 -5 9 -11 5 -14
-13 -7 -134 -20 -134 -13 0 3 12 12 28 20 30 17 80 20 101 7z"/>
<path d="M6250 6210 c-80 -3 -143 -7 -140 -9 3 -3 75 -7 160 -10 l155 -6 -45
-24 c-48 -25 -149 -89 -165 -104 -5 -5 64 28 155 73 91 45 167 84 169 86 5 4
-70 3 -289 -6z"/>
<path d="M4433 6131 c-105 -42 -194 -79 -198 -83 -3 -3 126 -4 287 -1 l293 6
184 63 c182 63 228 83 162 70 -18 -3 -95 -7 -170 -8 -135 -2 -136 -2 -41 -8
66 -4 89 -8 75 -14 -209 -91 -202 -89 -412 -79 -125 7 -180 13 -163 18 14 5
61 28 105 51 l80 42 265 9 265 10 -270 0 -270 1 -192 -77z"/>
<path d="M5415 6051 c-27 -6 15 -9 125 -10 91 -1 224 -3 295 -6 99 -3 122 -2
95 6 -43 13 -460 20 -515 10z"/>
<path d="M3920 5659 c0 -118 4 -219 8 -226 6 -9 76 -10 312 -2 168 5 314 11
325 13 11 2 -54 5 -145 6 -91 2 -183 4 -205 5 -22 1 -88 2 -148 3 l-107 2 2
183 3 182 325 5 c179 3 331 3 338 1 8 -2 12 -28 13 -80 1 -42 4 -114 8 -161 6
-79 7 -72 12 90 3 96 5 177 3 179 -2 2 -170 6 -374 9 l-370 5 0 -214z"/>
<path d="M5754 5846 c-10 -26 4 -48 28 -44 17 2 23 10 23 28 0 18 -6 26 -23
28 -13 2 -25 -3 -28 -12z"/>
<path d="M6106 5768 c-12 -98 -19 -422 -11 -551 4 -71 8 -127 10 -125 5 5 18
728 13 728 -3 0 -8 -24 -12 -52z"/>
<path d="M5332 5653 l3 -128 35 -3 c38 -4 543 8 538 13 -3 3 -139 12 -213 15
-26 1 -27 3 -10 10 11 5 40 9 64 9 24 1 42 3 39 6 -5 5 -329 6 -388 2 -25 -2
-25 -1 -28 81 l-3 82 78 0 c43 0 178 3 301 7 l222 6 1 -44 c0 -24 4 -66 9 -94
6 -42 8 -33 9 58 l1 107 -330 0 -331 0 3 -127z"/>
<path d="M4404 5746 c-122 -54 -99 -222 33 -241 69 -11 136 50 136 125 0 87
-91 150 -169 116z m94 -36 c35 -22 39 -32 18 -49 -7 -6 -26 -38 -40 -72 -24
-52 -30 -59 -49 -53 -33 10 -65 43 -72 75 -9 38 19 87 58 104 42 19 46 18 85
-5z m46 -97 c-6 -31 -49 -82 -59 -71 -3 3 7 31 21 62 27 60 49 65 38 9z"/>
<path d="M4446 5646 c-26 -55 -18 -77 9 -26 27 50 29 60 16 60 -5 0 -16 -15
-25 -34z"/>
<path d="M4107 5738 c-28 -22 -32 -63 -8 -87 29 -29 65 -27 90 6 32 40 7 93
-44 93 -12 0 -29 -6 -38 -12z m58 -48 c0 -16 -6 -26 -18 -28 -19 -4 -32 20
-23 44 9 25 41 13 41 -16z"/>
<path d="M5845 5724 l-70 -11 60 -4 c52 -3 60 -7 60 -24 0 -17 -8 -20 -59 -23
-46 -2 -61 1 -72 15 -14 17 -14 16 -12 -7 3 -24 6 -25 81 -28 86 -3 91 0 85
59 l-3 34 -70 -11z"/>
<path d="M4097 5613 l-98 -4 3 -62 3 -62 114 -3 c75 -2 118 1 127 9 9 7 14 32
14 70 l0 59 -32 -2 c-18 -1 -77 -4 -131 -5z m95 -58 c3 -43 2 -45 -24 -45 -25
0 -26 3 -26 45 1 40 4 45 24 45 19 0 22 -6 26 -45z m46 -6 c-2 -19 -7 -33 -13
-32 -12 3 -19 49 -10 71 10 26 27 -2 23 -39z"/>
<path d="M6031 5288 c-1 -81 3 -139 9 -143 12 -8 12 231 0 260 -5 13 -9 -31
-9 -117z"/>
<path d="M3892 5150 c0 -113 4 -218 8 -235 4 -17 8 66 8 185 0 118 -3 224 -8
235 -5 12 -8 -62 -8 -185z"/>
<path d="M5967 5324 c-10 -10 -9 -106 2 -123 6 -10 11 -2 15 25 6 43 -5 110
-17 98z"/>
<path d="M1585 5882 c-7 -7 -6 -77 1 -96 5 -13 26 -16 130 -16 l124 0 0 43 c0
23 -4 47 -8 53 -7 11 -236 26 -247 16z m223 -64 c3 -16 -7 -18 -98 -18 -77 0
-101 3 -98 13 6 16 58 25 133 23 48 -1 60 -4 63 -18z"/>
<path d="M1570 5596 c0 -149 2 -151 156 -147 65 1 122 5 126 7 10 6 10 119 2
192 l-7 52 -138 0 -139 0 0 -104z m110 68 c0 -4 -13 -22 -30 -41 -16 -18 -30
-45 -30 -58 0 -13 -4 -27 -10 -30 -11 -7 -14 117 -3 128 8 9 73 9 73 1z"/>
<path d="M6975 5698 c-21 -65 -48 -104 -89 -129 -29 -18 -30 -19 -7 -19 14 0
39 15 61 38 29 29 40 50 50 95 15 75 8 83 -15 15z"/>
<path d="M9011 5528 c40 -142 184 -285 314 -313 18 -4 4 7 -35 27 -89 45 -204
161 -249 251 -19 37 -35 67 -37 67 -1 0 2 -15 7 -32z"/>
<path d="M9220 5364 c0 -17 24 -46 50 -59 39 -20 38 -7 -3 33 -31 30 -47 39
-47 26z"/>
<path d="M7715 5810 c-22 -3 -49 -11 -59 -17 -15 -8 -3 -9 50 -6 51 4 80 1
109 -11 l40 -17 -20 21 c-27 26 -70 37 -120 30z"/>
<path d="M1056 5399 c10 -107 -37 -279 -93 -341 -9 -10 -14 -20 -11 -23 9 -9
80 95 100 147 27 72 33 171 14 228 l-16 45 6 -56z"/>
<path d="M1004 5254 c-4 -10 -27 -50 -51 -88 -24 -37 -42 -70 -40 -73 10 -10
88 93 98 129 11 41 5 66 -7 32z"/>
<path d="M1180 4851 c79 -26 137 -79 170 -153 11 -27 22 -48 24 -48 2 0 0 19
-6 42 -20 90 -88 156 -170 164 -33 3 -37 2 -18 -5z"/>
<path d="M1290 4695 c28 -65 45 -82 35 -35 -4 19 -18 46 -31 60 l-25 25 21
-50z"/>
<path d="M2101 5074 c0 -11 3 -14 6 -6 3 7 2 16 -1 19 -3 4 -6 -2 -5 -13z"/>
<path d="M4201 5235 c-21 -67 -47 -242 -38 -252 3 -2 8 22 11 54 4 32 17 103
30 158 13 55 22 102 20 103 -1 2 -12 -26 -23 -63z"/>
<path d="M4196 5083 c-3 -21 -5 -81 -4 -133 l1 -95 7 130 c5 72 7 131 5 133
-1 1 -5 -14 -9 -35z"/>
<path d="M4512 5060 c0 -14 2 -19 5 -12 2 6 2 18 0 25 -3 6 -5 1 -5 -13z"/>
<path d="M1394 5290 c23 -35 20 -89 -6 -117 -12 -13 -19 -23 -15 -23 3 0 15
10 27 22 27 29 27 88 -1 119 l-21 24 16 -25z"/>
<path d="M5353 5050 c11 -27 23 -48 25 -46 4 5 -35 96 -42 96 -2 0 5 -22 17
-50z"/>
<path d="M5381 4974 c0 -11 3 -14 6 -6 3 7 2 16 -1 19 -3 4 -6 -2 -5 -13z"/>
<path d="M5393 4890 c0 -36 2 -50 4 -32 2 17 2 47 0 65 -2 17 -4 3 -4 -33z"/>
<path d="M5381 4804 c0 -11 3 -14 6 -6 3 7 2 16 -1 19 -3 4 -6 -2 -5 -13z"/>
<path d="M5371 4764 c0 -11 3 -14 6 -6 3 7 2 16 -1 19 -3 4 -6 -2 -5 -13z"/>
<path d="M7317 5103 c-34 -3 -71 -12 -90 -23 -21 -13 -53 -20 -92 -22 -41 -1
-49 -3 -25 -6 19 -2 87 1 150 8 180 18 206 18 283 4 40 -8 86 -14 102 -13 17
0 -13 9 -65 19 -52 10 -108 23 -123 29 -16 6 -40 10 -55 9 -15 -1 -53 -3 -85
-5z"/>
<path d="M9150 4938 c-53 -36 -82 -101 -78 -171 3 -31 9 -62 15 -68 7 -7 9 5
5 41 -6 63 18 128 66 182 40 44 38 47 -8 16z"/>
<path d="M9157 4801 c-21 -35 -22 -80 -3 -106 12 -17 14 -11 18 56 3 41 4 75
3 76 0 1 -9 -11 -18 -26z"/>
<path d="M5201 4898 c-10 -24 -21 -63 -24 -88 -5 -43 -5 -44 5 -10 5 19 18 59
28 88 21 63 16 69 -9 10z"/>
<path d="M5211 4814 c0 -11 3 -14 6 -6 3 7 2 16 -1 19 -3 4 -6 -2 -5 -13z"/>
<path d="M5026 4746 c10 -8 21 -12 24 -10 5 6 -21 24 -34 24 -6 0 -1 -6 10
-14z"/>
<path d="M2055 4722 c76 -37 177 -129 227 -207 43 -69 50 -59 12 17 -49 97
-169 194 -264 212 -28 6 -23 2 25 -22z"/>
<path d="M2170 4574 c0 -9 79 -114 86 -114 10 0 -8 44 -28 69 -21 28 -58 56
-58 45z"/>
<path d="M2810 4555 c-79 -23 -137 -54 -189 -104 -43 -40 -43 -41 -8 -17 134
96 325 135 487 101 14 -3 7 2 -15 11 -57 23 -206 28 -275 9z"/>
<path d="M2899 4490 c-53 -9 -126 -39 -170 -71 -40 -28 -31 -35 12 -10 50 28
154 58 239 67 72 7 73 8 35 15 -47 9 -55 9 -116 -1z"/>
<path d="M3755 4354 c-55 -19 -109 -66 -141 -120 -31 -52 -26 -71 4 -22 42 67
128 122 226 143 l61 13 -55 0 c-30 0 -73 -6 -95 -14z"/>
<path d="M5438 4258 c-62 -58 -98 -158 -80 -223 8 -27 9 -25 16 29 8 75 34
132 81 185 44 49 34 55 -17 9z"/>
<path d="M6510 4193 c58 -14 71 -22 127 -79 48 -49 60 -57 52 -36 -30 80 -109
133 -195 131 l-49 -1 65 -15z"/>
<path d="M4597 4180 c-60 -19 -137 -99 -137 -140 1 -10 4 -9 12 5 40 74 117
118 205 119 34 1 58 4 54 9 -12 12 -103 17 -134 7z"/>
<path d="M7536 4564 c-9 -8 -16 -22 -16 -29 0 -20 28 -45 50 -45 20 0 50 25
50 41 0 44 -53 64 -84 33z"/>
<path d="M6936 4557 c-26 -19 -13 -57 19 -57 28 0 43 34 25 55 -15 18 -21 19
-44 2z"/>
<path d="M3468 6266 c-89 -32 -157 -118 -158 -196 0 -49 37 -118 83 -154 32
-26 49 -31 105 -34 62 -4 70 -2 117 30 68 45 98 103 93 181 -9 125 -131 214
-240 173z m137 -79 c54 -54 66 -100 39 -159 -53 -119 -210 -129 -273 -18 -58
104 14 219 138 220 50 0 57 -3 96 -43z"/>
<path d="M3585 6140 c23 -44 19 -93 -11 -132 l-26 -33 31 33 c23 24 31 42 31
68 0 32 -23 94 -36 94 -2 0 2 -13 11 -30z"/>
<path d="M1152 5855 c-16 -14 -33 -36 -36 -50 -10 -40 17 -89 59 -109 75 -36
145 12 145 99 0 80 -102 116 -168 60z m99 -15 c22 -12 27 -68 7 -88 -17 -17
-64 -15 -82 4 -16 15 -22 75 -9 87 10 11 62 8 84 -3z"/>
<path d="M1236 5783 c-6 -14 -5 -15 5 -6 7 7 10 15 7 18 -3 3 -9 -2 -12 -12z"/>
<path d="M9726 3937 l-79 -22 -23 -101 c-33 -149 -59 -237 -71 -241 -6 -2 -26
60 -48 147 -21 85 -42 150 -49 150 -18 0 -357 -78 -362 -83 -3 -3 17 -50 45
-104 27 -55 73 -155 101 -221 57 -135 62 -168 76 -499 l7 -163 132 0 132 0 7
178 c16 393 13 375 119 672 110 308 111 310 100 309 -4 0 -44 -10 -87 -22z"/>
<path d="M335 3919 c-101 -23 -156 -118 -158 -269 -1 -153 30 -237 143 -385
77 -101 90 -128 90 -189 0 -62 -24 -80 -95 -73 -31 3 -55 2 -55 -4 0 -35 34
-195 42 -201 19 -11 117 -20 151 -13 51 11 111 51 139 92 64 94 64 195 -1 345
-48 114 -52 158 -15 194 25 26 39 27 89 8 15 -6 16 1 11 62 -3 38 -8 135 -12
216 l-6 146 -56 25 c-109 48 -196 63 -267 46z"/>
<path d="M716 3694 c2 -77 7 -172 10 -211 l6 -73 66 0 c37 0 73 -4 79 -8 12
-8 16 -53 41 -482 l7 -125 125 0 125 0 7 230 c5 127 11 254 14 284 l6 53 41
-6 c23 -3 58 -8 78 -12 l36 -6 6 178 c3 99 4 180 3 182 -3 2 -564 118 -628
129 l-27 5 5 -138z"/>
<path d="M8585 3710 c-49 -11 -121 -28 -160 -38 l-70 -18 0 -70 c0 -38 4 -232
9 -431 l9 -363 148 0 149 0 0 94 c0 52 4 97 9 100 5 3 35 -46 66 -109 31 -63
63 -119 70 -125 9 -8 40 4 119 45 l106 56 -48 57 c-26 32 -62 81 -81 110 l-33
52 54 53 c97 93 140 227 119 367 -18 111 -58 173 -141 216 -54 27 -212 29
-325 4z m210 -395 c47 -46 26 -135 -40 -171 -37 -20 -70 -16 -69 9 0 9 1 55 2
102 l2 85 40 0 c30 0 47 -7 65 -25z"/>
<path d="M1404 3658 c3 -18 8 -82 11 -143 8 -147 33 -374 50 -457 29 -142 93
-226 204 -270 77 -29 261 -32 374 -4 l77 19 2 343 c1 189 2 363 3 386 l0 43
-123 19 c-68 10 -125 16 -128 14 -2 -3 0 -56 6 -119 13 -144 30 -560 24 -571
-3 -4 -22 -8 -43 -8 -49 0 -87 29 -102 78 -6 22 -13 160 -16 343 l-6 306 -156
26 c-86 15 -162 27 -169 27 -9 0 -11 -10 -8 -32z"/>
<path d="M7825 3583 c-87 -13 -231 -45 -239 -53 -8 -8 12 -740 21 -750 3 -3
80 -5 171 -5 193 0 253 13 343 74 111 77 169 202 169 366 0 137 -26 215 -94
281 -33 32 -71 57 -102 68 -49 18 -208 29 -269 19z m190 -339 c92 -43 83 -226
-15 -290 -21 -14 -50 -26 -66 -27 l-29 -2 4 160 c2 88 5 163 8 168 7 12 64 8
98 -9z"/>
<path d="M2170 3564 c0 -3 22 -42 48 -87 27 -45 76 -134 110 -197 l61 -115 15
-153 c9 -84 16 -170 16 -192 l0 -40 134 0 134 0 6 63 c3 34 8 116 12 182 7
136 4 129 123 319 45 71 81 130 81 131 0 2 -132 16 -167 17 -9 1 -14 -9 -54
-115 -19 -48 -38 -86 -44 -84 -5 2 -28 53 -51 113 l-41 109 -154 22 c-85 12
-171 24 -191 27 -21 4 -38 4 -38 0z"/>
<path d="M7181 3488 l-74 -10 7 -73 c4 -43 3 -76 -3 -79 -5 -3 -45 20 -89 53
-114 84 -100 81 -247 68 l-130 -12 2 -40 c2 -22 7 -110 13 -195 5 -85 12 -217
16 -293 l6 -138 82 3 81 3 6 113 c3 62 8 115 11 117 7 7 179 -92 291 -167 49
-33 91 -57 95 -53 3 3 9 77 14 163 7 169 25 414 34 500 7 60 16 57 -115 40z"/>
<path d="M3197 3368 c48 -113 154 -377 193 -485 18 -48 37 -94 43 -100 6 -9
38 -13 92 -13 54 0 86 4 92 13 5 6 32 72 59 145 27 72 53 131 58 129 6 -2 31
-66 57 -143 l48 -139 93 -3 94 -3 57 151 c32 82 89 218 127 302 38 83 69 153
67 154 -1 1 -40 4 -87 6 l-85 5 -44 -138 c-25 -77 -47 -139 -51 -139 -3 0 -22
63 -40 140 -24 96 -39 141 -50 144 -8 3 -81 8 -162 12 l-147 6 30 -83 c32 -88
32 -108 4 -176 -15 -35 -17 -36 -27 -18 -6 11 -30 77 -53 148 -24 70 -45 131
-49 134 -5 6 -271 31 -333 33 -22 0 -22 -2 14 -82z"/>
<path d="M6143 3401 c-56 -3 -105 -9 -109 -13 -4 -4 -2 -89 5 -189 6 -100 10
-183 8 -186 -2 -2 -35 -6 -72 -10 l-68 -6 6 114 c4 63 10 151 13 196 l7 82
-154 -5 c-85 -3 -167 -7 -184 -8 l-30 -3 4 -64 c2 -35 8 -170 15 -299 l11
-235 148 -3 c81 -1 147 -1 147 0 0 2 3 44 7 93 5 85 11 112 19 90 2 -5 13 -24
24 -42 l19 -32 42 14 c23 8 43 15 45 15 2 0 4 -24 4 -54 0 -89 -5 -86 140 -86
l129 0 5 43 c3 23 12 150 21 282 9 132 18 257 22 278 l6 37 -64 -2 c-35 -1
-110 -4 -166 -7z"/>
<path d="M5250 3379 c-167 -16 -250 -76 -250 -182 0 -63 31 -102 135 -172 105
-70 126 -104 85 -137 -20 -16 -36 -19 -83 -16 -42 3 -57 1 -53 -8 2 -6 10 -30
17 -53 11 -37 15 -41 56 -47 115 -17 243 18 287 79 34 46 27 93 -23 164 -34
47 -42 67 -37 86 7 30 60 51 100 41 l25 -6 -5 89 c-8 136 -12 152 -37 157 -46
10 -145 12 -217 5z"/>
<path d="M4466 3358 c-2 -7 -16 -62 -31 -123 -15 -60 -52 -185 -81 -276 -30
-92 -54 -171 -54 -178 0 -7 25 -11 71 -11 l70 0 15 35 c8 19 18 35 22 35 4 0
16 -16 26 -35 11 -19 24 -35 30 -35 6 0 33 11 60 25 62 31 74 31 82 0 l6 -25
144 0 c79 0 144 3 144 6 0 3 -31 103 -70 223 -38 119 -79 250 -92 291 l-23 75
-158 3 c-121 2 -158 0 -161 -10z m141 -394 c17 -32 28 -63 23 -68 -11 -11
-140 -21 -140 -11 0 22 65 145 74 142 6 -2 25 -30 43 -63z"/>
<path d="M5413 2591 c-26 -49 -29 -62 -18 -71 7 -6 16 -27 19 -48 11 -59 16
-72 31 -72 9 0 12 10 8 38 -3 20 2 68 11 105 21 88 20 107 -1 107 -12 0 -30
-22 -50 -59z"/>
<path d="M5547 2638 c-27 -21 -48 -83 -37 -112 12 -32 43 -48 75 -40 23 6 25
4 25 -28 0 -19 5 -39 12 -46 14 -14 32 -16 24 -4 -3 5 4 51 14 102 18 87 18
96 3 112 -23 25 -41 23 -36 -5 5 -25 -26 -70 -59 -88 -19 -10 -20 -9 -14 17 4
16 16 38 27 50 23 25 24 40 3 48 -20 8 -17 8 -37 -6z"/>
<path d="M5051 2614 c-55 -46 -33 -82 24 -38 20 15 38 24 42 21 6 -7 -56 -107
-89 -144 -16 -18 -18 -25 -8 -43 10 -19 17 -21 43 -14 18 4 54 8 80 8 l48 1
-26 22 c-14 13 -37 23 -51 23 -30 0 -30 4 1 44 40 53 50 92 31 121 -21 32 -56
32 -95 -1z"/>
<path d="M4533 2615 c-27 -12 -33 -20 -33 -45 0 -29 5 -34 66 -61 38 -17 64
-35 61 -42 -2 -7 -24 -13 -50 -15 -41 -3 -47 0 -61 25 -8 15 -15 23 -16 17 0
-6 -17 -14 -37 -17 -21 -3 -53 -9 -70 -12 -28 -6 -33 -5 -33 11 0 13 14 25 40
36 50 21 54 43 6 35 -25 -4 -36 -1 -40 9 -5 14 29 34 58 34 8 0 19 7 26 15 11
13 4 15 -58 15 l-70 0 -4 -102 c-2 -57 -1 -107 3 -112 7 -8 95 20 146 46 19 9
25 7 48 -21 50 -58 135 -34 135 39 0 31 -6 43 -27 58 -16 11 -38 23 -50 26
-36 11 -27 24 24 35 39 8 49 7 56 -5 4 -8 21 -14 37 -14 l30 0 0 -79 c0 -44 4
-82 9 -86 15 -9 31 29 31 73 0 22 3 54 6 71 5 25 11 31 33 31 26 0 51 16 51
31 0 13 -166 22 -188 10 -14 -7 -23 -8 -27 -1 -9 14 -64 12 -102 -5z"/>
<path d="M5199 2603 c-6 -16 -9 -57 -7 -92 4 -55 8 -67 32 -87 15 -13 38 -24
52 -24 56 0 97 83 78 159 -10 40 -33 55 -102 65 -40 6 -43 4 -53 -21z m115
-26 c9 -36 7 -75 -5 -83 -17 -10 -49 36 -49 73 0 46 42 54 54 10z m-37 -86
c20 -25 21 -31 8 -47 -18 -25 -34 -10 -42 39 -7 44 4 46 34 8z"/>
<path d="M3405 2540 c-682 -11 -1091 -23 -975 -31 151 -10 1646 -33 1664 -26
12 5 16 16 14 34 l-3 28 -125 1 c-69 0 -327 -3 -575 -6z"/>
<path d="M5852 2534 c-5 -9 -7 -25 -5 -35 5 -18 18 -19 162 -19 259 0 1305 21
1466 29 l150 8 -119 1 c-65 1 -261 6 -435 12 -174 5 -517 12 -763 15 -408 5
-448 4 -456 -11z"/>
<path d="M4835 2461 c-8 -15 14 -53 28 -48 18 6 15 51 -5 55 -9 2 -19 -2 -23
-7z"/>
</g>
</svg>
