<?xml version="1.0" encoding="utf-8"?>
<!-- Generator: Adobe Illustrator 26.0.1, SVG Export Plug-In . SVG Version: 6.00 Build 0)  -->
<svg version="1.1" id="Layer_1" xmlns="http://www.w3.org/2000/svg" xmlns:xlink="http://www.w3.org/1999/xlink" x="0px" y="0px"
	 viewBox="0 0 1000 940" style="enable-background:new 0 0 1000 940;" xml:space="preserve">
<style type="text/css">
	.st0{fill:#FFFFFF;}
</style>
<path class="st0" d="M972.6,546.3l-7.9,2.2l-2.3,10.1c-3.3,14.9-5.9,23.7-7.1,24.1c-0.6,0.2-2.6-6-4.8-14.7c-2.1-8.5-4.2-15-4.9-15
	c-1.8,0-35.7,7.8-36.2,8.3c-0.3,0.3,1.7,5,4.5,10.4c2.7,5.5,7.3,15.5,10.1,22.1c5.7,13.5,6.2,16.8,7.6,49.9l0.7,16.3h13.2h13.2
	l0.7-17.8c1.6-39.3,1.3-37.5,11.9-67.2c11-30.8,11.1-31,10-30.9C980.9,544.1,976.9,545.1,972.6,546.3z"/>
<path class="st0" d="M33.5,548.1c-10.1,2.3-15.6,11.8-15.8,26.9c-0.1,15.3,3,23.7,14.3,38.5c7.7,10.1,9,12.8,9,18.9
	c0,6.2-2.4,8-9.5,7.3c-3.1-0.3-5.5-0.2-5.5,0.4c0,3.5,3.4,19.5,4.2,20.1c1.9,1.1,11.7,2,15.1,1.3c5.1-1.1,11.1-5.1,13.9-9.2
	c6.4-9.4,6.4-19.5-0.1-34.5c-4.8-11.4-5.2-15.8-1.5-19.4c2.5-2.6,3.9-2.7,8.9-0.8c1.5,0.6,1.6-0.1,1.1-6.2
	c-0.3-3.8-0.8-13.5-1.2-21.6l-0.6-14.6l-5.6-2.5C49.3,547.9,40.6,546.4,33.5,548.1z"/>
<path class="st0" d="M71.6,570.6c0.2,7.7,0.7,17.2,1,21.1l0.6,7.3h6.6c3.7,0,7.3,0.4,7.9,0.8c1.2,0.8,1.6,5.3,4.1,48.2l0.7,12.5H105
	h12.5l0.7-23c0.5-12.7,1.1-25.4,1.4-28.4l0.6-5.3l4.1,0.6c2.3,0.3,5.8,0.8,7.8,1.2l3.6,0.6l0.6-17.8c0.3-9.9,0.4-18,0.3-18.2
	c-0.3-0.2-56.4-11.8-62.8-12.9l-2.7-0.5L71.6,570.6z"/>
<path class="st0" d="M858.5,569c-4.9,1.1-12.1,2.8-16,3.8l-7,1.8v7c0,3.8,0.4,23.2,0.9,43.1l0.9,36.3h14.8H867v-9.4
	c0-5.2,0.4-9.7,0.9-10s3.5,4.6,6.6,10.9c3.1,6.3,6.3,11.9,7,12.5c0.9,0.8,4-0.4,11.9-4.5l10.6-5.6l-4.8-5.7c-2.6-3.2-6.2-8.1-8.1-11
	l-3.3-5.2l5.4-5.3c9.7-9.3,14-22.7,11.9-36.7c-1.8-11.1-5.8-17.3-14.1-21.6C885.6,566.7,869.8,566.5,858.5,569z M879.5,608.5
	c4.7,4.6,2.6,13.5-4,17.1c-3.7,2-7,1.6-6.9-0.9c0-0.9,0.1-5.5,0.2-10.2l0.2-8.5h4C876,606,877.7,606.7,879.5,608.5z"/>
<path class="st0" d="M140.4,574.2c0.3,1.8,0.8,8.2,1.1,14.3c0.8,14.7,3.3,37.4,5,45.7c2.9,14.2,9.3,22.6,20.4,27
	c7.7,2.9,26.1,3.2,37.4,0.4l7.7-1.9l0.2-34.3c0.1-18.9,0.2-36.3,0.3-38.6v-4.3l-12.3-1.9c-6.8-1-12.5-1.6-12.8-1.4
	c-0.2,0.3,0,5.6,0.6,11.9c1.3,14.4,3,56,2.4,57.1c-0.3,0.4-2.2,0.8-4.3,0.8c-4.9,0-8.7-2.9-10.2-7.8c-0.6-2.2-1.3-16-1.6-34.3
	l-0.6-30.6l-15.6-2.6c-8.6-1.5-16.2-2.7-16.9-2.7C140.3,571,140.1,572,140.4,574.2z"/>
<path class="st0" d="M782.5,581.7c-8.7,1.3-23.1,4.5-23.9,5.3c-0.8,0.8,1.2,74,2.1,75c0.3,0.3,8,0.5,17.1,0.5
	c19.3,0,25.3-1.3,34.3-7.4c11.1-7.7,16.9-20.2,16.9-36.6c0-13.7-2.6-21.5-9.4-28.1c-3.3-3.2-7.1-5.7-10.2-6.8
	C804.5,581.8,788.6,580.7,782.5,581.7z M801.5,615.6c9.2,4.3,8.3,22.6-1.5,29c-2.1,1.4-5,2.6-6.6,2.7l-2.9,0.2l0.4-16
	c0.2-8.8,0.5-16.3,0.8-16.8C792.4,613.5,798.1,613.9,801.5,615.6z"/>
<path class="st0" d="M217,583.6c0,0.3,2.2,4.2,4.8,8.7c2.7,4.5,7.6,13.4,11,19.7l6.1,11.5l1.5,15.3c0.9,8.4,1.6,17,1.6,19.2v4h13.4
	h13.4l0.6-6.3c0.3-3.4,0.8-11.6,1.2-18.2c0.7-13.6,0.4-12.9,12.3-31.9c4.5-7.1,8.1-13,8.1-13.1c0-0.2-13.2-1.6-16.7-1.7
	c-0.9-0.1-1.4,0.9-5.4,11.5c-1.9,4.8-3.8,8.6-4.4,8.4c-0.5-0.2-2.8-5.3-5.1-11.3l-4.1-10.9l-15.4-2.2c-8.5-1.2-17.1-2.4-19.1-2.7
	C218.7,583.2,217,583.2,217,583.6z"/>
<path class="st0" d="M718.1,591.2l-7.4,1l0.7,7.3c0.4,4.3,0.3,7.6-0.3,7.9c-0.5,0.3-4.5-2-8.9-5.3c-11.4-8.4-10-8.1-24.7-6.8
	l-13,1.2l0.2,4c0.2,2.2,0.7,11,1.3,19.5c0.5,8.5,1.2,21.7,1.6,29.3l0.6,13.8l8.2-0.3l8.1-0.3l0.6-11.3c0.3-6.2,0.8-11.5,1.1-11.7
	c0.7-0.7,17.9,9.2,29.1,16.7c4.9,3.3,9.1,5.7,9.5,5.3c0.3-0.3,0.9-7.7,1.4-16.3c0.7-16.9,2.5-41.4,3.4-50
	C730.3,589.2,731.2,589.5,718.1,591.2z"/>
<path class="st0" d="M319.7,603.2c4.8,11.3,15.4,37.7,19.3,48.5c1.8,4.8,3.7,9.4,4.3,10c0.6,0.9,3.8,1.3,9.2,1.3s8.6-0.4,9.2-1.3
	c0.5-0.6,3.2-7.2,5.9-14.5c2.7-7.2,5.3-13.1,5.8-12.9c0.6,0.2,3.1,6.6,5.7,14.3l4.8,13.9l9.3,0.3l9.4,0.3l5.7-15.1
	c3.2-8.2,8.9-21.8,12.7-30.2c3.8-8.3,6.9-15.3,6.7-15.4c-0.1-0.1-4-0.4-8.7-0.6l-8.5-0.5l-4.4,13.8c-2.5,7.7-4.7,13.9-5.1,13.9
	c-0.3,0-2.2-6.3-4-14c-2.4-9.6-3.9-14.1-5-14.4c-0.8-0.3-8.1-0.8-16.2-1.2l-14.7-0.6l3,8.3c3.2,8.8,3.2,10.8,0.4,17.6
	c-1.5,3.5-1.7,3.6-2.7,1.8c-0.6-1.1-3-7.7-5.3-14.8c-2.4-7-4.5-13.1-4.9-13.4c-0.5-0.6-27.1-3.1-33.3-3.3
	C316.1,595,316.1,595.2,319.7,603.2z"/>
<path class="st0" d="M614.3,599.9c-5.6,0.3-10.5,0.9-10.9,1.3c-0.4,0.4-0.2,8.9,0.5,18.9c0.6,10,1,18.3,0.8,18.6
	c-0.2,0.2-3.5,0.6-7.2,1l-6.8,0.6l0.6-11.4c0.4-6.3,1-15.1,1.3-19.6l0.7-8.2l-15.4,0.5c-8.5,0.3-16.7,0.7-18.4,0.8l-3,0.3l0.4,6.4
	c0.2,3.5,0.8,17,1.5,29.9l1.1,23.5l14.8,0.3c8.1,0.1,14.7,0.1,14.7,0c0-0.2,0.3-4.4,0.7-9.3c0.5-8.5,1.1-11.2,1.9-9
	c0.2,0.5,1.3,2.4,2.4,4.2l1.9,3.2l4.2-1.4c2.3-0.8,4.3-1.5,4.5-1.5s0.4,2.4,0.4,5.4c0,8.9-0.5,8.6,14,8.6h12.9l0.5-4.3
	c0.3-2.3,1.2-15,2.1-28.2c0.9-13.2,1.8-25.7,2.2-27.8l0.6-3.7l-6.4,0.2C627.4,599.3,619.9,599.6,614.3,599.9z"/>
<path class="st0" d="M525,602.1c-16.7,1.6-25,7.6-25,18.2c0,6.3,3.1,10.2,13.5,17.2c10.5,7,12.6,10.4,8.5,13.7
	c-2,1.6-3.6,1.9-8.3,1.6c-4.2-0.3-5.7-0.1-5.3,0.8c0.2,0.6,1,3,1.7,5.3c1.1,3.7,1.5,4.1,5.6,4.7c11.5,1.7,24.3-1.8,28.7-7.9
	c3.4-4.6,2.7-9.3-2.3-16.4c-3.4-4.7-4.2-6.7-3.7-8.6c0.7-3,6-5.1,10-4.1l2.5,0.6l-0.5-8.9c-0.8-13.6-1.2-15.2-3.7-15.7
	C542.1,601.6,532.2,601.4,525,602.1z"/>
<path class="st0" d="M446.6,604.2c-0.2,0.7-1.6,6.2-3.1,12.3c-1.5,6-5.2,18.5-8.1,27.6c-3,9.2-5.4,17.1-5.4,17.8s2.5,1.1,7.1,1.1h7
	l1.5-3.5c0.8-1.9,1.8-3.5,2.2-3.5c0.4,0,1.6,1.6,2.6,3.5c1.1,1.9,2.4,3.5,3,3.5s3.3-1.1,6-2.5c6.2-3.1,7.4-3.1,8.2,0l0.6,2.5h14.4
	c7.9,0,14.4-0.3,14.4-0.6s-3.1-10.3-7-22.3c-3.8-11.9-7.9-25-9.2-29.1l-2.3-7.5l-15.8-0.3C450.6,603,446.9,603.2,446.6,604.2z
	 M460.7,643.6c1.7,3.2,2.8,6.3,2.3,6.8c-1.1,1.1-14,2.1-14,1.1c0-2.2,6.5-14.5,7.4-14.2C457,637.5,458.9,640.3,460.7,643.6z"/>
</svg>
