<?xml version="1.0" encoding="utf-8"?>
<!-- Generator: Adobe Illustrator 26.0.1, SVG Export Plug-In . SVG Version: 6.00 Build 0)  -->
<svg version="1.1" id="Layer_1" xmlns="http://www.w3.org/2000/svg" xmlns:xlink="http://www.w3.org/1999/xlink" x="0px" y="0px"
	 viewBox="0 0 1000 940" style="enable-background:new 0 0 1000 940;" xml:space="preserve">
<path d="M454,311.6c-1.9,0.8-19.7,7.4-39.5,14.8l-36,13.3l-0.3,3.6c-0.3,3.3-0.5,3.5-5,4.2c-10,1.5-19.4,8.9-22.2,17.5
	c-0.7,2.2-1.4,4-1.6,4c-0.1,0-2.5-1.6-5.3-3.5c-7.8-5.1-16.5-5.9-24.1-2.1c-1.8,0.9-3.4,1.6-3.5,1.6c-0.2,0-0.5-2.6-0.7-5.8
	c-0.6-8.1-3.2-12.9-9-16.5l-4.8-3v-12.2c0-10.3-0.3-12.4-1.6-12.9c-0.9-0.3-2.1-0.3-2.7,0.1c-0.7,0.5-11.1,1-23.2,1.3l-22,0.5
	l-51,14.8c-28,8.2-51.4,15.2-51.9,15.7s-0.8,7.7-0.7,16l0.2,15.1l-4-2.1c-8-4-18.6-1.8-24.8,5.3c-1.8,2.1-3.6,3.7-4,3.7
	c-0.4-0.1-2.5-2.5-4.5-5.4c-4.2-6.1-13.9-13.1-20.5-14.9c-7-1.8-6.9-2,16.2-17.7c8.2-5.5,14.4-10,13.9-10
	c-2.2,0-23.9,11.8-33.9,18.5c-19.8,13.1-34,28.2-41.5,44c-4.8,10.3-6.1,15.6-6.1,26.8c-0.2,22.3,10,41.4,33,62
	c41,36.6,126.3,68.8,228.3,86.1c167.2,28.4,365.7,18.5,502.3-25c69.1-22,116.5-49,139.4-79.5c29.3-38.8,18-80.3-30.6-112.8
	c-9.5-6.4-35-19-45.3-22.5c-8.7-3-8.3-2.7,7,5.8c11.3,6.3,11.5,6.4,11.3,9.7c-0.2,1.9-0.6,7.3-0.9,12.1l-0.6,8.6l-5,3.1
	c-11.6,7.3-12.9,23.6-2.5,32.8c4.9,4.3,9.7,5.7,17.4,5c5.9-0.6,6.4-0.5,7.9,1.8c2.1,3.2,12.3,10.9,18.9,14.3l5,2.6l-4.4,0.8
	c-2.3,0.4-5.1,1-6.1,1.3c-1.4,0.4-2.3-0.5-4-3.9c-6-12.5-24.3-18.4-37.7-12.1l-5.3,2.4l-1.9-4.4c-1.4-3.2-3-5-5.5-6.2
	c-2-0.9-3.6-2-3.6-2.4s1.8-2.2,4-3.9c3.3-2.6,3.8-3.5,2.9-4.7c-1-1.1-0.9-2.1,0.6-4.6c2.7-4.5,2.6-12.4-0.3-16.4
	c-4.9-6.8-12.6-8.1-48.9-8.2l-23.1-0.1l-1.2-3.5c-2.4-7.2-11-12-21.5-11.9c-11.4,0.1-20.5,7.7-22.9,19.1c-0.6,2.8-3.4,5.1-21.4,17.6
	c-11.4,7.9-25.3,17.9-31,22.1c-5.6,4.2-10.7,7.6-11.2,7.6c-0.7,0-1-4.9-0.8-13.8l0.3-13.7l5-0.6c6.6-0.8,12.7-4,16.1-8.4
	c12-15.8,2.6-36.5-16-35.3l-5.1,0.3L682,329l-0.5-18.5l-112-0.2C473.4,310.1,457,310.3,454,311.6z M662,316.8
	c0,0.5-10.4,5.9-23.1,12L615.8,340l-45.7-0.8c-25.1-0.5-73-0.7-106.6-0.4c-40.3,0.2-60.7,0.1-60-0.6c0.6-0.5,13.8-5.7,29.5-11.6
	l28.5-10.5l100.3-0.1C616.9,316,662,316.4,662,316.8z M284.8,319.5c-0.3,0.3-11.3,3.7-24.4,7.6c-13.1,3.8-33.1,9.7-44.4,13.1
	l-20.5,6.1l-15.3,0.1c-8.3,0-15.2-0.2-15.2-0.5s2.6-1.3,5.8-2.2c3.1-0.9,23.5-6.8,45.2-13.1l39.5-11.5h14.9
	C278.6,319,285.1,319.2,284.8,319.5z M295.8,341.4L296,362l-2.2,0.9c-1.3,0.5-2.6,0.7-3,0.4c-0.5-0.2-0.8-9.6-0.8-20.8
	c0-18.4,0.2-20.5,1.8-21.4c0.9-0.6,2.2-0.9,2.7-0.7C295.1,320.5,295.6,328.7,295.8,341.4z M284.1,327.7c0,2.1,0.4,11.4,0.8,20.8
	c0.8,14.7,0.7,17.2-0.7,18.7c-3,3.5-4.5,2.3-3.7-3.2c0.4-3.2,0.3-5.5-0.4-6.4c-0.6-0.7-1.4-8-1.8-16.5c-0.7-16.1-0.4-17,4-17.1
	C283.6,324,284,324.9,284.1,327.7z M273.8,340.3l0.3,12.8l-2.3-0.3c-2.2-0.3-2.3-0.7-2.6-11.7c-0.3-12.7,0-14.4,2.5-13.9
	C273.3,327.5,273.5,329.1,273.8,340.3z M263.4,331.7c0.3,1,0.6,6.1,0.8,11.3c0.2,9,0.1,9.5-1.9,9.8c-2.2,0.3-2.6-0.9-3.9-14.1
	c-0.5-5.4-0.4-7.1,0.7-7.8C261.3,329.5,262.8,329.8,263.4,331.7z M253.1,355.3c-1.3,1.3-1.8-1.5-2.5-13c-0.5-8.2-0.4-9.2,1.2-9.5
	c1.5-0.3,1.7,0.9,2,10.6C253.9,349.6,253.6,354.8,253.1,355.3z M245.4,356.7c0.7,21.2,0.3,24.5-2.4,22.8c-0.9-0.5-1-2.5-0.6-6.4
	c0.6-5.2-0.7-26.7-2-33.8c-0.6-3.1-0.3-3.4,3.7-4.2C244.4,335.1,245,344.7,245.4,356.7z M235.4,347.2c0.3,5,0.6,14.9,0.6,22
	c0,12.7,0,12.9-2.5,14c-1.4,0.6-2.7,0.9-3,0.6c-0.7-0.7-3.5-30.8-3.5-38c0-5.2,0.2-5.7,2.8-6.6C234.6,337.4,234.7,337.6,235.4,347.2
	z M224.7,359.5c0.6,9.4,1.4,19.1,1.7,21.6c0.6,4.6,0.6,4.7-2.5,5.8c-5.4,1.9-5.4,1.8-5.7-9.2c-0.2-5.6-0.7-14.5-1.2-19.7
	c-1.4-14.2-1.3-14.8,1.3-15.3C223.5,341.7,223.4,341.4,224.7,359.5z M213.3,349.2c0.3,2.4,1.1,12.4,1.8,22.2
	c1.1,17.1,1.1,18-0.7,19.3c-4.2,3.1-4.9,1.6-5.6-12.7c-0.3-7.4-0.9-17.6-1.3-22.7c-0.6-8.3-0.5-9.2,1.2-9.6
	C212.3,344.8,212.7,345.1,213.3,349.2z M606.5,346.9l9,0.6l0.3,54c0.1,29.7,0,54.9-0.2,56c-0.5,1.9-1.3,2-27.8,1.8
	c-15,0-28.4-0.2-29.8-0.2l-2.6-0.1l0.4-9.3c0.5-11.4-0.9-18.7-5.4-27.5c-3.4-6.7-5.6-9.5-10.9-14.2c-2.1-1.8-1.7-1.1,1.4,2.9
	c2.4,3,5.3,7.5,6.6,10c5.1,10.2,8.4,26.6,7,34.5c-1.2,6.3-2.5,3.9-2.5-4.7c0-15.4-4.3-26-15-36.8c-10.3-10.5-21.1-14.9-36.2-14.9
	c-16.8,0-32.2,8.1-40.5,21.4c-2.6,4.1-4.3,3.7-4.3-1c0-4.2-4-15.1-6.4-17.7c-2.4-2.6-2.9-2.7-13.8-2.7c-12.8,0-14.6,0.7-17.7,6.9
	c-4,7.8-6.7,24.7-7.4,46.1l-0.2,7.5l-12.2,0.2c-9.1,0.2-12.4-0.1-13.2-1.1c-0.8-0.9-1-16.7-0.9-54.1l0.3-52.8l4.8-1.2
	c2.6-0.7,5.3-1.9,6-2.9c1.1-1.4,6.3-1.6,52.7-1.9C507.8,345.4,593.5,346,606.5,346.9z M205.1,364.7c0.4,8.7,1.1,18.9,1.4,22.6
	l0.5,6.8l-4.6,1.9c-2.5,1.1-4.8,2-5,2c-0.2,0-0.4-11-0.4-24.4v-24.4l2.8-1c1.5-0.5,3.1-0.6,3.6-0.2
	C203.8,348.5,204.6,355.9,205.1,364.7z M307.7,350.9c2.8,4.2,4.3,9.3,4.3,14.8c0,2.4,0.3,4.3,0.8,4.3c0.4,0,3.1-0.9,6-2
	c6-2.3,10.7-2.5,16.4-0.8c8.7,2.6,19.3,16.1,16.9,21.5c-1.4,3-1.4,10.3-0.1,10.3c0.6,0,1-1.3,1-2.9c0-4.5,1.7-8.2,5.8-12.4
	c3.6-3.7,3.4-5.1-0.4-2.2c-3.5,2.7-4.4,1.9-4.4-4.3c0-10.3,6.3-19.7,16-24.1c8.7-3.9,8-7.1,8,36.5c0,43.3,0.9,39.2-7.5,36
	c-7.3-2.8-15.8-1.6-22.8,3.1c-2,1.4-4,2.4-4.2,2.1c-0.3-0.3-0.1-3.3,0.3-6.7c0.8-5.7,0.7-6.3-1.2-7.7c-1.8-1.2-2.2-2.7-2.5-9.9
	c-0.1-4.6,0.2-12.2,0.8-16.8c0.6-4.6,0.9-9.1,0.5-10c-2.3-6-29.5-5.4-36.4,0.8c-1.3,1.2-1.8,2.5-1.4,3.4s0.8,9.4,0.8,18.8
	c0.1,13.2-0.2,17.3-1.1,17.3c-1,0-1.3-8-1.3-36.6c0-34,0.1-36.5,1.7-36.2C304.7,347.4,306.5,349,307.7,350.9z M186.3,349.6l7.7,0.7
	v24.9V400l-20.7-0.2l-20.8-0.3V392c0-4.1-0.2-15.2-0.5-24.5l-0.4-17l10.4-0.6c5.8-0.3,11.9-0.6,13.6-0.7
	C177.3,349.1,182.1,349.3,186.3,349.6z M690.3,350.1c5.7,1.5,11.2,7,12.6,12.3c1.8,7.3,0.2,12.7-5.7,18.8
	c-3.6,3.8-12.2,7.6-14.2,6.3c-1.1-0.7-1.5-36.7-0.3-37.8C683.6,348.7,685.9,348.8,690.3,350.1z M908.3,362.1
	c11.8,8.9,26.7,24.1,31.6,32.2c6.3,10.7,8.4,17.3,8.9,27.9c0.4,8,0,11-1.8,17c-2.8,9.2-4.9,13.3-6.1,12.1
	c-3.2-3.2-2.8-21.6,0.7-30.3l1.4-3.5l-1.9,2.5c-1.1,1.4-2.5,4.4-3.2,6.7c-1.3,4.9-2.3,5.2-8.2,2.2c-10.9-5.6-22-15.3-28.8-25.1
	c-4.3-6.2-9.1-17.4-11-25.3c-1.3-5.7-1.7-25.4-0.5-27.3C890.4,349.5,895.2,352.3,908.3,362.1z M781.7,357.6c5,2.4,9.8,7.8,8.6,9.7
	c-0.3,0.5-7.2,0.6-16.3,0.2l-15.8-0.7l-4.7,3.2c-2.5,1.7-4.9,2.9-5.2,2.6c-1-0.9,1.9-6.8,5.1-10.5
	C760,354.7,772.1,352.7,781.7,357.6z M273.8,356.6c1.2,0.4,2.2,1.4,2.2,2.5c0,2.2-5.3,3.2-16,2.7c-5.6-0.2-7.5-0.6-7.5-1.7
	C252.5,357.1,266.8,354.8,273.8,356.6z M277,370.6c0,4.8-0.3,6.5-1.2,6.2c-1.5-0.5-2.2-6.9-1.4-10.5
	C275.6,361.8,277,364.1,277,370.6z M91.2,367.6c7.3,3.7,15.8,12.6,19.8,20.7c6.5,13.4,4.9,29.3-4.4,42.6c-2.2,3.2-6.1,7.5-8.5,9.5
	l-4.4,3.7l-2.6-2.4c-3.1-2.9-6.4-4.7-8.6-4.7c-1,0-0.3,1.1,2,3.2c4.9,4.2,7,8.8,8.9,18.8c0.9,4.6,1.8,8.5,2,8.8
	c1.8,1.7,1.8-14.6,0-19.2c-1-2.5,5.9-4.9,14.2-5c6,0,8,0.4,13.7,3.2c12.3,6.1,17.7,16.8,16.9,33.3c-0.2,3.4-0.4,3.7-4,4.3
	c-3.5,0.5-9.9,4.3-8.9,5.2c0.2,0.2,1.9-0.1,3.8-0.6c5.5-1.7,10.5-0.3,15.1,4c3.8,3.7,3.9,4,2.4,6.2c-2.4,3.4-1.9,4.3,0.7,1.3
	c2.4-2.8,7.9-4.2,12.1-3.1c3.5,0.9,8.4,5.3,10.6,9.5l1.9,3.7l-3.4,3.5c-3.4,3.4-8.9,7.9-9.8,7.9c-0.3,0-1.4-1.6-2.5-3.5
	c-2.4-4-6-5.2-10.1-3.6c-2.4,1.1-3.7,0.8-10.2-2.2c-5.3-2.4-7.8-4.1-8.7-6.1c-1.4-3.1-4.7-4.6-8.7-3.9c-2.6,0.5-2.8,0.4-2.1-1.8
	c3.6-12.1-0.3-21.4-10.9-25.5c-6.5-2.4-12.2-1.3-17.8,3.6c-2.4,2.2-4.7,3.6-5.1,3.3c-0.3-0.3-0.6-1.9-0.6-3.5c0-3.6-4.8-8.8-8-8.8
	c-2.2,0-2.2,0,0.4-3.5c5.9-7.7,7.3-17.2,3.7-24.3c-2.3-4.6-4.6-6.7-9.4-8.7L67,432l2-3.3c2.5-4.1,2.5-6.4-0.1-10.6
	c-1.1-1.8-1.9-3.4-1.7-3.5c6.9-4,11.8-11.4,11.8-17.7c-0.1-4.7-3.1-10.9-6.9-14.1c-1.7-1.5-3.1-3.1-3.1-3.6c0-1.5,14-14.2,15.7-14.2
	C85.4,365,88.4,366.2,91.2,367.6z M269.8,368.6c0.2,1.7-0.3,3.5-1,4.1c-1.4,1.2-14.5,3.2-15.3,2.5c-0.3-0.3-0.5-2.7-0.5-5.4v-4.9
	l8.3,0.3l8.2,0.3L269.8,368.6z M296,396.7c0,29-0.6,35.3-2.8,32.8c-1.4-1.6-8-24.3-9.6-33c-4.6-24.6-4.7-22.7,1.7-26
	c1.8-0.9,4.3-2.3,5.7-3.1C296.1,364.5,296,363.8,296,396.7z M851,372.2c4,0.8,6.3,1.9,8.7,4.3c3.9,3.9,4.4,6,1.1,4.8
	c-6.3-2.3-14.7-0.1-22.5,5.8c-4.1,3.1-4.2,3.1-9.3,1.8c-4.8-1.2-5.7-1.1-11.5,0.9c-8.2,2.8-9.4,2.8-16.5-0.8
	c-6.7-3.4-9.8-3.7-16-1.5c-5.8,2-9.3,1.9-14.1-0.6c-5.5-2.8-10.5-2.6-16.7,0.5c-2.8,1.4-5.8,2.6-6.6,2.6c-1.8,0-10.6-4.1-10.6-4.9
	c0-0.4,4.9-3.8,10.8-7.8l10.7-7.2l43.5,0.5C825.9,370.9,848,371.6,851,372.2z M275.2,380.6c1.5,0.8,3,2.4,3.2,3.7
	c0.3,1.2,1.2,6.5,2.1,11.7c1,5.2,3.4,14.9,5.5,21.5c4.3,13.8,5.5,19.5,4.2,19.5c-0.5,0-1.7-1-2.5-2.3c-1.5-2.2-1.5-2.2-1-0.1
	c0.6,2.5-1,3.9-2.4,2.1c-0.5-0.6-1.7-3.3-2.7-6c-2.5-6.8-3.6-5.8-1.6,1.5c2.3,8.3,3.4,17.5,2.2,18.2c-0.5,0.3-1.5-2.2-2.2-5.7
	c-1.7-8.6-7.6-28.7-11.1-37.9c-6-15.4-15.6-18.1-25-7c-8.5,10-19.1,33.6-22.4,49.5c-2.1,10-2.1,10-4.5,8.7
	c-2.4-1.3-2.6-5.5-0.6-15.1c3.6-17,12.4-36,23.3-50.4c7.3-9.5,10.6-12.1,17.5-13.4C262.5,378,271.6,378.8,275.2,380.6z M337.1,379.9
	c2.2,1.8,2.3,2.1,0.8,3.6c-3.2,3.2-29.9,3.2-29.9,0c0-2,1.7-2.8,8.5-4.1C326.3,377.5,334.4,377.7,337.1,379.9z M142.6,380.6
	c5.2,2.5,6.4,5.8,6.4,16.9c0,5.2-0.2,9.5-0.5,9.5c-0.2,0-2.1-1.1-4.1-2.5c-2.8-1.9-5-2.5-9.1-2.5c-5.7,0-8.4,0.9-11.9,4.2l-2.1,1.9
	l-0.7-5.6c-0.3-3.1-1.2-7.6-1.8-10.1c-1.2-4.3-1.1-4.6,1.2-6.5c4.1-3.4,12.3-6.9,15.8-6.9C137.7,379,140.7,379.7,142.6,380.6z
	 M886.1,384.2c0.6,2.9,2,7.2,3.1,9.6c2.2,5.4,2.2,5.2-0.3,5.2c-3,0-5.7-1.7-7.3-4.8c-1.4-2.4-1.5-2.5-1.6-0.6c0,3.7,3.1,6.5,8,7.2
	l4.5,0.6l-4.5,0.8c-7,1.2-11-2.6-11-10.6c0-3.2,5.1-12.6,6.9-12.6C884.4,379,885.4,381.4,886.1,384.2z M241.1,385.8
	c-0.5,1-1.7,2.4-2.5,3.1c-2,1.7-10.6,15.1-14.1,22.1c-1.5,3-4.3,9.5-6.1,14.3c-3.3,9-5.7,12.8-7.7,12.4c-0.7-0.1-1.3,0.8-1.5,2
	c-0.2,1.5-1,2.3-2.3,2.3c-2.1,0-2.2-0.4-4.1-13.5l-1.2-9l-0.8,15.9c-0.4,8.7-0.9,16-1.2,16.3c-2.1,2.1-2.6-2.7-2.6-25.2V402l4.3-2.1
	c5.5-2.9,37.8-15.8,39.5-15.9C241.7,384,241.8,384.5,241.1,385.8z M852.3,385.1c1.4,0.6,3,2.2,3.6,3.6c1.5,3.2,1.4,3.3-0.8,3.3
	c-1,0-5.4,2.5-9.7,5.7c-4.4,3.1-11.6,8.3-16.2,11.6c-4.5,3.3-12.7,7.9-18.2,10.2c-5.4,2.4-12.9,6.6-16.6,9.4c-7.1,5.4-8.8,6-9.8,3.6
	c-0.9-2.6,3.1-5.5,16.2-11.8c6.9-3.3,16.6-8.6,21.6-11.9c5-3.3,11.7-7.3,14.9-8.9c5.6-2.9,7.3-4.9,4-4.9c-2.1,0-12.8,5.9-21.8,12.1
	c-7.2,4.9-28.3,15.4-29.2,14.5c-0.6-0.6,2.4-2.4,21.1-13c7.1-4,17.3-10.5,22.7-14.5c8.1-5.9,14.5-10.1,15.6-10.1
	C849.8,384,851,384.5,852.3,385.1z M768.8,389.5c6.2,2.9,11.4,3.2,16.5,1c5.3-2.2,8.5-1.9,15.2,1.5c7.1,3.6,9.2,3.7,17,0.9
	c5.7-2,12.5-2,12.5,0c0,1.1-5.8,4.8-20.4,13.1c-10.6,6.1-10.9,6.2-14.6,5c-2.5-0.8-5.9-1-9.7-0.6c-15.6,1.9-15.6,1.9-22.6-0.5
	l-6.8-2.4l-6.4,2.3c-7.6,2.6-8.9,2.7-14.6,0.6c-6.1-2.1-10.8-2-15,0.5c-4,2.3-5.6,2.1-11.8-1.7l-3.2-2l13.6-9.6
	c7.4-5.3,14.4-9.6,15.4-9.6c1.1,0,4.3,1.1,7.3,2.5c2.9,1.4,6,2.5,6.8,2.5s4.2-1.3,7.5-2.9c3.3-1.6,6.5-3,7-3
	C763.1,387,765.9,388.1,768.8,389.5z M311.8,389.2c0.8,0.8,1.2,5.3,1.2,13.5c0,11.1-0.2,12.3-1.9,13.3c-3.9,2-4.1,1.4-4.1-13.5
	c0-13.3,0.1-14.5,1.8-14.5C309.8,388,311.1,388.5,311.8,389.2z M337.3,401.2c-0.2,7.3-0.6,13.2-1.1,13.1c-0.4-0.2-0.8-6.1-1-13.3
	c-0.2-10.2,0-13,1-13C337.3,388,337.5,390.9,337.3,401.2z M321.2,400c0,6,0.1,11.6,0.2,12.2c0.1,0.7-1.1,1.4-2.6,1.6l-2.8,0.3v-12.5
	V389h2.5h2.5L321.2,400z M329,392.7c0,2.1,0.3,7.5,0.7,12.1l0.6,8.4l-2.9-0.4l-2.9-0.3l-0.3-11.8l-0.3-11.7h2.6
	C328.7,389,329,389.4,329,392.7z M260.9,398.8c1.5,1.5,3.8,5.4,5,8.6l2.2,6l-2.5,5.5c-3.8,8.7-4.9,14.3-4.4,23.9
	c0.7,13.5,6.2,24.2,12.5,24.2c2.9,0,3.9,1.8,2.1,3.7c-2.5,2.4-8.5,0.6-12.9-3.8c-4.2-4.2-5.7-8.3-6.6-18.3c-0.5-5.4-0.8-6.4-1.5-4.7
	c-1.6,4.4-2,15.6-0.8,21.4c0.6,3.2,0.9,6.1,0.6,6.4c-0.3,0.3-1.9-0.6-3.7-2.1c-2-1.7-3.8-2.5-5-2.1c-5.5,1.8-9.4-3.7-8.7-12.2
	c0.5-5.8-0.5-5.3-2.3,1.2c-0.9,3.2-1.3,3.6-2,2.2c-1.2-2-1.4-13.8-0.5-18.8c1.4-7.2-2.2,1.3-5,11.8c-1.5,5.7-3.1,10.3-3.6,10.3
	c-1.5,0-0.8-6.7,1.7-16.1c4.1-15.6,8-24.4,16.8-38.3C249.7,396.1,255.5,393.3,260.9,398.8z M439,402.7c0,0.3-1.1,3.4-2.5,6.8
	c-8.4,21.2-7.4,66.1,2,87.7c0.6,1.6,0.1,1.8-5,1.8c-3.5,0-5.4-0.4-5-1c0.3-0.6,1.5-1,2.7-1c2.3,0,2.3,0-0.6-12.5
	c-0.9-3.9-1.6-8.8-1.7-11c0-2.2-0.4-5.1-0.8-6.5c-0.7-2.2-0.9-1.9-1.6,2.3c-0.4,2.6-0.5,7.4-0.3,10.6c0.4,5.6,0.3,5.8-1.9,5.8
	c-1.8,0-2.5-0.7-3.3-3.6c-1.2-4.5-2.8-12.6-3.3-16.6c-0.2-1.7-0.5,0.4-0.6,4.5c-0.2,6.5-0.4,7.1-1.3,4.5c-1.7-5.1-1.4-42.9,0.4-51
	c2.5-11.3,3.7-14.8,5.8-18.3c1.9-3.2,2.1-3.2,9.5-3.2C435.6,402,439,402.3,439,402.7z M447.2,403.7c2.9,3.4,4.6,7.9,6.5,17.3
	c3.8,19.7,1.7,64.5-3.3,70.7c-1.4,1.6-1.5,1.4-1-2.5c0.3-2.3,0.8-6.1,1.1-8.5l0.5-4.2l-1.1,3.5c-1.1,3.6-2.5,5.7-3.3,4.9
	c-0.3-0.3,0.1-2.3,0.9-4.4c0.8-2.2,1.4-5.4,1.4-7c0-2.7-0.2-2.5-1.4,1.4c-1.3,4-2.8,6-4.7,6.1c-0.4,0,0.4-2.5,1.7-5.5
	c4.9-11,5.5-27.2,1.9-45.5c-1.8-8.6-3.6-12-6.4-12c-2.4,0-2.5-0.8-0.4-3.8c3.3-4.8,5.4-2.7,8.8,8.8c2.8,9.5,3.4,7.6,1-2.9
	c-1.8-8.3-3.2-10.4-6.7-10.4c-3.2,0-3.4-1.5-0.6-5.1C444.5,401.5,445.2,401.4,447.2,403.7z M139,405.1c5.2,3.1,7,5.8,7,10.7
	c0.1,14.6-19.9,16-22.6,1.7c-0.8-4.5,0.1-7,4.2-11C131.6,402.5,134.1,402.2,139,405.1z M193.8,427.2c0.2,19.9,0,23.8-1.2,23.8
	c-2,0-2.6-3.2-2.6-15.4c0-6-0.2-10.7-0.5-10.4c-0.3,0.2-0.9,4-1.5,8.4c-1.9,13.9-3.1,14.5-4.6,2.4l-0.8-6.5l-0.7,5.3
	c-0.4,2.9-1.4,6.3-2.3,7.7c-3.3,5.1-11,4.4-13.6-1.2c-1.9-4.1-3.6-4.2-4.5-0.3c-1,4.5-2.2,3.6-2.9-2.3c-0.4-2.8-1.3-7.5-1.9-10.2
	c-1.1-4.5-1.2-3.1-1.7,15.2c-0.4,13.9-1,20.7-1.8,21.5c-0.9,0.9-1.2-5.7-1.2-30.5V403l20.8,0.2l20.7,0.3L193.8,427.2z M516.1,405.9
	c12.3,4.7,23.1,15.5,28,27.9c3.3,8.3,3.3,25.2,0,33.5c-7.4,18.7-27.3,32-45.2,30.3c-8.1-0.7-17.1-3.5-17.7-5.5
	c-0.4-1.1,0.1-1.2,1.9-0.7c8,2.5,10.9,2.9,14.1,1.9c3.1-1,3.1-1.1,0.7-1.2c-4.4-0.2-11.5-2.7-13.8-5c-2.6-2.6-2.8-4.6-0.3-3.6
	c5.4,2.4,12.4,3.6,18.7,3.3c13.1-0.7,23.9-7.8,29.7-19.6c3.1-6.3,3.3-7.3,3.3-17.2c0-8.7-0.4-11.3-2.2-15.2
	c-2.9-6.4-11.1-14.3-18.1-17.6c-4.9-2.3-7-2.7-15.2-2.7c-8.2,0-10.3,0.4-15,2.6c-7.9,3.8-13.3,8.9-17.1,16.4
	c-1.9,3.6-3.7,6.5-4.2,6.5c-1.7,0,3-12.1,5.3-13.5c0.5-0.3,1-1.1,1-1.7c0-1.9-3.1,1.5-6.1,6.7c-2.2,3.8-2.9,4.5-2.9,2.7
	c0-2.4,2.9-8.7,6.3-13.7l2.1-3l-2.3,2c-1.3,1.1-3.4,3.9-4.8,6.2c-2.7,4.7-4.8,5.8-3.3,1.7c1.5-3.9,6.6-10.9,10.1-13.8
	c4-3.4,12-7.5,17.9-9.2C493.7,402.4,509.1,403.2,516.1,405.9z M861.5,412.5c2.8,2.7,3.4,5.8,1.1,4.9c-1-0.4-2,0.7-3.1,3.3
	c-1.7,4.1-6.2,9.3-8,9.3c-0.6,0-1.9-1.6-3-3.6c-1-1.9-3.2-4.7-4.9-6.1l-3-2.5l2.5-2C851.3,409.3,857.2,408.2,861.5,412.5z
	 M706.3,416.9c6.7,5.6,7.8,5.7,15.4,2.2l6.6-3.1l4.3,2.5c5.4,3.1,8.5,3.1,16.9-0.1l6.8-2.5l7,2.1c5.7,1.8,8.4,2,13.9,1.5
	c7.3-0.7,8.2-0.1,4.7,3.1c-2.9,2.6-4.9,7.5-4.9,12.2v3.9l-5.7,0.6c-3.2,0.4-8,1-10.6,1.3c-3.3,0.5-7.5,0.1-12.8-1.1
	c-7.5-1.7-8.3-1.7-13.3-0.2c-6.7,2.1-10.4,2.1-16.9,0c-4.9-1.6-5.3-1.6-11.3,0.5c-7.5,2.6-9.3,2.7-13.8,0.5c-3.3-1.5-3.8-1.5-8,0.1
	c-2.5,1-5.5,1.5-6.6,1.1c-4.7-1.5-3.3-9.9,2.8-15.7c5.8-5.5,16.4-12.8,18.7-12.8C700.6,413,703.7,414.8,706.3,416.9z M830.8,419
	c-6.2,7.6-37.5,26-44.1,26c-3,0-3.9-0.5-5.2-3c-1.7-3.3-2-9.7-0.5-12c0.7-1.1,1-0.8,1,1.6c0,4.1,2.1,5.8,6.1,5
	c2.5-0.5,3-0.3,2.5,0.9c-0.9,2.3,0.2,1.9,10.8-4.4c5.5-3.2,10.4-5.7,11-5.5c0.6,0.2,5.4-2.5,10.6-6c5.2-3.6,9.9-6.5,10.3-6.5
	C833.8,415,832.6,416.8,830.8,419z M337.7,418l3.1,1.1l0.1,9.3c0,10.5,1.9,19.1,8,36.2c6.1,17.1,8.6,32.3,6.5,40.1
	c-1.3,4.6-2.3,2.1-2.3-5.5c0.1-6.7-0.4-8.9-4-17.7l-4.1-10v7.1c0,5.2-0.4,7.3-1.4,7.7c-1.6,0.6-4.6-2.2-4.6-4.4c0-1.2-0.2-1.2-1,0.1
	c-1.3,2.1-2.1,0.8-2.3-3.8c-0.2-4.9-1.4-3.5-2.3,2.6c-0.3,2.4-0.9,4.1-1.1,3.8c-0.3-0.3-0.6-6.9-0.8-14.8
	c-0.3-22.6-3.3-32.5-10.8-36.1c-4.6-2.3-8.9-1.2-13.4,3.6c-5.5,5.8-14.3,26.4-14.3,33.6c0,2.2-0.5,3.1-1.6,3.1c-1.3,0-1.5-1-1.2-5.4
	c0.3-5.9-0.2-6.3-2.2-1.6c-1.3,3.1-3,4-3,1.7c0-0.8,0.7-3.6,1.5-6.3c1.2-4.3,1.2-4.7,0-3c-0.8,1.1-2.4,4.5-3.5,7.5
	c-3.3,9.1-3.2,8.8-3.7,7.3c-1-2.6,1.9-10.9,7.4-21.2c3.1-5.8,7.1-13.4,8.9-17c5.3-10.6,11.6-15.7,22.9-18.6
	C323.9,415.9,332.6,416.3,337.7,418z M272.5,428.1c3.3,10.7,6.5,25.1,6.5,28.7c0,4.1-2.7,7.4-5.8,7c-4.4-0.5-9.2-12.9-9.2-23.8
	c0-7.6,4-22.4,5.6-20.7C269.8,419.5,271.1,423.5,272.5,428.1z M442.7,422c3.7,7.8,4.4,36.2,1.3,47.9c-2.2,8.1-5,12.8-6.9,11.7
	c-1.3-0.9-1.5-7.6-0.1-7.6s3.6-4.8,4.9-11c1.5-7.1,1.5-28.5,0-34.7c-0.7-2.6-1.8-5.5-2.5-6.4c-1.9-2.1-1.7-3.1,0.3-2.7
	C440.7,419.4,442,420.6,442.7,422z M895.2,421c5.4,2,15.8,10.2,15.8,12.3c0,0.7-1.3,1.9-2.9,2.9c-4.3,2.4-9,9.4-10.8,16.1
	c-1.6,5.6-1.8,5.8-4.4,5.2c-1.9-0.4-3.9,0-5.9,1.1c-2.9,1.8-3,1.8-4.5-0.1c-1.9-2.6-1.9-4,0-5.5c2.5-2.1,1.8-6.6-1.2-9
	c-2.4-1.9-3.6-2.1-7.9-1.6c-4.2,0.5-5.4,0.2-6.8-1.3c-1.6-1.7-1.4-1.9,2.4-4.5c2.2-1.4,4-3.1,4-3.6s-1.8-1.5-4-2.1
	c-4.8-1.5-5-3-0.7-6.2C875.7,419,886.2,417.6,895.2,421z M120,422.5c0,2,4.8,7.3,8.1,9c4.3,2.3,10.7,1.8,15.8-1
	c2.3-1.4,4.5-2.5,4.7-2.5s0.4,9.5,0.4,21c0,17.7-0.3,21.5-1.6,23.5c-0.9,1.4-2,2.5-2.4,2.5c-0.4,0-1-3.1-1.2-6.9
	c-0.6-8.3-3.5-14.8-9.1-20.4c-6-6-11.7-8.2-21.4-8.2c-4.6,0-8.3-0.2-8.3-0.4c0-0.2,1.8-2.3,3.9-4.6c2.2-2.4,5.1-6.6,6.6-9.4
	C117.9,420.4,120,419.1,120,422.5z M842.6,423.5c3.9,4.2,5.7,9.8,4.5,14l-0.8,3l-1.8-4.3c-1.8-4.5-3.2-5.1-6.8-2.8
	c-2.1,1.4-2.4,1.2-5.9-2.8l-3.7-4.3l4.2-3.1c2.3-1.7,4.8-3.1,5.6-3.1C838.6,420,840.8,421.6,842.6,423.5z M516,424.4
	c2,2.5,0.8,6.1-2,6.3c-1.4,0.1-1.8,0-0.7-0.3c0.9-0.3,1.7-1.3,1.6-2.2c0-1.1-0.2-1.2-0.6-0.5c-0.2,0.7-1.3,1.3-2.4,1.3
	c-1.3,0-1.9-0.7-1.9-2.3c0-1.3,0.3-2.7,0.7-3C511.8,422.5,514.7,422.9,516,424.4z M375.4,432.4l2.6,1.6v16v15.9l-4.2-0.2
	c-3.7-0.2-4.4,0.2-5.5,2.5c-1.2,2.4-1.6,2.5-4.3,1.5c-3.1-1.2-3.7-2.1-2-3.2c0.6-0.3,1-2.4,1-4.6c0-6.4-6.1-10.5-11.7-8
	c-1.4,0.7-2.7,1-2.9,0.9c-0.1-0.2-1.2-3.6-2.3-7.6l-2-7.2l2.7-3.1c4.3-5.2,9.5-7,18.4-6.6C370.2,430.5,373.7,431.3,375.4,432.4z
	 M490.8,434.3c2.2,1.7,1,7-1.9,8.6c-2.4,1.3-2.9,1.3-5.3-0.2c-1.8-1.2-2.6-2.6-2.6-4.7C481,432.9,486.5,430.8,490.8,434.3z M866,433
	c0.8,0.5,1.2,1.1,1,1.4c-1.3,1.2-27.2,16.2-37.2,21.5c-11.9,6.3-25.7,12.5-26.4,11.8c-0.2-0.2,2.9-2.2,6.9-4.4
	c3.9-2.2,15.4-8.6,25.4-14.3c10-5.6,20.2-11.7,22.5-13.5C862.8,431.8,863.7,431.5,866,433z M934.6,434.8c0.6,0.4,1.4,3.3,1.8,6.5
	c0.3,3.1,1.3,7.5,2.2,9.7l1.6,3.9l-4.5,5.8c-2.5,3.2-7.3,8.5-10.6,11.8l-6.1,5.9l-5.4-1.8c-3-1.1-6.8-3.2-8.3-4.8
	c-2.6-2.8-2.8-3.5-2.8-11.6c0-8.1,0.2-9.1,3.2-13.7c3.5-5.4,7.6-8.6,13.8-10.9C923.8,434,932.8,433.5,934.6,434.8z M319.9,436.5
	c4.9,2.5,8.1,11.9,8,23.5v6.5l-2.4-7.4c-3.1-9.8-4.2-10.5-3.7-2.7c0.4,5.9,0.2,6.7-2.1,9c-4.8,4.8-13.7,2-13.7-4.1
	c0-3.5-1.8-1.8-3,2.8c-0.9,3.2-1.4,3.8-2.4,2.9c-1.1-0.8-1.5-0.3-2,2.4c-0.4,2-1.1,3.8-1.6,4.1c-1.8,1.1-1-5.6,1.5-13.1
	c5.2-15.6,11.7-24.9,17.8-25.3C316.7,435,318.4,435.7,319.9,436.5z M531.8,439.5c0.8,2.2,1.5,7.4,1.5,11.5c0.1,6.2-0.4,8.4-2.6,13
	c-4.1,8.4-6.9,11.2-11.1,11.5c-3.7,0.3-10.1,4.7-8.8,6c0.4,0.4-0.6,0.4-2.3,0c-3.8-1-7.4-1-8.6,0.2c-0.5,0.5,0.9,0.7,3.3,0.5
	c2.8-0.3,3.9-0.1,3.4,0.7c-0.8,1.2-11.6,1.2-11.6,0c0-0.4,1.2-1.7,2.6-2.8c2.9-2.3,6.4-2.7,9.7-1c2.1,1,2.1,1,0.3-0.5
	c-3.6-2.9-9.3-1.6-12.7,2.7c-1.5,1.9-2.1,2-5.7,0.9c-5.6-1.7-12.8-6.9-16.5-11.9c-2.8-3.9-3-4.9-3.3-13.7
	c-0.1-5.3,0.1-10.7,0.4-12.1l0.7-2.6l3.5,2.3c4.6,3,8.2,10.1,7.8,15.3c-0.3,3.7-0.5,4-3.7,4.3l-3.3,0.3l3.3,1.7
	c3.4,1.8,4.1,2.7,6.1,7.7c0.9,2.3,1.2,2.6,1.5,1.2c0.3-1,0-3.1-0.5-4.6c-0.9-2.5-0.7-3.2,1.6-5.4c5-4.8,12.1-6,17.2-3
	c4.3,2.5,5.4,5.3,3.6,8.8c-2,3.9-1.4,4.2,1.9,0.9c2.2-2.2,3.3-2.5,6.1-2.1c3.6,0.6,4.7-0.7,1.5-1.8c-3.8-1.2-3.5-12.7,0.5-20.9
	c2.2-4.3,9.5-11.7,11.3-11.4C529.7,435.4,531,437.3,531.8,439.5z M718,442.5c5.4,1.9,9.3,1.9,16.1-0.1c5-1.5,6.1-1.5,15.1,0.1
	c8.2,1.4,10.8,1.5,16.5,0.5c8.2-1.5,12.7-1.1,13.1,1.1c0.4,2.1-9.7,2.7-56.3,3.5c-33.9,0.6-40.5,0.2-40.5-2.4c0-0.4,1.5-1.3,3.4-2
	c2.7-1,4-1,6.9,0.3c4.7,1.9,8.2,1.8,13.7-0.5C711.6,440.7,712.7,440.6,718,442.5z M674.5,444.1c0.5,1.5,0,2.8-1.7,4.6l-2.5,2.4
	l1.1-4.5C672.6,441.6,673.5,440.8,674.5,444.1z M865.3,443.7c2.9,3.3,2.5,4.5-1.8,5c-2.3,0.2-16.6,6.4-34,14.6
	c-26.5,12.6-30.6,14.8-35.2,19.4c-2.9,2.8-5.3,5.8-5.3,6.7c0,2.9,2.8,4.5,6.7,3.9c4.1-0.7,4,1.1-0.1,2.1c-3.4,0.8-7.5-0.9-8.6-3.6
	c-0.7-1.8-0.9-1.9-0.9-0.6c-0.2,3.5-2.1,1.7-2.1-1.9c0-3.1,0.8-4.4,5.3-8.7c4.4-4.3,8.3-6.5,24.2-13.6c10.4-4.7,25.3-12.2,33-16.7
	s14.7-8.3,15.6-8.3C863,442,864.4,442.8,865.3,443.7z M463.7,452.2c0.4,8.9-1,10.4-2.6,2.8s-1.5-11.2,0.6-10.8
	C463,444.4,463.4,446,463.7,452.2z M803.8,448.3c1.9,2,2.4,3.6,2.4,7.6c-0.1,5.9-0.9,7.8-2.5,6.2c-1.5-1.5-4.8-1.4-9,0.4
	c-7.1,3-7.8,1.3-1.2-2.8c2.5-1.6,4.5-3,4.5-3.2c0-0.7-12.7,3.3-14.9,4.6c-1.9,1.3-2.4,1.2-3.9-0.7c-4.8-6-12.3-6.6-63.5-5.3
	c-23.1,0.5-42.4,0.6-42.8,0.2c-0.5-0.5,0.4-2.4,1.9-4.2l2.7-3.3l5.4,1.8c4.9,1.6,8.5,1.7,39.1,1.1c43.9-0.9,67.2-2.4,72.5-4.7
	C798.9,444.1,800.2,444.5,803.8,448.3z M440.6,456.2c-0.9,6.9-2.6,13.2-3.3,12.4c-0.6-0.6,2.8-17.6,3.6-17.6
	C441.1,451,441,453.4,440.6,456.2z M867.6,456.4c-0.7,3-5.2,5.6-9.5,5.6c-2.2,0-4.4,1.1-7.2,3.7l-4.1,3.7l0.4-2.9
	c0.2-2.5,1.5-3.7,8.2-7.6c4.3-2.5,8.3-5.4,8.8-6.3c0.9-1.6,1.2-1.7,2.5-0.3C867.7,453.3,868,454.7,867.6,456.4z M202.5,458.2
	c13.4,2.8,29.9,15.3,34.5,26.1c2,4.5,5,14,5,15.8c0,0.3-2.6,0.6-5.7,0.5c-4.1,0-7.1,0.7-10.1,2.3c-5.1,2.6-5.1,3.5-0.1,2.1
	c8.6-2.5,18.8,0.3,23.3,6.4c5.6,7.5,6.2,10,4.1,18.6c-0.5,1.8,0,1.3,1.7-1.5c5.1-8.5,13.9-11,20-5.6l3.2,2.9l-3.2,3
	c-1.8,1.6-3.2,3.6-3.2,4.3c0,0.8,0.8,0.5,2.3-0.8c3.3-3,6.1-3.6,10.1-1.9c2,0.8,3.6,1.1,3.6,0.6c0-1.3-4.2-4-6.2-4
	c-1,0-2.5-1.2-3.5-2.8c-2.9-4.7-5.4-6.2-10.9-6.2c-3.6,0-5.9,0.6-7.6,2c-2.8,2.2-3.8,1.8-3.8-1.7c0-3.6-3.4-9.6-7.6-13.3
	c-3-2.6-3.5-3.6-2.7-4.9c2-3.2,12.9-11.3,19.8-14.6c27-13,54.8-8.7,76.1,11.7c4.5,4.3,9.4,9.7,10.9,11.9l2.8,4l-2.1,6.7
	c-1.2,3.7-2.2,7.8-2.2,9.2s-0.9,3.8-2,5.5c-2.8,4.3-2.5,5.2,0.6,1.6c5.2-6.3,14.2-5.7,18.4,1.1c2.8,4.7,2.6,6.4-1,7.2
	c-1.7,0.3-4.3,1.9-5.9,3.6c-2.7,3-2.8,3-4.5,1.1c-5.2-5.8-15.8-4.5-19.3,2.3l-1.6,3.1l3.7-3.3c2.9-2.5,4.6-3.2,7.9-3.2
	c4.3,0,8.6,2.1,11.2,5.6c1.4,1.9,1.4,1.9,1.5-0.2c0-3.6,4.6-6.9,9.5-6.9c3.6,0,5,0.6,7.9,3.4c2,1.9,3.6,2.9,3.6,2.2
	c0-1.8-6.5-8.1-8.4-8.1c-0.9,0-1.6-0.8-1.6-2c0-3.8-2.9-9-6.2-11c-2.6-1.7-4.3-2-8-1.5c-2.7,0.3-4.8,0.3-4.8,0s1.6-3.8,3.6-7.8
	c5.1-10.1,15.7-20.6,23.9-23.6c8.8-3.3,18.9-2.6,28.2,1.9c8.5,4.2,19.1,14.5,26.1,25.4c6,9.4,6,12.1,0,17.7c-2.1,2-3.8,4.1-3.8,4.8
	c0,0.7,1.3-0.1,3-1.7c3.5-3.5,6.8-4.3,10.7-2.7c3.6,1.6,6,4.3,6.5,7.5c0.3,2.4,0.4,2.3,2.1-1.1c1-2,3.3-4.5,5.2-5.5
	c2.9-1.5,4.1-1.7,7.6-0.7c3.6,0.9,3.9,0.9,2.6-0.4c-0.8-0.8-3.2-1.7-5.3-2c-3.1-0.4-4.7,0.1-7.8,2.2l-3.9,2.6l-2.6-2.5
	c-1.4-1.3-3.9-2.8-5.4-3.2c-2.5-0.6-2.8-1-2.2-3.2c1.1-4.3,7.2-12.7,11.8-15.9c13.7-9.9,31.2-8,43,4.6c5,5.3,9.1,12.9,8.5,15.8
	c-0.2,0.8-1.8,2.1-3.7,2.7c-1.9,0.6-4.1,2.1-4.9,3.4l-1.5,2.3l3.7-2.2c4.5-2.6,8.8-2,12.8,1.8c1.6,1.6,2.8,2.1,2.8,1.4
	c0-0.8-1.6-2.8-3.5-4.6l-3.5-3.3l3.4-3c6-5.3,12.9-5,19,0.6c5,4.7,6.5,7.9,5.5,11.8c-0.8,2.9,0.3,11.4,1.5,11.4
	c0.1,0,0.2-2.6,0.2-5.8c-0.1-5,0.4-6.5,2.7-9.5c1.5-2.1,4.1-4.4,5.8-5.2c2.7-1.4,2.9-1.4,2.9,0.1s0.4,1.4,2.5-0.6
	c6.9-6.4,16.3,0.5,16.6,12.2l0.1,4.3l1-3.2c0.6-1.7,0.7-4.8,0.4-6.8c-0.8-4.3-5.6-10-9.2-10.9c-2.9-0.8-17.6,3.8-19.5,6
	c-2.7,3.2-4.7,0.2-7-10.6c-2.6-12.4,4.7-25.7,17.1-31.3c7.1-3.2,18-2.9,24.6,0.5c5.5,2.9,12.2,9.8,14.8,15.2c2,4.2,2.1,8.6,0.2,8.6
	c-1.7,0-6.6,3.8-6.6,5.2c0,0.6,0.8,0.4,1.8-0.5c3.9-3.5,9.4-2.1,12.2,3.1c1.8,3.6,1.9,3.6,2,1c0-1.4-1.2-4-2.6-5.7
	c-3.1-3.8-2.6-5.7,2.1-7.6c4.4-1.9,5.9-1.9,10.2,0.2c7.4,3.5,9.7,13.7,4.8,20.9c-1.4,2-2.5,4.4-2.5,5.3c0,0.9,0.9,0.2,2-1.7
	c3.9-6.4,12.9-7.8,18.7-2.8c2.5,2.2,2.6,2.6,1.5,5.1c-1.5,3.3-0.9,4.6,0.7,1.6c0.6-1.1,3.2-3.3,5.8-4.8c5.1-3,4.5-4.2-1-2
	c-3.3,1.4-3.5,1.4-6.5-1.5c-2.1-2.2-4.2-3.2-7.6-3.5l-4.6-0.6v-4.1c0-13.8,15.3-25.6,29.2-22.7c11,2.4,20.2,8.8,25.5,17.9
	c4.2,7.1,4.4,10.1,1.1,14.4c-1.6,2-3.8,5.7-4.9,8.2c-1.9,4.5-2.1,4.6-6.4,4.6c-3.4,0-5.3,0.7-8.9,3.5c-4,3-5.8,3.6-12.9,4.5
	l-8.2,0.9l-3-3.3c-8.2-9.2-18.7-8.5-25.4,1.7c-1.9,2.9-2.7,3.4-4.2,2.7c-1-0.6-2.9-1-4.2-1c-2.3,0-2.5-0.3-2-4
	c0.5-3.4,0.2-4.3-2.5-7c-5.6-5.5-14.8-3.7-17.8,3.6c-0.8,1.8-1.4,5-1.4,7c0,2.7-0.4,3.5-1.4,3.1c-0.7-0.3-2.5,0.1-3.9,0.8
	c-2.3,1.2-2.8,1.1-4.4-0.7c-5.1-5.6-10.7-5.7-15-0.2l-2.5,3.4h-16.4c-16.1,0-16.3,0-18.8-2.5c-3-3-7.5-3.3-11.2-0.8
	c-2.5,1.6-2.7,1.6-3.6-0.1c-0.7-1.2-1.7-1.6-3.4-1.2c-1.3,0.4-2.4,0.2-2.4-0.3c0-1.7-4.1-3.3-6.7-2.6c-1.5,0.3-3,1.8-3.9,4L478,572
	h-8.8h-8.9l-2.4-3.7c-3.4-5.2-7-7.5-12.6-8c-5.9-0.6-12,2.1-15.5,6.7c-2,2.8-2.6,3-8.7,3c-3.6,0-9-0.3-11.9-0.7l-5.3-0.6l2.3-2.4
	c1.3-1.4,4.9-4.2,8.2-6.4c3.2-2.1,5.3-3.9,4.7-3.9c-3,0-8.6,3.4-13.6,8.1c-3.5,3.3-6,4.9-7,4.5c-1.4-0.5-1.4-0.9-0.1-3.4
	c4.1-8,15.7-17.7,26.3-22.2c4.3-1.8,4.5-2,1.3-1.4c-5.9,0.9-16.2,6.5-21.1,11.4c-2.5,2.5-5.7,7-7,9.8c-2.1,4.6-2.7,5.2-5.5,5.2
	c-8.9,0-73.8-7.5-75.9-8.8c-0.5-0.4-2.1-0.5-3.5-0.4c-1.7,0.2-4.1-0.9-7.1-3.2c-5.1-4-11.7-6.6-16.3-6.5c-2.6,0.1-2.1,0.4,2.9,2
	c3.3,1,7.1,2.8,8.5,3.9c2.3,1.8,2.4,2,0.5,2c-2,0-28.8-4.5-33.2-5.6c-3.6-1-2.7-2.3,3.5-5.2c4.6-2.1,7.2-2.6,13.7-2.7
	c6.9,0,8.9,0.4,14.6,3.1c3.7,1.8,8.6,4.9,10.9,7c2.5,2.2,3.9,3,3.2,1.9c-2.7-5.1-10.5-10.6-18.2-12.9c-9.6-2.9-19.1-1.5-27.3,4.1
	l-5.2,3.5l-6.6-1.2l-6.6-1.1l-0.6-5.8c-1.1-12.1-8.2-19.6-18.7-19.6c-4.6,0-6.3,0.5-9.3,2.8c-1.9,1.5-4.1,4.3-4.8,6.2
	c-1.5,4-2.4,4.3-3.9,1.5c-1.3-2.4-6.1-5-9.3-5c-1.3,0-4.1,1.1-6.1,2.5c-2.5,1.7-3.8,2.1-4.1,1.2c-0.2-0.6-0.8-2.8-1.4-4.7
	c-1.4-4.3-12.4-16-15.1-16c-1.4,0-2.3-1.1-3.1-4c-2.3-7.7-12-14.4-18.1-12.4c-4.4,1.4-1-2.2,5.1-5.4c12.5-6.4,25.4-2.7,33.2,9.6
	c1.6,2.5,2.9,3.9,2.9,3c0-2.8-6.3-11.1-10.8-14.2c-3.5-2.5-5.5-3.1-11.3-3.4c-8.8-0.5-14.1,1.3-19.4,6.8c-2.2,2.2-4.2,4-4.6,4
	c-0.4,0-1-1.1-1.3-2.5c-0.3-1.3-2.2-3.7-4-5.2l-3.4-2.7l2.8-4c3.7-5.5,12.4-13.6,18-16.9C175,456.7,187.4,455,202.5,458.2z
	 M851.1,457.9c-2.8,2.1-24.4,13.1-41,20.8c-10.7,4.9-14,5.8-11.4,3.2c1.5-1.5,52.7-25.9,54.3-25.9
	C853.3,456,852.4,456.9,851.1,457.9z M766.3,457.6c4.6,0.8,4.7,2.1,0.5,3.8c-3.7,1.5-79.8,3.3-88,2.1c-4.6-0.7-8.8-2.8-7.7-3.9
	C672.3,458.4,759.8,456.6,766.3,457.6z M776.8,462.2c1.8,1.8,1.4,5.9-0.8,9.5l-2,3.3l-11.7-0.1c-6.5-0.1-14.5-0.4-17.8-0.8
	c-5.7-0.6-5.4-0.7,5-1.2c12.5-0.7,15-1.7,21-7.8C774.8,460.6,775.1,460.5,776.8,462.2z M411.4,463.6c0.3,0.9,0.6,3.1,0.6,4.9
	c0,5.5,2.7,18.1,5.4,24.6c2.4,5.9,2.4,6.1,0.4,4.2c-1.1-1.2-2.9-4.5-3.9-7.4c-1.7-5.1-2.3-5.2-3.1-0.4c-0.3,1.9-0.5,1.8-2.7-0.6
	c-1.9-2.3-2.9-2.6-6-2.2c-3.1,0.4-4.2,0.1-6-1.8c-1.1-1.2-2.1-2.9-2.1-3.6c0-0.8-0.4-1.1-1-0.8c-0.5,0.3-1,1.7-1,3.1
	c0,4.1-1.7,2.6-2.7-2.4l-1-4.7l-0.7,6.7c-0.6,4.8-1.3,6.8-2.2,6.8c-1.1,0-1.4-2.5-1.4-12.4c0-6.8,0.3-13.1,0.6-14
	c0.5-1.3,2.7-1.6,13.4-1.6C408.7,462,410.9,462.3,411.4,463.6z M615.5,464.2c0.3,1.3,0.4,14.2,0.3,28.7c-0.3,30.3-1.6,35.2-3.7,13.9
	c-2-20.7-2.4-22-3.6-10.5c-1,9.8-2.5,12.8-3.6,7.2l-0.6-3l-0.8,2.8c-1.4,5-7.6,6.4-11.3,2.4c-1.1-1.2-2.4-4.2-2.8-6.7
	c-1.3-8.6-4.9-12.4-9.3-10.1c-3.4,1.9-5.8,1.3-6.9-1.7c-1.7-4.3-3.2-10.4-3.3-13.7c-0.1-2.7-0.2-2.6-1,1c-0.4,2.2-0.8,5.9-0.8,8.2
	l-0.1,4.2l-5.3-0.6c-3.5-0.4-7.3,0-11.2,1.1c-5,1.5-7,2.9-15.6,11.3c-5.4,5.3-10.4,10-11.1,10.4c-2.3,1.5-5.7,1-10.8-1.6
	c-6.4-3.3-15.2-4.2-24-2.5c-6.1,1.1-7.2,1.1-9.3-0.3c-1.4-0.9-5.1-1.7-8.3-1.9l-5.9-0.3l-2-6l-2-6l-0.3,6.7l-0.3,6.7l-4.7-0.5
	c-5.9-0.6-10.9,1.8-13.1,6.3c-1.9,3.8-3.1,4.1-5.6,1.3c-1-1.1-4.4-3-7.6-4.1c-3.2-1.2-6.5-2.9-7.3-3.8c-1.3-1.5-0.5-1.6,10.9-1.3
	c12.1,0.4,12.5,0.3,14.9-2.1c2.3-2.3,6.6-13.8,6.6-17.6c0-3.6,1.4-2.9,7.1,3.3c10.8,11.8,22,16.8,37.4,16.8
	c23.7,0.1,40.1-12.2,50.3-37.5l1.2-2.7h31.5H615L615.5,464.2z M669.4,464.5c0.3,0.8,0.1,1.5-0.4,1.5c-0.6,0-1-0.7-1-1.5
	c0-0.8,0.2-1.5,0.4-1.5S669,463.7,669.4,464.5z M764.5,466c0.4,0.6-0.9,1.7-2.9,2.5c-4,1.7-29.1,2-63.9,0.8
	c-15.4-0.5-19.7-0.9-19.7-1.9c0-1.1,7.9-1.4,42.3-1.7c23.2-0.1,42.5-0.3,42.9-0.5C763.6,465.1,764.2,465.5,764.5,466z M836,470.8
	c0,0.5-1.6,2.3-3.6,4c-2.5,2.3-4.2,3-5.8,2.6c-1.4-0.3-2.8,0.2-3.9,1.4c-2.5,2.7-20.5,9.8-21.7,8.6c-0.7-0.7,3.5-3.1,12.7-7.3
	c7.6-3.4,15.4-7.1,17.3-8.1C834.9,469.9,836,469.6,836,470.8z M667.5,476.8c-1.7,1.6-1.7,1.6-1.1-0.8c0.3-1.4,0.6-3.2,0.7-4
	c0-0.9,0.5-0.6,1.1,0.8C669.1,474.7,669,475.4,667.5,476.8z M695,472c4.3,0.5,2.6,0.7-7.5,0.7c-8,0-11.7-0.2-9.5-0.7
	C682.6,471,688.2,471,695,472z M786.7,478.3c-2.4,2.4-4.8,5.8-5.1,7.4c-0.7,2.9-1,3.1-9.6,4.7c-4.8,1-11.4,2.6-14.7,3.7l-5.8,1.9
	l12-0.4c6.6-0.2,13.2-0.9,14.7-1.5c2.1-0.8,2.9-0.7,3.9,0.5c0.6,0.8,1,1.6,0.8,1.9c-0.8,0.7-43,2.6-44,2c-0.5-0.4-0.9-1.4-0.9-2.3
	c-0.2-6.9-8.9-6.8-11.3,0.1c-0.6,1.6-1.4,1.7-7.9,1c-9.1-1-16.7-1-33.4,0.1c-15,1-14.4,1.3-16.5-8.2c-0.8-4-0.7-5.7,0.5-8.6
	c1.7-4.2,3.6-4.7,3.6-1.1c0,1.8,0.7,2.6,2.5,3.1c3.1,0.8,5.7-1.2,5.3-4c-0.3-2.1,0-2.1,16.1-1.9c15.2,0.2,16.5,0.4,17.8,2.3
	c1.8,2.6,4.9,2.6,6.4-0.2c1.1-2.1,1.2-2.1,27.3-1.4c14.3,0.3,27,0.9,28.1,1.1c1.1,0.3,4.7-0.8,8-2.3c3.3-1.6,6.2-2.8,6.4-2.6
	C791.1,473.8,789.2,475.9,786.7,478.3z M855.3,475.4c-2.1,3.6-13.8,12.2-22.9,16.7c-8.3,4.2-11.3,5.2-17,5.7
	c-6.3,0.5-6.8,0.4-5.5-1.1c0.7-1,5-3.5,9.4-5.7c4.5-2.3,8.7-4.6,9.5-5.3c1.7-1.4,24.1-11.4,26-11.6
	C855.6,474,855.8,474.5,855.3,475.4z M520,477c0,1-5.2,4-7.1,4c-1.6,0,1-3,3.6-4C519.2,475.8,520,475.8,520,477z M906.3,478.7
	c4.2,1,7.6,2.2,7.4,2.8c-0.8,2.3-24.4,17.1-39.2,24.5c-8.9,4.4-16.6,8-17.3,8c-2,0-1.4-2.3,2.4-8.6l3.5-5.9l-2.9,2.8
	c-1.7,1.6-4.2,5.6-5.7,8.8c-2.5,5.6-3.8,6.9-4.9,5.1c-0.3-0.4,1-3.9,2.9-7.8c3.2-6.7,10.8-15.7,17-20.3l3-2.2l-3.5,1.7
	c-9.3,4.5-16.8,13.7-20.1,24.6c-1.2,3.7-2.6,6.8-3.1,6.8c-1.8,0,0-5.7,4.6-15.6c6.7-14.1,15.9-22.8,27-25.5
	C883.3,476.5,898.3,476.9,906.3,478.7z M844,496.9c0,1.7-8.1,10-12.8,13c-7,4.5-16.3,7.4-40.9,12.7c-26.5,5.7-32.5,6.3-57.3,5.9
	c-27.8-0.5-40.5-3.6-49.8-11.9c-4.1-3.7-9-13.2-7.5-14.7c0.4-0.4,2.8,0.6,5.3,2.3c7,4.8,16,8.7,24.1,10.5
	c15.8,3.5,54.9,1.7,83.8-3.8c9.9-1.9,36.5-9.1,48.1-13C843.3,495.8,844,495.7,844,496.9z M730,502c6,0.8,10.4,0.8,15,0.1
	c10.3-1.7,16.4-1.4,19.1,0.9l2.4,2l-2.3,1.9c-4,3.5-11.8,4.3-37.5,3.9c-21.8-0.3-24.6-0.5-28.2-2.3c-2.2-1.1-4-2.4-4-3
	c0-1.8,5.8-3.8,13.4-4.4C716.1,500.3,717,500.4,730,502z M834,517.2c0,1.9-1.8,4.3-2.5,3.6c-0.4-0.3-0.2-1.6,0.5-2.7
	C833.2,515.7,834,515.4,834,517.2z M826,525.3c0,0.7-5,2.8-11.8,4.9c-14.3,4.6-18.2,5.4-18.2,4c0-1.2,9.4-7.5,13.5-9
	C813.9,523.7,826,523.7,826,525.3z M793.8,525.7c-0.2,0.5-1.8,3.4-3.6,6.5c-3.4,5.8-4.9,7.5-5.9,6.5c-0.8-0.8,2.7-10.5,4.4-12.2
	C790.2,525,794.4,524.4,793.8,525.7z M758.8,534.2c-3.4,4.9-6,7.8-7.1,7.8c-1.2,0-0.4-1.9,2.8-6.9c1.6-2.6,3.3-4.1,4.5-4.1
	C761,531,761,531.1,758.8,534.2z M719.5,536.7c8.4,2.9,18.6,10.8,17.1,13.2c-1.3,2.1-6.7,1.2-10.5-1.8c-6.9-5.4-12.4-7.3-20.9-7.3
	c-2.6,0.1-5.8,0.5-7.2,1.1c-1.9,0.7-1.2,0.8,3.1,0.4c3.6-0.4,7.5,0,11,1c6.2,1.9,15.6,7.5,14.3,8.6c-1.9,1.6-20.2,4.1-22.9,3.1
	c-4.4-1.7-8.3-1.1-14.3,1.9c-7.6,3.9-14.8,4.7-18.2,2.2l-2.4-1.9l3.5-4.5C684.2,537.1,702.8,530.8,719.5,536.7z M766.3,535.5
	c-0.3,1.3-5.3,2-5.3,0.7c0-1.5,1.3-2.3,3.5-2C765.6,534.4,766.4,534.9,766.3,535.5z M767.5,542.9c-0.6,0.5-2.8,1.2-5,1.6
	c-3.7,0.6-3.9,0.5-2.1-0.9C762.5,541.9,769.1,541.3,767.5,542.9z M668.9,559.9c0.7,0.5,0.9,1.1,0.5,1.4c-1.3,0.7-13.4,2-13.4,1.3
	c0-0.3,1.2-1.2,2.8-2C661.8,558.9,666.8,558.6,668.9,559.9z"/>
<path d="M625,319c-8,0.3-14.3,0.7-14,0.9c0.3,0.3,7.5,0.7,16,1l15.5,0.6l-4.5,2.4c-4.8,2.5-14.9,8.9-16.5,10.4
	c-0.5,0.5,6.4-2.8,15.5-7.3c9.1-4.5,16.7-8.4,16.9-8.6C654.4,318,646.9,318.1,625,319z"/>
<path d="M443.3,326.9c-10.5,4.2-19.4,7.9-19.8,8.3c-0.3,0.3,12.6,0.4,28.7,0.1l29.3-0.6l18.4-6.3c18.2-6.3,22.8-8.3,16.2-7
	c-1.8,0.3-9.5,0.7-17,0.8c-13.5,0.2-13.6,0.2-4.1,0.8c6.6,0.4,8.9,0.8,7.5,1.4c-20.9,9.1-20.2,8.9-41.2,7.9
	c-12.5-0.7-18-1.3-16.3-1.8c1.4-0.5,6.1-2.8,10.5-5.1l8-4.2l26.5-0.9l26.5-1h-27l-27-0.1L443.3,326.9z"/>
<path d="M541.5,334.9c-2.7,0.6,1.5,0.9,12.5,1c9.1,0.1,22.4,0.3,29.5,0.6c9.9,0.3,12.2,0.2,9.5-0.6
	C588.7,334.6,547,333.9,541.5,334.9z"/>
<path d="M392,374.1c0,11.8,0.4,21.9,0.8,22.6c0.6,0.9,7.6,1,31.2,0.2c16.8-0.5,31.4-1.1,32.5-1.3c1.1-0.2-5.4-0.5-14.5-0.6
	c-9.1-0.2-18.3-0.4-20.5-0.5c-2.2-0.1-8.8-0.2-14.8-0.3L396,394l0.2-18.3l0.3-18.2L429,357c17.9-0.3,33.1-0.3,33.8-0.1
	c0.8,0.2,1.2,2.8,1.3,8c0.1,4.2,0.4,11.4,0.8,16.1c0.6,7.9,0.7,7.2,1.2-9c0.3-9.6,0.5-17.7,0.3-17.9c-0.2-0.2-17-0.6-37.4-0.9
	l-37-0.5V374.1z"/>
<path d="M575.4,355.4c-1,2.6,0.4,4.8,2.8,4.4c1.7-0.2,2.3-1,2.3-2.8c0-1.8-0.6-2.6-2.3-2.8C576.9,354,575.7,354.5,575.4,355.4z"/>
<path d="M610.6,363.2c-1.2,9.8-1.9,42.2-1.1,55.1c0.4,7.1,0.8,12.7,1,12.5c0.5-0.5,1.8-72.8,1.3-72.8
	C611.5,358,611,360.4,610.6,363.2z"/>
<path d="M533.2,374.7l0.3,12.8l3.5,0.3c3.8,0.4,54.3-0.8,53.8-1.3c-0.3-0.3-13.9-1.2-21.3-1.5c-2.6-0.1-2.7-0.3-1-1
	c1.1-0.5,4-0.9,6.4-0.9c2.4-0.1,4.2-0.3,3.9-0.6c-0.5-0.5-32.9-0.6-38.8-0.2c-2.5,0.2-2.5,0.1-2.8-8.1l-0.3-8.2h7.8
	c4.3,0,17.8-0.3,30.1-0.7l22.2-0.6l0.1,4.4c0,2.4,0.4,6.6,0.9,9.4c0.6,4.2,0.8,3.3,0.9-5.8L599,362h-33h-33.1L533.2,374.7z"/>
<path d="M440.4,365.4c-12.2,5.4-9.9,22.2,3.3,24.1c6.9,1.1,13.6-5,13.6-12.5C457.3,368.3,448.2,362,440.4,365.4z M449.8,369
	c3.5,2.2,3.9,3.2,1.8,4.9c-0.7,0.6-2.6,3.8-4,7.2c-2.4,5.2-3,5.9-4.9,5.3c-3.3-1-6.5-4.3-7.2-7.5c-0.9-3.8,1.9-8.7,5.8-10.4
	C445.5,366.6,445.9,366.7,449.8,369z M454.4,378.7c-0.6,3.1-4.9,8.2-5.9,7.1c-0.3-0.3,0.7-3.1,2.1-6.2
	C453.3,373.6,455.5,373.1,454.4,378.7z"/>
<path d="M444.6,375.4c-2.6,5.5-1.8,7.7,0.9,2.6c2.7-5,2.9-6,1.6-6C446.6,372,445.5,373.5,444.6,375.4z"/>
<path d="M410.7,366.2c-2.8,2.2-3.2,6.3-0.8,8.7c2.9,2.9,6.5,2.7,9-0.6c3.2-4,0.7-9.3-4.4-9.3C413.3,365,411.6,365.6,410.7,366.2z
	 M416.5,371c0,1.6-0.6,2.6-1.8,2.8c-1.9,0.4-3.2-2-2.3-4.4C413.3,366.9,416.5,368.1,416.5,371z"/>
<path d="M584.5,367.6l-7,1.1l6,0.4c5.2,0.3,6,0.7,6,2.4c0,1.7-0.8,2-5.9,2.3c-4.6,0.2-6.1-0.1-7.2-1.5c-1.4-1.7-1.4-1.6-1.2,0.7
	c0.3,2.4,0.6,2.5,8.1,2.8c8.6,0.3,9.1,0,8.5-5.9l-0.3-3.4L584.5,367.6z"/>
<path d="M409.7,378.7l-9.8,0.4l0.3,6.2l0.3,6.2l11.4,0.3c7.5,0.2,11.8-0.1,12.7-0.9c0.9-0.7,1.4-3.2,1.4-7V378l-3.2,0.2
	C421,378.3,415.1,378.6,409.7,378.7z M419.2,384.5c0.3,4.3,0.2,4.5-2.4,4.5c-2.5,0-2.6-0.3-2.6-4.5c0.1-4,0.4-4.5,2.4-4.5
	C418.5,380,418.8,380.6,419.2,384.5z M423.8,385.1c-0.2,1.9-0.7,3.3-1.3,3.2c-1.2-0.3-1.9-4.9-1-7.1
	C422.5,378.6,424.2,381.4,423.8,385.1z"/>
<path d="M603.1,411.2c-0.1,8.1,0.3,13.9,0.9,14.3c1.2,0.8,1.2-23.1,0-26C603.5,398.2,603.1,402.6,603.1,411.2z"/>
<path d="M389.2,425c0,11.3,0.4,21.8,0.8,23.5c0.4,1.7,0.8-6.6,0.8-18.5c0-11.8-0.3-22.4-0.8-23.5C389.5,405.3,389.2,412.7,389.2,425
	z"/>
<path d="M596.7,407.6c-1,1-0.9,10.6,0.2,12.3c0.6,1,1.1,0.2,1.5-2.5C599,413.1,597.9,406.4,596.7,407.6z"/>
<path d="M158.5,351.8c-0.7,0.7-0.6,7.7,0.1,9.6c0.5,1.3,2.6,1.6,13,1.6H184v-4.3c0-2.3-0.4-4.7-0.8-5.3
	C182.5,352.3,159.6,350.8,158.5,351.8z M180.8,358.2c0.3,1.6-0.7,1.8-9.8,1.8c-7.7,0-10.1-0.3-9.8-1.3c0.6-1.6,5.8-2.5,13.3-2.3
	C179.3,356.5,180.5,356.8,180.8,358.2z"/>
<path d="M157,380.4c0,14.9,0.2,15.1,15.6,14.7c6.5-0.1,12.2-0.5,12.6-0.7c1-0.6,1-11.9,0.2-19.2l-0.7-5.2h-13.8H157V380.4z
	 M168,373.6c0,0.4-1.3,2.2-3,4.1c-1.6,1.8-3,4.5-3,5.8c0,1.3-0.4,2.7-1,3c-1.1,0.7-1.4-11.7-0.3-12.8
	C161.5,372.8,168,372.8,168,373.6z"/>
<path d="M697.5,370.2c-2.1,6.5-4.8,10.4-8.9,12.9c-2.9,1.8-3,1.9-0.7,1.9c1.4,0,3.9-1.5,6.1-3.8c2.9-2.9,4-5,5-9.5
	C700.5,364.2,699.8,363.4,697.5,370.2z"/>
<path d="M901.1,387.2c4,14.2,18.4,28.5,31.4,31.3c1.8,0.4,0.4-0.7-3.5-2.7c-8.9-4.5-20.4-16.1-24.9-25.1c-1.9-3.7-3.5-6.7-3.7-6.7
	C900.3,384,900.6,385.5,901.1,387.2z"/>
<path d="M922,403.6c0,1.7,2.4,4.6,5,5.9c3.9,2,3.8,0.7-0.3-3.3C923.6,403.2,922,402.3,922,403.6z"/>
<path d="M771.5,359c-2.2,0.3-4.9,1.1-5.9,1.7c-1.5,0.8-0.3,0.9,5,0.6c5.1-0.4,8-0.1,10.9,1.1l4,1.7l-2-2.1
	C780.8,359.4,776.5,358.3,771.5,359z"/>
<path d="M105.6,400.1c1,10.7-3.7,27.9-9.3,34.1c-0.9,1-1.4,2-1.1,2.3c0.9,0.9,8-9.5,10-14.7c2.7-7.2,3.3-17.1,1.4-22.8l-1.6-4.5
	L105.6,400.1z"/>
<path d="M100.4,414.6c-0.4,1-2.7,5-5.1,8.8c-2.4,3.7-4.2,7-4,7.3c1,1,8.8-9.3,9.8-12.9C102.2,413.7,101.6,411.2,100.4,414.6z"/>
<path d="M118,454.9c7.9,2.6,13.7,7.9,17,15.3c1.1,2.7,2.2,4.8,2.4,4.8c0.2,0,0-1.9-0.6-4.2c-2-9-8.8-15.6-17-16.4
	C116.5,454.1,116.1,454.2,118,454.9z"/>
<path d="M129,470.5c2.8,6.5,4.5,8.2,3.5,3.5c-0.4-1.9-1.8-4.6-3.1-6l-2.5-2.5L129,470.5z"/>
<path d="M210.1,432.6c0,1.1,0.3,1.4,0.6,0.6c0.3-0.7,0.2-1.6-0.1-1.9C210.3,430.9,210,431.5,210.1,432.6z"/>
<path d="M420.1,416.5c-2.1,6.7-4.7,24.2-3.8,25.2c0.3,0.2,0.8-2.2,1.1-5.4c0.4-3.2,1.7-10.3,3-15.8c1.3-5.5,2.2-10.2,2-10.3
	C422.3,410,421.2,412.8,420.1,416.5z"/>
<path d="M419.6,431.7c-0.3,2.1-0.5,8.1-0.4,13.3l0.1,9.5l0.7-13c0.5-7.2,0.7-13.1,0.5-13.3C420.4,428.1,420,429.6,419.6,431.7z"/>
<path d="M451.2,434c0,1.4,0.2,1.9,0.5,1.2c0.2-0.6,0.2-1.8,0-2.5C451.4,432.1,451.2,432.6,451.2,434z"/>
<path d="M139.4,411c2.3,3.5,2,8.9-0.6,11.7c-1.2,1.3-1.9,2.3-1.5,2.3c0.3,0,1.5-1,2.7-2.2c2.7-2.9,2.7-8.8-0.1-11.9l-2.1-2.4
	L139.4,411z"/>
<path d="M535.3,435c1.1,2.7,2.3,4.8,2.5,4.6c0.4-0.5-3.5-9.6-4.2-9.6C533.4,430,534.1,432.2,535.3,435z"/>
<path d="M538.1,442.6c0,1.1,0.3,1.4,0.6,0.6c0.3-0.7,0.2-1.6-0.1-1.9C538.3,440.9,538,441.5,538.1,442.6z"/>
<path d="M539.3,451c0,3.6,0.2,5,0.4,3.2c0.2-1.7,0.2-4.7,0-6.5C539.5,446,539.3,447.4,539.3,451z"/>
<path d="M538.1,459.6c0,1.1,0.3,1.4,0.6,0.6c0.3-0.7,0.2-1.6-0.1-1.9C538.3,457.9,538,458.5,538.1,459.6z"/>
<path d="M537.1,463.6c0,1.1,0.3,1.4,0.6,0.6c0.3-0.7,0.2-1.6-0.1-1.9C537.3,461.9,537,462.5,537.1,463.6z"/>
<path d="M731.7,429.7c-3.4,0.3-7.1,1.2-9,2.3c-2.1,1.3-5.3,2-9.2,2.2c-4.1,0.1-4.9,0.3-2.5,0.6c1.9,0.2,8.7-0.1,15-0.8
	c18-1.8,20.6-1.8,28.3-0.4c4,0.8,8.6,1.4,10.2,1.3c1.7,0-1.3-0.9-6.5-1.9s-10.8-2.3-12.3-2.9c-1.6-0.6-4-1-5.5-0.9
	C738.7,429.3,734.9,429.5,731.7,429.7z"/>
<path d="M915,446.2c-5.3,3.6-8.2,10.1-7.8,17.1c0.3,3.1,0.9,6.2,1.5,6.8c0.7,0.7,0.9-0.5,0.5-4.1c-0.6-6.3,1.8-12.8,6.6-18.2
	C919.8,443.4,919.6,443.1,915,446.2z"/>
<path d="M915.7,459.9c-2.1,3.5-2.2,8-0.3,10.6c1.2,1.7,1.4,1.1,1.8-5.6c0.3-4.1,0.4-7.5,0.3-7.6
	C917.5,457.2,916.6,458.4,915.7,459.9z"/>
<path d="M520.1,450.2c-1,2.4-2.1,6.3-2.4,8.8c-0.5,4.3-0.5,4.4,0.5,1c0.5-1.9,1.8-5.9,2.8-8.8C523.1,444.9,522.6,444.3,520.1,450.2z
	"/>
<path d="M521.1,458.6c0,1.1,0.3,1.4,0.6,0.6c0.3-0.7,0.2-1.6-0.1-1.9C521.3,456.9,521,457.5,521.1,458.6z"/>
<path d="M502.6,465.4c1,0.8,2.1,1.2,2.4,1c0.5-0.6-2.1-2.4-3.4-2.4C501,464,501.5,464.6,502.6,465.4z"/>
<path d="M205.5,467.8c7.6,3.7,17.7,12.9,22.7,20.7c4.3,6.9,5,5.9,1.2-1.7c-4.9-9.7-16.9-19.4-26.4-21.2
	C200.2,465,200.7,465.4,205.5,467.8z"/>
<path d="M217,482.6c0,0.9,7.9,11.4,8.6,11.4c1,0-0.8-4.4-2.8-6.9C220.7,484.3,217,481.5,217,482.6z"/>
<path d="M281,484.5c-7.9,2.3-13.7,5.4-18.9,10.4c-4.3,4-4.3,4.1-0.8,1.7c13.4-9.6,32.5-13.5,48.7-10.1c1.4,0.3,0.7-0.2-1.5-1.1
	C302.8,483.1,287.9,482.6,281,484.5z"/>
<path d="M289.9,491c-5.3,0.9-12.6,3.9-17,7.1c-4,2.8-3.1,3.5,1.2,1c5-2.8,15.4-5.8,23.9-6.7c7.2-0.7,7.3-0.8,3.5-1.5
	C296.8,490,296,490,289.9,491z"/>
<path d="M375.5,504.6c-5.5,1.9-10.9,6.6-14.1,12c-3.1,5.2-2.6,7.1,0.4,2.2c4.2-6.7,12.8-12.2,22.6-14.3l6.1-1.3H385
	C382,503.2,377.7,503.8,375.5,504.6z"/>
<path d="M543.8,514.2c-6.2,5.8-9.8,15.8-8,22.3c0.8,2.7,0.9,2.5,1.6-2.9c0.8-7.5,3.4-13.2,8.1-18.5
	C549.9,510.2,548.9,509.6,543.8,514.2z"/>
<path d="M651,520.7c5.8,1.4,7.1,2.2,12.7,7.9c4.8,4.9,6,5.7,5.2,3.6c-3-8-10.9-13.3-19.5-13.1l-4.9,0.1L651,520.7z"/>
<path d="M459.7,522c-6,1.9-13.7,9.9-13.7,14c0.1,1,0.4,0.9,1.2-0.5c4-7.4,11.7-11.8,20.5-11.9c3.4-0.1,5.8-0.4,5.4-0.9
	C471.9,521.5,462.8,521,459.7,522z"/>
<path d="M753.6,483.6c-0.9,0.8-1.6,2.2-1.6,2.9c0,2,2.8,4.5,5,4.5c2,0,5-2.5,5-4.1C762,482.5,756.7,480.5,753.6,483.6z"/>
<path d="M693.6,484.3c-2.6,1.9-1.3,5.7,1.9,5.7c2.8,0,4.3-3.4,2.5-5.5C696.5,482.7,695.9,482.6,693.6,484.3z"/>
<path d="M346.8,313.4c-8.9,3.2-15.7,11.8-15.8,19.6c0,4.9,3.7,11.8,8.3,15.4c3.2,2.6,4.9,3.1,10.5,3.4c6.2,0.4,7,0.2,11.7-3
	c6.8-4.5,9.8-10.3,9.3-18.1C369.9,318.2,357.7,309.3,346.8,313.4z M360.5,321.3c5.4,5.4,6.6,10,3.9,15.9c-5.3,11.9-21,12.9-27.3,1.8
	c-5.8-10.4,1.4-21.9,13.8-22C355.9,317,356.6,317.3,360.5,321.3z"/>
<path d="M358.5,326c2.3,4.4,1.9,9.3-1.1,13.2l-2.6,3.3l3.1-3.3c2.3-2.4,3.1-4.2,3.1-6.8c0-3.2-2.3-9.4-3.6-9.4
	C357.2,323,357.6,324.3,358.5,326z"/>
<path d="M115.2,354.5c-1.6,1.4-3.3,3.6-3.6,5c-1,4,1.7,8.9,5.9,10.9c7.5,3.6,14.5-1.2,14.5-9.9C132,352.5,121.8,348.9,115.2,354.5z
	 M125.1,356c2.2,1.2,2.7,6.8,0.7,8.8c-1.7,1.7-6.4,1.5-8.2-0.4c-1.6-1.5-2.2-7.5-0.9-8.7C117.7,354.6,122.9,354.9,125.1,356z"/>
<path d="M123.6,361.7c-0.6,1.4-0.5,1.5,0.5,0.6c0.7-0.7,1-1.5,0.7-1.8C124.5,360.2,123.9,360.7,123.6,361.7z"/>
<path d="M972.6,546.3l-7.9,2.2l-2.3,10.1c-3.3,14.9-5.9,23.7-7.1,24.1c-0.6,0.2-2.6-6-4.8-14.7c-2.1-8.5-4.2-15-4.9-15
	c-1.8,0-35.7,7.8-36.2,8.3c-0.3,0.3,1.7,5,4.5,10.4c2.7,5.5,7.3,15.5,10.1,22.1c5.7,13.5,6.2,16.8,7.6,49.9l0.7,16.3h13.2h13.2
	l0.7-17.8c1.6-39.3,1.3-37.5,11.9-67.2c11-30.8,11.1-31,10-30.9C980.9,544.1,976.9,545.1,972.6,546.3z"/>
<path d="M33.5,548.1c-10.1,2.3-15.6,11.8-15.8,26.9c-0.1,15.3,3,23.7,14.3,38.5c7.7,10.1,9,12.8,9,18.9c0,6.2-2.4,8-9.5,7.3
	c-3.1-0.3-5.5-0.2-5.5,0.4c0,3.5,3.4,19.5,4.2,20.1c1.9,1.1,11.7,2,15.1,1.3c5.1-1.1,11.1-5.1,13.9-9.2c6.4-9.4,6.4-19.5-0.1-34.5
	c-4.8-11.4-5.2-15.8-1.5-19.4c2.5-2.6,3.9-2.7,8.9-0.8c1.5,0.6,1.6-0.1,1.1-6.2c-0.3-3.8-0.8-13.5-1.2-21.6l-0.6-14.6l-5.6-2.5
	C49.3,547.9,40.6,546.4,33.5,548.1z"/>
<path d="M71.6,570.6c0.2,7.7,0.7,17.2,1,21.1l0.6,7.3h6.6c3.7,0,7.3,0.4,7.9,0.8c1.2,0.8,1.6,5.3,4.1,48.2l0.7,12.5H105h12.5l0.7-23
	c0.5-12.7,1.1-25.4,1.4-28.4l0.6-5.3l4.1,0.6c2.3,0.3,5.8,0.8,7.8,1.2l3.6,0.6l0.6-17.8c0.3-9.9,0.4-18,0.3-18.2
	c-0.3-0.2-56.4-11.8-62.8-12.9l-2.7-0.5L71.6,570.6z"/>
<path d="M858.5,569c-4.9,1.1-12.1,2.8-16,3.8l-7,1.8v7c0,3.8,0.4,23.2,0.9,43.1l0.9,36.3h14.8H867v-9.4c0-5.2,0.4-9.7,0.9-10
	c0.5-0.3,3.5,4.6,6.6,10.9c3.1,6.3,6.3,11.9,7,12.5c0.9,0.8,4-0.4,11.9-4.5l10.6-5.6l-4.8-5.7c-2.6-3.2-6.2-8.1-8.1-11l-3.3-5.2
	l5.4-5.3c9.7-9.3,14-22.7,11.9-36.7c-1.8-11.1-5.8-17.3-14.1-21.6C885.6,566.7,869.8,566.5,858.5,569z M879.5,608.5
	c4.7,4.6,2.6,13.5-4,17.1c-3.7,2-7,1.6-6.9-0.9c0-0.9,0.1-5.5,0.2-10.2l0.2-8.5h4C876,606,877.7,606.7,879.5,608.5z"/>
<path d="M140.4,574.2c0.3,1.8,0.8,8.2,1.1,14.3c0.8,14.7,3.3,37.4,5,45.7c2.9,14.2,9.3,22.6,20.4,27c7.7,2.9,26.1,3.2,37.4,0.4
	l7.7-1.9l0.2-34.3c0.1-18.9,0.2-36.3,0.3-38.6v-4.3l-12.3-1.9c-6.8-1-12.5-1.6-12.8-1.4c-0.2,0.3,0,5.6,0.6,11.9
	c1.3,14.4,3,56,2.4,57.1c-0.3,0.4-2.2,0.8-4.3,0.8c-4.9,0-8.7-2.9-10.2-7.8c-0.6-2.2-1.3-16-1.6-34.3l-0.6-30.6l-15.6-2.6
	c-8.6-1.5-16.2-2.7-16.9-2.7C140.3,571,140.1,572,140.4,574.2z"/>
<path d="M782.5,581.7c-8.7,1.3-23.1,4.5-23.9,5.3c-0.8,0.8,1.2,74,2.1,75c0.3,0.3,8,0.5,17.1,0.5c19.3,0,25.3-1.3,34.3-7.4
	c11.1-7.7,16.9-20.2,16.9-36.6c0-13.7-2.6-21.5-9.4-28.1c-3.3-3.2-7.1-5.7-10.2-6.8C804.5,581.8,788.6,580.7,782.5,581.7z
	 M801.5,615.6c9.2,4.3,8.3,22.6-1.5,29c-2.1,1.4-5,2.6-6.6,2.7l-2.9,0.2l0.4-16c0.2-8.8,0.5-16.3,0.8-16.8
	C792.4,613.5,798.1,613.9,801.5,615.6z"/>
<path d="M217,583.6c0,0.3,2.2,4.2,4.8,8.7c2.7,4.5,7.6,13.4,11,19.7l6.1,11.5l1.5,15.3c0.9,8.4,1.6,17,1.6,19.2v4h13.4h13.4l0.6-6.3
	c0.3-3.4,0.8-11.6,1.2-18.2c0.7-13.6,0.4-12.9,12.3-31.9c4.5-7.1,8.1-13,8.1-13.1c0-0.2-13.2-1.6-16.7-1.7
	c-0.9-0.1-1.4,0.9-5.4,11.5c-1.9,4.8-3.8,8.6-4.4,8.4c-0.5-0.2-2.8-5.3-5.1-11.3l-4.1-10.9l-15.4-2.2c-8.5-1.2-17.1-2.4-19.1-2.7
	C218.7,583.2,217,583.2,217,583.6z"/>
<path d="M718.1,591.2l-7.4,1l0.7,7.3c0.4,4.3,0.3,7.6-0.3,7.9c-0.5,0.3-4.5-2-8.9-5.3c-11.4-8.4-10-8.1-24.7-6.8l-13,1.2l0.2,4
	c0.2,2.2,0.7,11,1.3,19.5c0.5,8.5,1.2,21.7,1.6,29.3l0.6,13.8l8.2-0.3l8.1-0.3l0.6-11.3c0.3-6.2,0.8-11.5,1.1-11.7
	c0.7-0.7,17.9,9.2,29.1,16.7c4.9,3.3,9.1,5.7,9.5,5.3c0.3-0.3,0.9-7.7,1.4-16.3c0.7-16.9,2.5-41.4,3.4-50
	C730.3,589.2,731.2,589.5,718.1,591.2z"/>
<path d="M319.7,603.2c4.8,11.3,15.4,37.7,19.3,48.5c1.8,4.8,3.7,9.4,4.3,10c0.6,0.9,3.8,1.3,9.2,1.3s8.6-0.4,9.2-1.3
	c0.5-0.6,3.2-7.2,5.9-14.5c2.7-7.2,5.3-13.1,5.8-12.9c0.6,0.2,3.1,6.6,5.7,14.3l4.8,13.9l9.3,0.3l9.4,0.3l5.7-15.1
	c3.2-8.2,8.9-21.8,12.7-30.2c3.8-8.3,6.9-15.3,6.7-15.4c-0.1-0.1-4-0.4-8.7-0.6l-8.5-0.5l-4.4,13.8c-2.5,7.7-4.7,13.9-5.1,13.9
	c-0.3,0-2.2-6.3-4-14c-2.4-9.6-3.9-14.1-5-14.4c-0.8-0.3-8.1-0.8-16.2-1.2l-14.7-0.6l3,8.3c3.2,8.8,3.2,10.8,0.4,17.6
	c-1.5,3.5-1.7,3.6-2.7,1.8c-0.6-1.1-3-7.7-5.3-14.8c-2.4-7-4.5-13.1-4.9-13.4c-0.5-0.6-27.1-3.1-33.3-3.3
	C316.1,595,316.1,595.2,319.7,603.2z"/>
<path d="M614.3,599.9c-5.6,0.3-10.5,0.9-10.9,1.3c-0.4,0.4-0.2,8.9,0.5,18.9c0.6,10,1,18.3,0.8,18.6c-0.2,0.2-3.5,0.6-7.2,1
	l-6.8,0.6l0.6-11.4c0.4-6.3,1-15.1,1.3-19.6l0.7-8.2l-15.4,0.5c-8.5,0.3-16.7,0.7-18.4,0.8l-3,0.3l0.4,6.4c0.2,3.5,0.8,17,1.5,29.9
	l1.1,23.5l14.8,0.3c8.1,0.1,14.7,0.1,14.7,0c0-0.2,0.3-4.4,0.7-9.3c0.5-8.5,1.1-11.2,1.9-9c0.2,0.5,1.3,2.4,2.4,4.2l1.9,3.2l4.2-1.4
	c2.3-0.8,4.3-1.5,4.5-1.5c0.2,0,0.4,2.4,0.4,5.4c0,8.9-0.5,8.6,14,8.6h12.9l0.5-4.3c0.3-2.3,1.2-15,2.1-28.2
	c0.9-13.2,1.8-25.7,2.2-27.8l0.6-3.7l-6.4,0.2C627.4,599.3,619.9,599.6,614.3,599.9z"/>
<path d="M525,602.1c-16.7,1.6-25,7.6-25,18.2c0,6.3,3.1,10.2,13.5,17.2c10.5,7,12.6,10.4,8.5,13.7c-2,1.6-3.6,1.9-8.3,1.6
	c-4.2-0.3-5.7-0.1-5.3,0.8c0.2,0.6,1,3,1.7,5.3c1.1,3.7,1.5,4.1,5.6,4.7c11.5,1.7,24.3-1.8,28.7-7.9c3.4-4.6,2.7-9.3-2.3-16.4
	c-3.4-4.7-4.2-6.7-3.7-8.6c0.7-3,6-5.1,10-4.1l2.5,0.6l-0.5-8.9c-0.8-13.6-1.2-15.2-3.7-15.7C542.1,601.6,532.2,601.4,525,602.1z"/>
<path d="M446.6,604.2c-0.2,0.7-1.6,6.2-3.1,12.3c-1.5,6-5.2,18.5-8.1,27.6c-3,9.2-5.4,17.1-5.4,17.8c0,0.7,2.5,1.1,7.1,1.1h7
	l1.5-3.5c0.8-1.9,1.8-3.5,2.2-3.5c0.4,0,1.6,1.6,2.6,3.5c1.1,1.9,2.4,3.5,3,3.5c0.6,0,3.3-1.1,6-2.5c6.2-3.1,7.4-3.1,8.2,0l0.6,2.5
	h14.4c7.9,0,14.4-0.3,14.4-0.6c0-0.3-3.1-10.3-7-22.3c-3.8-11.9-7.9-25-9.2-29.1l-2.3-7.5l-15.8-0.3
	C450.6,603,446.9,603.2,446.6,604.2z M460.7,643.6c1.7,3.2,2.8,6.3,2.3,6.8c-1.1,1.1-14,2.1-14,1.1c0-2.2,6.5-14.5,7.4-14.2
	C457,637.5,458.9,640.3,460.7,643.6z"/>
</svg>
