<?xml version="1.0" encoding="utf-8"?>
<!-- Generator: Adobe Illustrator 26.0.1, SVG Export Plug-In . SVG Version: 6.00 Build 0)  -->
<svg version="1.1" id="Layer_1" xmlns="http://www.w3.org/2000/svg" xmlns:xlink="http://www.w3.org/1999/xlink" x="0px" y="0px"
	 viewBox="0 0 1000 940" style="enable-background:new 0 0 1000 940;" xml:space="preserve">
<style type="text/css">
	.st0{fill:#FFFFFF;}
</style>
<g transform="translate(0.000000,940.000000) scale(0.100000,-0.100000)">
	<path class="st0" d="M4821,7001c-12-8-11-13,9-29c22-18,23-22,11-51c-8-17-19-31-25-31s-27,25-46,55c-32,51-38,55-73,55h-39l46-63
		c38-54,45-72,48-118c3-53,4-54,36-57l33-3l-2,55c-2,48,1,60,23,84c40,42,51,69,38,92C4869,7011,4844,7016,4821,7001z"/>
	<path class="st0" d="M5122,6890c-1-66,1-121,5-121c54-8,58-5,61,44c4,54,19,69,95,88c51,12,72,36,62,69c-7,24-23,27-135,34l-85,5
		L5122,6890z M5264,6968c14-23,2-42-41-69l-33-21v57v56l31-3C5239,6986,5258,6977,5264,6968z"/>
	<path class="st0" d="M4535,6991c-38-7-39-7-10-12c42-6,46-40,7-68c-46-33-54-28-50,29l3,50h-37h-38l6-77c11-160,11-163,46-163h31
		l-5,49c-6,59,2,76,30,67c14-5,26-24,37-56c18-53,41-68,75-50c20,11,20,13,6,29c-9,10-16,22-16,28c0,20-42,63-61,63
		c-29,0-23,17,9,25c36,9,72,33,72,48C4639,6988,4602,7002,4535,6991z"/>
	<path class="st0" d="M5376,6939c-3-34-6-88-6-119v-57l53-7c28-3,73-6,98-6c40,0,48,3,53,23c11,43,6,47-31,21c-77-52-113-45-113,20
		c0,56,25,79,71,66c31-9,59-4,59,10c0,12-65,22-95,14c-26-6-26-5-23,37s4,44,33,41c17-2,45-12,63-23c41-24,42-24,42,0
		c0,27-3,28-106,35l-91,7L5376,6939z"/>
	<path class="st0" d="M4192,6973c-52-4-53-5-48-31c3-15,8-70,12-122l6-96l69,7c89,10,101,14,129,44c30,32,33,109,6,150
		c-18,28-73,56-103,53C4253,6977,4221,6975,4192,6973z M4293,6933c36-72,26-166-19-183c-49-19-49-18-59,118l-7,92h36
		C4273,6960,4282,6955,4293,6933z"/>
	<path class="st0" d="M5700,6977c0-2-20-53-45-113c-48-116-50-124-35-124c6,0,10,8,10,19c0,28,20,38,70,36c41-3,45-5,53-34
		c6-26,12-31,38-31s31,3,26,20c-3,11-16,64-28,118c-13,53-28,100-34,104C5745,6980,5700,6983,5700,6977z M5726,6875
		c8-31,13-59,10-62c-2-3-22-2-44,2l-40,6l20,52C5704,6958,5705,6958,5726,6875z"/>
	<path class="st0" d="M4095,6923c3-21,8-48,11-60c7-37-18-27-80,32c-47,45-62,54-82,49c-13-3-24-7-24-8c3-42,30-229,34-234
		c8-8,7,22-4,98c-5,35-7,66-5,68c6,6,132-97,149-123c26-40,39-31,32,23c-3,26-8,80-12,120c-3,39-10,72-15,72
		C4093,6960,4092,6944,4095,6923z"/>
	<path class="st0" d="M5925,6946c-121-52-75-237,58-240c31-1,51,5,66,18c24,22,28,68,6,86c-12,10-13,6-8-23c4-27,1-39-16-56
		c-28-28-56-27-87,4c-24,24-25,30-19,88c8,78,22,115,47,122c20,7,49-10,45-27c-1-5,5-15,14-21c13-8,23-7,43,6c14,10,26,21,26,25
		c0,6-115,33-137,32C5958,6959,5941,6953,5925,6946z"/>
	<path class="st0" d="M3874,6908c3-18,8-63,12-101c6-57,4-70-11-87c-10-11-28-20-40-20c-40,0-58,34-69,131l-10,91l-30-6
		c-16-4-31-8-33-9c-2-3,8-76,22-164c8-44,51-67,110-58c71,10,79,27,70,150c-4,60-11,105-17,105S3870,6927,3874,6908z"/>
	<path class="st0" d="M6115,6849c-5-46-9-100-9-119c-1-38-11-34,140-54l51-6l10,35c13,41,11,42-25,15c-31-23-91-35-109-23
		c-8,6-10,24-5,58l7,50l55,1c70,0,78,2,60,14c-8,5-36,10-62,10c-52,0-59,11-38,64c8,23,12,24,42,15c18-5,45-18,61-29l27-21v24
		c0,28-16,33-130,43l-67,7L6115,6849z"/>
	<path class="st0" d="M3526,6881c-3-5-13-60-22-122c-8-62-18-117-21-122s0-8,8-5c8,2,15,18,17,35c3,28,6,31,50,36c46,6,64-3,75-36
		c1-5,16-7,35-2l32,7l-58,109c-51,97-60,109-84,109C3543,6890,3529,6886,3526,6881z M3568,6795c32-65,29-75-17-75h-40l5,38
		C3529,6856,3536,6861,3568,6795z"/>
	<path class="st0" d="M6601,6825c-59-50-65-138-12-189c52-50,140-44,180,13c61,88,8,201-94,201C6643,6850,6624,6843,6601,6825z
		 M6724,6818c13-20,13-32,0-93c-19-97-29-115-58-115c-24,0-56,23-56,40c0,22,31,153,40,171C6665,6847,6706,6845,6724,6818z"/>
	<path class="st0" d="M3237,6833c-11-3-16-11-13-21c3-9,12-55,21-102c25-131,15-120,93-103c36,7,77,20,89,29c28,18,30,53,3,87
		c-11,14-20,30-20,36s-6,11-14,11c-24,0-29-39-11-81c21-45,9-69-31-69c-26,0-35,22-55,148C3287,6842,3284,6845,3237,6833z"/>
	<path class="st0" d="M6845,6788c-48-201-48-217,1-218c18,0,22,8,28,50c8,56,32,78,65,60c24-12,71-13,71-1s-36,21-83,21
		c-32,0-37,3-33,18c3,9,8,29,12,45c3,15,8,27,10,27c16,0,83-35,101-52l23-21v26c0,22-6,28-38,37c-33,8-138,30-148,30
		C6852,6810,6848,6800,6845,6788z"/>
	<path class="st0" d="M2968,6775c-3-3,2-30,10-60s13-58,10-61c-5-4-81,42-133,80c-6,5-23,6-37,3l-24-6l29-116c17-63,32-113,35-111
		c2,3-3,37-13,76s-15,73-12,76c7,8,119-61,146-90c26-28,57-35,48-12c-3,7-15,60-27,117C2977,6781,2976,6783,2968,6775z"/>
	<path class="st0" d="M2648,6693c-23-6-27-26-30-154c-2-73,0-105,8-102c6,2,8,17,6,33c-4,25,0,30,24,35c16,3,38,11,48,17
		c15,8,22,7,33-8c7-10,13-22,13-27c0-9,58-2,67,7c8,7-130,206-141,205C2670,6698,2657,6696,2648,6693z M2679,6604c35-51,39-74,14-74
		c-10,0-28-3-40-6c-20-6-23-3-23,22c0,32,11,104,16,104C2647,6650,2662,6630,2679,6604z"/>
	<path class="st0" d="M7277,6593c-21-60-37-111-37-115c0-16,20-7,20,9c0,26,43,153,52,153c4,0,9-41,10-92c2-55,7-93,14-95
		c6-2,34,33,63,78c28,45,54,80,56,77c3-2-2-39-10-82c-20-102-20-102,14-114l28-10l20,119l19,118l-28,10c-27,10-30,7-70-52l-43-62
		l-3,73c-3,67-5,74-28,82c-14,6-29,10-33,10S7297,6652,7277,6593z"/>
	<path class="st0" d="M2450,6636l-35-13l42-6c23-4,49-10,58-14c16-6,16-4,0,20C2495,6653,2497,6653,2450,6636z"/>
	<path class="st0" d="M2350,6606c-19-7-34-20-33-27c3-33,61-203,70-206c11-4,175,45,184,55c4,4,5,22,2,39l-5,33l-29-40
		c-31-43-68-66-91-57c-8,3-20,24-27,47c-15,51-6,66,50,75c22,4,43,15,49,24c8,16,5,17-36,6c-24-6-49-16-56-23c-19-19-26-15-39,25
		c-10,32-10,38,7,50C2419,6624,2398,6623,2350,6606z"/>
	<path class="st0" d="M7607,6588c-19-14-25-23-17-28s5-30-14-90c-14-46-24-85-22-87s16-5,31-6c27-2,29,1,61,103c31,97,32,106,17,118
		C7641,6614,7640,6613,7607,6588z"/>
	<path class="st0" d="M7679,6469c-19-61-32-112-28-115c4-2,12,17,18,43c7,25,19,62,27,82l16,36l31-60c17-33,36-80,42-104
		c7-25,17-47,22-48c11-4,89,214,81,223c-3,2-12-21-22-51c-9-30-21-57-26-60c-8-5-55,87-66,131c-5,18-29,33-54,34
		C7717,6580,7698,6530,7679,6469z"/>
	<path class="st0" d="M2113,6528l-21-10l36-107c20-58,38-108,39-110c2-3,29,4,61,13c109,35,139,77,87,126c-14,13-25,29-25,37
		c0,18-15,16-31-3c-11-14-10-22,9-55c27-47,28-65,3-79c-42-22-49-13-83,95c-18,57-37,104-43,104C2140,6539,2125,6534,2113,6528z"/>
	<path class="st0" d="M2020,6497c-46-14-46-14-25-37c20-22,47-14,65,20C2073,6505,2063,6509,2020,6497z"/>
	<path class="st0" d="M7925,6498c-48-136-70-210-64-214c21-13,125-44,146-44c85,0,141,105,97,180c-16,27-62,60-83,60
		c-5,0,1-11,14-25c29-28,31-47,10-106c-27-75-72-106-115-79c-13,8-11,20,14,92c15,46,34,93,42,105c12,20,11,22-18,32
		C7930,6513,7930,6513,7925,6498z"/>
	<path class="st0" d="M1928,6463c-60-37-65-145-9-195c36-33,102-38,151-13c52,27,66,82,28,109c-29,21-32,15-11-22s12-59-30-80
		c-44-21-72,0-102,77c-31,82-31,105-3,125C1982,6485,1962,6484,1928,6463z"/>
	<path class="st0" d="M4540,6284c-19-8-197-74-395-148l-360-133l-3-36c-3-33-5-35-50-42c-100-15-194-89-222-175c-7-22-14-40-16-40
		c-1,0-25,16-53,35c-78,51-165,59-241,21c-18-9-34-16-35-16c-2,0-5,26-7,58c-6,81-32,129-90,165l-48,30v122c0,103-3,124-16,129
		c-9,3-21,3-27-1c-7-5-111-10-232-13l-220-5l-510-148c-280-82-514-152-519-157s-8-77-7-160l2-151l-40,21c-80,40-186,18-248-53
		c-18-21-36-37-40-37c-4,1-25,25-45,54c-42,61-139,131-205,149c-70,18-69,20,162,177c82,55,144,100,139,100c-22,0-239-118-339-185
		c-198-131-340-282-415-440c-48-103-61-156-61-268c-2-223,100-414,330-620c410-366,1263-688,2283-861c1672-284,3657-185,5023,250
		c691,220,1165,490,1394,795c293,388,180,803-306,1128c-95,64-350,190-453,225c-87,30-83,27,70-58c113-63,115-64,113-97
		c-2-19-6-73-9-121l-6-86l-50-31c-116-73-129-236-25-328c49-43,97-57,174-50c59,6,64,5,79-18c21-32,123-109,189-143l50-26l-44-8
		c-23-4-51-10-61-13c-14-4-23,5-40,39c-60,125-243,184-377,121l-53-24l-19,44c-14,32-30,50-55,62c-20,9-36,20-36,24s18,22,40,39
		c33,26,38,35,29,47c-10,11-9,21,6,46c27,45,26,124-3,164c-49,68-126,81-489,82l-231,1l-12,35c-24,72-110,120-215,119
		c-114-1-205-77-229-191c-6-28-34-51-214-176c-114-79-253-179-310-221c-56-42-107-76-112-76c-7,0-10,49-8,138l3,137l50,6
		c66,8,127,40,161,84c120,158,26,365-160,353l-51-3l-5,185l-5,185l-1120,2C4734,6299,4570,6297,4540,6284z M6620,6232
		c0-5-104-59-231-120l-231-112l-457,8c-251,5-730,7-1066,4c-403-2-607-1-600,6c6,5,138,57,295,116l285,105l1003,1
		C6169,6240,6620,6236,6620,6232z M2848,6205c-3-3-113-37-244-76c-131-38-331-97-444-131l-205-61l-153-1c-83,0-152,2-152,5
		s26,13,58,22c31,9,235,68,452,131l395,115h149C2786,6210,2851,6208,2848,6205z M2958,5986l2-206l-22-9c-13-5-26-7-30-4
		c-5,2-8,96-8,208c0,184,2,205,18,214c9,6,22,9,27,7C2951,6195,2956,6113,2958,5986z M2841,6123c0-21,4-114,8-208c8-147,7-172-7-187
		c-30-35-45-23-37,32c4,32,3,55-4,64c-6,7-14,80-18,165c-7,161-4,170,40,171C2836,6160,2840,6151,2841,6123z M2738,5997l3-128l-23,3
		c-22,3-23,7-26,117c-3,127,0,144,25,139C2733,6125,2735,6109,2738,5997z M2634,6083c3-10,6-61,8-113c2-90,1-95-19-98
		c-22-3-26,9-39,141c-5,54-4,71,7,78C2613,6105,2628,6102,2634,6083z M2531,5847c-13-13-18,15-25,130c-5,82-4,92,12,95
		c15,3,17-9,20-106C2539,5904,2536,5852,2531,5847z M2454,5833c7-212,3-245-24-228c-9,5-10,25-6,64c6,52-7,267-20,338
		c-6,31-3,34,37,42C2444,6049,2450,5953,2454,5833z M2354,5928c3-50,6-149,6-220c0-127,0-129-25-140c-14-6-27-9-30-6
		c-7,7-35,308-35,380c0,52,2,57,28,66C2346,6026,2347,6024,2354,5928z M2247,5805c6-94,14-191,17-216c6-46,6-47-25-58
		c-54-19-54-18-57,92c-2,56-7,145-12,197c-14,142-13,148,13,153C2235,5983,2234,5986,2247,5805z M2133,5908c3-24,11-124,18-222
		c11-171,11-180-7-193c-42-31-49-16-56,127c-3,74-9,176-13,227c-6,83-5,92,12,96C2123,5952,2127,5949,2133,5908z M6065,5931l90-6
		l3-540c1-297,0-549-2-560c-5-19-13-20-278-18c-150,0-284,2-298,2l-26,1l4,93c5,114-9,187-54,275c-34,67-56,95-109,142
		c-21,18-17,11,14-29c24-30,53-75,66-100c51-102,84-266,70-345c-12-63-25-39-25,47c0,154-43,260-150,368c-103,105-211,149-362,149
		c-168,0-322-81-405-214c-26-41-43-37-43,10c0,42-40,151-64,177s-29,27-138,27c-128,0-146-7-177-69c-40-78-67-247-74-461l-2-75
		l-122-2c-91-2-124,1-132,11c-8,9-10,167-9,541l3,528l48,12c26,7,53,19,60,29c11,14,63,16,527,19C5078,5946,5935,5940,6065,5931z
		 M2051,5753c4-87,11-189,14-226l5-68l-46-19c-25-11-48-20-50-20s-4,110-4,244v244l28,10c15,5,31,6,36,2
		C2038,5915,2046,5841,2051,5753z M3077,5891c28-42,43-93,43-148c0-24,3-43,8-43c4,0,31,9,60,20c60,23,107,25,164,8
		c87-26,193-161,169-215c-14-30-14-103-1-103c6,0,10,13,10,29c0,45,17,82,58,124c36,37,34,51-4,22c-35-27-44-19-44,43
		c0,103,63,197,160,241c87,39,80,71,80-365c0-433,9-392-75-360c-73,28-158,16-228-31c-20-14-40-24-42-21c-3,3-1,33,3,67
		c8,57,7,63-12,77c-18,12-22,27-25,99c-1,46,2,122,8,168s9,91,5,100c-23,60-295,54-364-8c-13-12-18-25-14-34s8-94,8-188
		c1-132-2-173-11-173c-10,0-13,80-13,366c0,340,1,365,17,362C3047,5926,3065,5910,3077,5891z M1863,5904l77-7v-249v-248l-207,2
		l-208,3v75c0,41-2,152-5,245l-4,170l104,6c58,3,119,6,136,7S1821,5907,1863,5904z M6903,5899c57-15,112-70,126-123
		c18-73,2-127-57-188c-36-38-122-76-142-63c-11,7-15,367-3,378C6836,5913,6859,5912,6903,5899z M9083,5779c118-89,267-241,316-322
		c63-107,84-173,89-279c4-80,0-110-18-170c-28-92-49-133-61-121c-32,32-28,216,7,303l14,35l-19-25c-11-14-25-44-32-67
		c-13-49-23-52-82-22c-109,56-220,153-288,251c-43,62-91,174-110,253c-13,57-17,254-5,273C8904,5905,8952,5877,9083,5779z
		 M7817,5824c50-24,98-78,86-97c-3-5-72-6-163-2l-158,7l-47-32c-25-17-49-29-52-26c-10,9,19,68,51,105
		C7600,5853,7721,5873,7817,5824z M2738,5834c12-4,22-14,22-25c0-22-53-32-160-27c-56,2-75,6-75,17C2525,5829,2668,5852,2738,5834z
		 M2770,5694c0-48-3-65-12-62c-15,5-22,69-14,105C2756,5782,2770,5759,2770,5694z M912,5724c73-37,158-126,198-207
		c65-134,49-293-44-426c-22-32-61-75-85-95l-44-37l-26,24c-31,29-64,47-86,47c-10,0-3-11,20-32c49-42,70-88,89-188c9-46,18-85,20-88
		c18-17,18,146,0,192c-10,25,59,49,142,50c60,0,80-4,137-32c123-61,177-168,169-333c-2-34-4-37-40-43c-35-5-99-43-89-52
		c2-2,19,1,38,6c55,17,105,3,151-40c38-37,39-40,24-62c-24-34-19-43,7-13c24,28,79,42,121,31c35-9,84-53,106-95l19-37l-34-35
		c-34-34-89-79-98-79c-3,0-14,16-25,35c-24,40-60,52-101,36c-24-11-37-8-102,22c-53,24-78,41-87,61c-14,31-47,46-87,39
		c-26-5-28-4-21,18c36,121-3,214-109,255c-65,24-122,13-178-36c-24-22-47-36-51-33c-3,3-6,19-6,35c0,36-48,88-80,88c-22,0-22,0,4,35
		c59,77,73,172,37,243c-23,46-46,67-94,87l-37,15l20,33c25,41,25,64-1,106c-11,18-19,34-17,35c69,40,118,114,118,177
		c-1,47-31,109-69,141c-17,15-31,31-31,36c0,15,140,142,157,142C854,5750,884,5738,912,5724z M2698,5714c2-17-3-35-10-41
		c-14-12-145-32-153-25c-3,3-5,27-5,54v49l83-3l82-3L2698,5714z M2960,5433c0-290-6-353-28-328c-14,16-80,243-96,330
		c-46,246-47,227,17,260c18,9,43,23,57,31C2961,5755,2960,5762,2960,5433z M8510,5678c40-8,63-19,87-43c39-39,44-60,11-48
		c-63,23-147,1-225-58c-41-31-42-31-93-18c-48,12-57,11-115-9c-82-28-94-28-165,8c-67,34-98,37-160,15c-58-20-93-19-141,6
		c-55,28-105,26-167-5c-28-14-58-26-66-26c-18,0-106,41-106,49c0,4,49,38,108,78l107,72l435-5C8259,5691,8480,5684,8510,5678z
		 M2752,5594c15-8,30-24,32-37c3-12,12-65,21-117c10-52,34-149,55-215c43-138,55-195,42-195c-5,0-17,10-25,23c-15,22-15,22-10,1
		c6-25-10-39-24-21c-5,6-17,33-27,60c-25,68-36,58-16-15c23-83,34-175,22-182c-5-3-15,22-22,57c-17,86-76,287-111,379
		c-60,154-156,181-250,70c-85-100-191-336-224-495c-21-100-21-100-45-87s-26,55-6,151c36,170,124,360,233,504c73,95,106,121,175,134
		C2625,5620,2716,5612,2752,5594z M3371,5601c22-18,23-21,8-36c-32-32-299-32-299,0c0,20,17,28,85,41C3263,5625,3344,5623,3371,5601
		z M1426,5594c52-25,64-58,64-169c0-52-2-95-5-95c-2,0-21,11-41,25c-28,19-50,25-91,25c-57,0-84-9-119-42l-21-19l-7,56
		c-3,31-12,76-18,101c-12,43-11,46,12,65c41,34,123,69,158,69C1377,5610,1407,5603,1426,5594z M8861,5558c6-29,20-72,31-96
		c22-54,22-52-3-52c-30,0-57,17-73,48c-14,24-15,25-16,6c0-37,31-65,80-72l45-6l-45-8c-70-12-110,26-110,106c0,32,51,126,69,126
		C8844,5610,8854,5586,8861,5558z M2411,5542c-5-10-17-24-25-31c-20-17-106-151-141-221c-15-30-43-95-61-143c-33-90-57-128-77-124
		c-7,1-13-8-15-20c-2-15-10-23-23-23c-21,0-22,4-41,135l-12,90l-8-159c-4-87-9-160-12-163c-21-21-26,27-26,252v245l43,21
		c55,29,378,158,395,159C2417,5560,2418,5555,2411,5542z M8523,5549c14-6,30-22,36-36c15-32,14-33-8-33c-10,0-54-25-97-57
		c-44-31-116-83-162-116c-45-33-127-79-182-102c-54-24-129-66-166-94c-71-54-88-60-98-36c-9,26,31,55,162,118c69,33,166,86,216,119
		s117,73,149,89c56,29,73,49,40,49c-21,0-128-59-218-121c-72-49-283-154-292-145c-6,6,24,24,211,130c71,40,173,105,227,145
		c81,59,145,101,156,101C8498,5560,8510,5555,8523,5549z M7688,5505c62-29,114-32,165-10c53,22,85,19,152-15c71-36,92-37,170-9
		c57,20,125,20,125,0c0-11-58-48-204-131c-106-61-109-62-146-50c-25,8-59,10-97,6c-156-19-156-19-226,5l-68,24l-64-23
		c-76-26-89-27-146-6c-61,21-108,20-150-5c-40-23-56-21-118,17l-32,20l136,96c74,53,144,96,154,96c11,0,43-11,73-25
		c29-14,60-25,68-25s42,13,75,29s65,30,70,30C7631,5530,7659,5519,7688,5505z M3118,5508c8-8,12-53,12-135c0-111-2-123-19-133
		c-39-20-41-14-41,135c0,133,1,145,18,145C3098,5520,3111,5515,3118,5508z M3373,5388c-2-73-6-132-11-131c-4,2-8,61-10,133
		c-2,102,0,130,10,130C3373,5520,3375,5491,3373,5388z M3212,5400c0-60,1-116,2-122c1-7-11-14-26-16l-28-3v125v126h25h25L3212,5400z
		 M3290,5473c0-21,3-75,7-121l6-84l-29,4l-29,3l-3,118l-3,117h26C3287,5510,3290,5506,3290,5473z M2609,5412c15-15,38-54,50-86
		l22-60l-25-55c-38-87-49-143-44-239c7-135,62-242,125-242c29,0,39-18,21-37c-25-24-85-6-129,38c-42,42-57,83-66,183
		c-5,54-8,64-15,47c-16-44-20-156-8-214c6-32,9-61,6-64s-19,6-37,21c-20,17-38,25-50,21c-55-18-94,37-87,122c5,58-5,53-23-12
		c-9-32-13-36-20-22c-12,20-14,138-5,188c14,72-22-13-50-118c-15-57-31-103-36-103c-15,0-8,67,17,161c41,156,80,244,168,383
		C2497,5439,2555,5467,2609,5412z M4390,5373c0-3-11-34-25-68c-84-212-74-661,20-877c6-16,1-18-50-18c-35,0-54,4-50,10
		c3,6,15,10,27,10c23,0,23,0-6,125c-9,39-16,88-17,110c0,22-4,51-8,65c-7,22-9,19-16-23c-4-26-5-74-3-106c4-56,3-58-19-58
		c-18,0-25,7-33,36c-12,45-28,126-33,166c-2,17-5-4-6-45c-2-65-4-71-13-45c-17,51-14,429,4,510c25,113,37,148,58,183
		c19,32,21,32,95,32C4356,5380,4390,5377,4390,5373z M4472,5363c29-34,46-79,65-173c38-197,17-645-33-707c-14-16-15-14-10,25
		c3,23,8,61,11,85l5,42l-11-35c-11-36-25-57-33-49c-3,3,1,23,9,44c8,22,14,54,14,70c0,27-2,25-14-14c-13-40-28-60-47-61
		c-4,0,4,25,17,55c49,110,55,272,19,455c-18,86-36,120-64,120c-24,0-25,8-4,38c33,48,54,27,88-88c28-95,34-76,10,29
		c-18,83-32,104-67,104c-32,0-34,15-6,51C4445,5385,4452,5386,4472,5363z M1390,5349c52-31,70-58,70-107c1-146-199-160-226-17
		c-8,45,1,70,42,110C1316,5375,1341,5378,1390,5349z M1938,5128c2-199,0-238-12-238c-20,0-26,32-26,154c0,60-2,107-5,104
		c-3-2-9-40-15-84c-19-139-31-145-46-24l-8,65l-7-53c-4-29-14-63-23-77c-33-51-110-44-136,12c-19,41-36,42-45,3c-10-45-22-36-29,23
		c-4,28-13,75-19,102c-11,45-12,31-17-152c-4-139-10-207-18-215c-9-9-12,57-12,305v317l208-2l207-3L1938,5128z M5161,5341
		c123-47,231-155,280-279c33-83,33-252,0-335c-74-187-273-320-452-303c-81,7-171,35-177,55c-4,11,1,12,19,7c80-25,109-29,141-19
		c31,10,31,11,7,12c-44,2-115,27-138,50c-26,26-28,46-3,36c54-24,124-36,187-33c131,7,239,78,297,196c31,63,33,73,33,172
		c0,87-4,113-22,152c-29,64-111,143-181,176c-49,23-70,27-152,27s-103-4-150-26c-79-38-133-89-171-164c-19-36-37-65-42-65
		c-17,0,30,121,53,135c5,3,10,11,10,17c0,19-31-15-61-67c-22-38-29-45-29-27c0,24,29,87,63,137l21,30l-23-20c-13-11-34-39-48-62
		c-27-47-48-58-33-17c15,39,66,109,101,138c40,34,120,75,179,92C4937,5376,5091,5368,5161,5341z M8615,5275c28-27,34-58,11-49
		c-10,4-20-7-31-33c-17-41-62-93-80-93c-6,0-19,16-30,36c-10,19-32,47-49,61l-30,25l25,20C8513,5307,8572,5318,8615,5275z
		 M7063,5231c67-56,78-57,154-22l66,31l43-25c54-31,85-31,169,1l68,25l70-21c57-18,84-20,139-15c73,7,82,1,47-31
		c-29-26-49-75-49-122v-39l-57-6c-32-4-80-10-106-13c-33-5-75-1-128,11c-75,17-83,17-133,2c-67-21-104-21-169,0c-49,16-53,16-113-5
		c-75-26-93-27-138-5c-33,15-38,15-80-1c-25-10-55-15-66-11c-47,15-33,99,28,157c58,55,164,128,187,128
		C7006,5270,7037,5252,7063,5231z M8308,5210c-62-76-375-260-441-260c-30,0-39,5-52,30c-17,33-20,97-5,120c7,11,10,8,10-16
		c0-41,21-58,61-50c25,5,30,3,25-9c-9-23,2-19,108,44c55,32,104,57,110,55s54,25,106,60c52,36,99,65,103,65
		C8338,5250,8326,5232,8308,5210z M3377,5220l31-11l1-93c0-105,19-191,80-362s86-323,65-401c-13-46-23-21-23,55c1,67-4,89-40,177
		l-41,100v-71c0-52-4-73-14-77c-16-6-46,22-46,44c0,12-2,12-10-1c-13-21-21-8-23,38c-2,49-14,35-23-26c-3-24-9-41-11-38
		c-3,3-6,69-8,148c-3,226-33,325-108,361c-46,23-89,12-134-36c-55-58-143-264-143-336c0-22-5-31-16-31c-13,0-15,10-12,54
		c3,59-2,63-22,16c-13-31-30-40-30-17c0,8,7,36,15,63c12,43,12,47,0,30c-8-11-24-45-35-75c-33-91-32-88-37-73c-10,26,19,109,74,212
		c31,58,71,134,89,170c53,106,116,157,229,186C3239,5241,3326,5237,3377,5220z M2725,5119c33-107,65-251,65-287c0-41-27-74-58-70
		c-44,5-92,129-92,238c0,76,40,224,56,207C2698,5205,2711,5165,2725,5119z M4427,5180c37-78,44-362,13-479c-22-81-50-128-69-117
		c-13,9-15,76-1,76s36,48,49,110c15,71,15,285,0,347c-7,26-18,55-25,64c-19,21-17,31,3,27C4407,5206,4420,5194,4427,5180z
		 M8952,5190c54-20,158-102,158-123c0-7-13-19-29-29c-43-24-90-94-108-161c-16-56-18-58-44-52c-19,4-39,0-59-11c-29-18-30-18-45,1
		c-19,26-19,40,0,55c25,21,18,66-12,90c-24,19-36,21-79,16c-42-5-54-2-68,13c-16,17-14,19,24,45c22,14,40,31,40,36s-18,15-40,21
		c-48,15-50,30-7,62C8757,5210,8862,5224,8952,5190z M1200,5175c0-20,48-73,81-90c43-23,107-18,158,10c23,14,45,25,47,25s4-95,4-210
		c0-177-3-215-16-235c-9-14-20-25-24-25s-10,31-12,69c-6,83-35,148-91,204c-60,60-117,82-214,82c-46,0-83,2-83,4s18,23,39,46
		c22,24,51,66,66,94C1179,5196,1200,5209,1200,5175z M8426,5165c39-42,57-98,45-140l-8-30l-18,43c-18,45-32,51-68,28
		c-21-14-24-12-59,28l-37,43l42,31c23,17,48,31,56,31C8386,5200,8408,5184,8426,5165z M5160,5156c20-25,8-61-20-63c-14-1-18,0-7,3
		c9,3,17,13,16,22c0,11-2,12-6,5c-2-7-13-13-24-13c-13,0-19,7-19,23c0,13,3,27,7,30C5118,5175,5147,5171,5160,5156z M3754,5076
		l26-16v-160v-159l-42,2c-37,2-44-2-55-25c-12-24-16-25-43-15c-31,12-37,21-20,32c6,3,10,24,10,46c0,64-61,105-117,80
		c-14-7-27-10-29-9c-1,2-12,36-23,76l-20,72l27,31c43,52,95,70,184,66C3702,5095,3737,5087,3754,5076z M4908,5057c22-17,10-70-19-86
		c-24-13-29-13-53,2c-18,12-26,26-26,47C4810,5071,4865,5092,4908,5057z M8660,5070c8-5,12-11,10-14c-13-12-272-162-372-215
		c-119-63-257-125-264-118c-2,2,29,22,69,44c39,22,154,86,254,143c100,56,202,117,225,135C8628,5082,8637,5085,8660,5070z
		 M9346,5052c6-4,14-33,18-65c3-31,13-75,22-97l16-39l-45-58c-25-32-73-85-106-118l-61-59l-54,18c-30,11-68,32-83,48
		c-26,28-28,35-28,116s2,91,32,137c35,54,76,86,138,109C9238,5060,9328,5065,9346,5052z M3199,5035c49-25,81-119,80-235v-65l-24,74
		c-31,98-42,105-37,27c4-59,2-67-21-90c-48-48-137-20-137,41c0,35-18,18-30-28c-9-32-14-38-24-29c-11,8-15,3-20-24
		c-4-20-11-38-16-41c-18-11-10,56,15,131c52,156,117,249,178,253C3167,5050,3184,5043,3199,5035z M5318,5005c8-22,15-74,15-115
		c1-62-4-84-26-130c-41-84-69-112-111-115c-37-3-101-47-88-60c4-4-6-4-23,0c-38,10-74,10-86-2c-5-5,9-7,33-5c28,3,39,1,34-7
		c-8-12-116-12-116,0c0,4,12,17,26,28c29,23,64,27,97,10c21-10,21-10,3,5c-36,29-93,16-127-27c-15-19-21-20-57-9
		c-56,17-128,69-165,119c-28,39-30,49-33,137c-1,53,1,107,4,121l7,26l35-23c46-30,82-101,78-153c-3-37-5-40-37-43l-33-3l33-17
		c34-18,41-27,61-77c9-23,12-26,15-12c3,10,0,31-5,46c-9,25-7,32,16,54c50,48,121,60,172,30c43-25,54-53,36-88c-20-39-14-42,19-9
		c22,22,33,25,61,21c36-6,47,7,15,18c-38,12-35,127,5,209c22,43,95,117,113,114C5297,5046,5310,5027,5318,5005z M7180,4975
		c54-19,93-19,161,1c50,15,61,15,151-1c82-14,108-15,165-5c82,15,127,11,131-11c4-21-97-27-563-35c-339-6-405-2-405,24
		c0,4,15,13,34,20c27,10,40,10,69-3c47-19,82-18,137,5C7116,4993,7127,4994,7180,4975z M6745,4959c5-15,0-28-17-46l-25-24l11,45
		C6726,4984,6735,4992,6745,4959z M8653,4963c29-33,25-45-18-50c-23-2-166-64-340-146c-265-126-306-148-352-194c-29-28-53-58-53-67
		c0-29,28-45,67-39c41,7,40-11-1-21c-34-8-75,9-86,36c-7,18-9,19-9,6c-2-35-21-17-21,19c0,31,8,44,53,87c44,43,83,65,242,136
		c104,47,253,122,330,167s147,83,156,83S8644,4972,8653,4963z M4637,4878c4-89-10-104-26-28s-15,112,6,108
		C4630,4956,4634,4940,4637,4878z M8038,4917c19-20,24-36,24-76c-1-59-9-78-25-62c-15,15-48,14-90-4c-71-30-78-13-12,28
		c25,16,45,30,45,32c0,7-127-33-149-46c-19-13-24-12-39,7c-48,60-123,66-635,53c-231-5-424-6-428-2c-5,5,4,24,19,42l27,33l54-18
		c49-16,85-17,391-11c439,9,672,24,725,47C7989,4959,8002,4955,8038,4917z M4406,4838c-9-69-26-132-33-124c-6,6,28,176,36,176
		C4411,4890,4410,4866,4406,4838z M8676,4836c-7-30-52-56-95-56c-22,0-44-11-72-37l-41-37l4,29c2,25,15,37,82,76c43,25,83,54,88,63
		c9,16,12,17,25,3C8677,4867,8680,4853,8676,4836z M2025,4818c134-28,299-153,345-261c20-45,50-140,50-158c0-3-26-6-57-5
		c-41,0-71-7-101-23c-51-26-51-35-1-21c86,25,188-3,233-64c56-75,62-100,41-186c-5-18,0-13,17,15c51,85,139,110,200,56l32-29l-32-30
		c-18-16-32-36-32-43c0-8,8-5,23,8c33,30,61,36,101,19c20-8,36-11,36-6c0,13-42,40-62,40c-10,0-25,12-35,28c-29,47-54,62-109,62
		c-36,0-59-6-76-20c-28-22-38-18-38,17c0,36-34,96-76,133c-30,26-35,36-27,49c20,32,129,113,198,146c270,130,548,87,761-117
		c45-43,94-97,109-119l28-40l-21-67c-12-37-22-78-22-92s-9-38-20-55c-28-43-25-52,6-16c52,63,142,57,184-11c28-47,26-64-10-72
		c-17-3-43-19-59-36c-27-30-28-30-45-11c-52,58-158,45-193-23l-16-31l37,33c29,25,46,32,79,32c43,0,86-21,112-56c14-19,14-19,15,2
		c0,36,46,69,95,69c36,0,50-6,79-34c20-19,36-29,36-22c0,18-65,81-84,81c-9,0-16,8-16,20c0,38-29,90-62,110c-26,17-43,20-80,15
		c-27-3-48-3-48,0s16,38,36,78c51,101,157,206,239,236c88,33,189,26,282-19c85-42,191-145,261-254c60-94,60-121,0-177
		c-21-20-38-41-38-48s13,1,30,17c35,35,68,43,107,27c36-16,60-43,65-75c3-24,4-23,21,11c10,20,33,45,52,55c29,15,41,17,76,7
		c36-9,39-9,26,4c-8,8-32,17-53,20c-31,4-47-1-78-22l-39-26l-26,25c-14,13-39,28-54,32c-25,6-28,10-22,32c11,43,72,127,118,159
		c137,99,312,80,430-46c50-53,91-129,85-158c-2-8-18-21-37-27s-41-21-49-34l-15-23l37,22c45,26,88,20,128-18c16-16,28-21,28-14
		c0,8-16,28-35,46l-35,33l34,30c60,53,129,50,190-6c50-47,65-79,55-118c-8-29,3-114,15-114c1,0,2,26,2,58c-1,50,4,65,27,95
		c15,21,41,44,58,52c27,14,29,14,29-1s4-14,25,6c69,64,163-5,166-122l1-43l10,32c6,17,7,48,4,68c-8,43-56,100-92,109
		c-29,8-176-38-195-60c-27-32-47-2-70,106c-26,124,47,257,171,313c71,32,180,29,246-5c55-29,122-98,148-152c20-42,21-86,2-86
		c-17,0-66-38-66-52c0-6,8-4,18,5c39,35,94,21,122-31c18-36,19-36,20-10c0,14-12,40-26,57c-31,38-26,57,21,76c44,19,59,19,102-2
		c74-35,97-137,48-209c-14-20-25-44-25-53s9-2,20,17c39,64,129,78,187,28c25-22,26-26,15-51c-15-33-9-46,7-16c6,11,32,33,58,48
		c51,30,45,42-10,20c-33-14-35-14-65,15c-21,22-42,32-76,35l-46,6v41c0,138,153,256,292,227c110-24,202-88,255-179
		c42-71,44-101,11-144c-16-20-38-57-49-82c-19-45-21-46-64-46c-34,0-53-7-89-35c-40-30-58-36-129-45l-82-9l-30,33
		c-82,92-187,85-254-17c-19-29-27-34-42-27c-10,6-29,10-42,10c-23,0-25,3-20,40c5,34,2,43-25,70c-56,55-148,37-178-36
		c-8-18-14-50-14-70c0-27-4-35-14-31c-7,3-25-1-39-8c-23-12-28-11-44,7c-51,56-107,57-150,2l-25-34h-164c-161,0-163,0-188,25
		c-30,30-75,33-112,8c-25-16-27-16-36,1c-7,12-17,16-34,12c-13-4-24-2-24,3c0,17-41,33-67,26c-15-3-30-18-39-40l-14-35h-88h-89
		l-24,37c-34,52-70,75-126,80c-59,6-120-21-155-67c-20-28-26-30-87-30c-36,0-90,3-119,7l-53,6l23,24c13,14,49,42,82,64
		c32,21,53,39,47,39c-30,0-86-34-136-81c-35-33-60-49-70-45c-14,5-14,9-1,34c41,80,157,177,263,222c43,18,45,20,13,14
		c-59-9-162-65-211-114c-25-25-57-70-70-98c-21-46-27-52-55-52c-89,0-738,75-759,88c-5,4-21,5-35,4c-17-2-41,9-71,32
		c-51,40-117,66-163,65c-26-1-21-4,29-20c33-10,71-28,85-39c23-18,24-20,5-20c-20,0-288,45-332,56c-36,10-27,23,35,52
		c46,21,72,26,137,27c69,0,89-4,146-31c37-18,86-49,109-70c25-22,39-30,32-19c-27,51-105,106-182,129c-96,29-191,15-273-41l-52-35
		l-66,12l-66,11l-6,58c-11,121-82,196-187,196c-46,0-63-5-93-28c-19-15-41-43-48-62c-15-40-24-43-39-15c-13,24-61,50-93,50
		c-13,0-41-11-61-25c-25-17-38-21-41-12c-2,6-8,28-14,47c-14,43-124,160-151,160c-14,0-23,11-31,40c-23,77-120,144-181,124
		c-44-14-10,22,51,54c125,64,254,27,332-96c16-25,29-39,29-30c0,28-63,111-108,142c-35,25-55,31-113,34c-88,5-141-13-194-68
		c-22-22-42-40-46-40s-10,11-13,25c-3,13-22,37-40,52l-34,27l28,40c37,55,124,136,180,169C1750,4833,1874,4850,2025,4818z
		 M8511,4821c-28-21-244-131-410-208c-107-49-140-58-114-32c15,15,527,259,543,259C8533,4840,8524,4831,8511,4821z M7663,4824
		c46-8,47-21,5-38c-37-15-798-33-880-21c-46,7-88,28-77,39C6723,4816,7598,4834,7663,4824z M7768,4778c18-18,14-59-8-95l-20-33
		l-117,1c-65,1-145,4-178,8c-57,6-54,7,50,12c125,7,150,17,210,78C7748,4794,7751,4795,7768,4778z M4114,4764c3-9,6-31,6-49
		c0-55,27-181,54-246c24-59,24-61,4-42c-11,12-29,45-39,74c-17,51-23,52-31,4c-3-19-5-18-27,6c-19,23-29,26-60,22s-42-1-60,18
		c-11,12-21,29-21,36c0,8-4,11-10,8c-5-3-10-17-10-31c0-41-17-26-27,24l-10,47l-7-67c-6-48-13-68-22-68c-11,0-14,25-14,124
		c0,68,3,131,6,140c5,13,27,16,134,16S4109,4777,4114,4764z M6155,4758c3-13,4-142,3-287c-3-303-16-352-37-139
		c-20,207-24,220-36,105c-10-98-25-128-36-72l-6,30l-8-28c-14-50-76-64-113-24c-11,12-24,42-28,67c-13,86-49,124-93,101
		c-34-19-58-13-69,17c-17,43-32,104-33,137c-1,27-2,26-10-10c-4-22-8-59-8-82l-1-42l-53,6c-35,4-73,0-112-11c-50-15-70-29-156-113
		c-54-53-104-100-111-104c-23-15-57-10-108,16c-64,33-152,42-240,25c-61-11-72-11-93,3c-14,9-51,17-83,19l-59,3l-20,60l-20,60l-3-67
		l-3-67l-47,5c-59,6-109-18-131-63c-19-38-31-41-56-13c-10,11-44,30-76,41c-32,12-65,29-73,38c-13,15-5,16,109,13
		c121-4,125-3,149,21c23,23,66,138,66,176c0,36,14,29,71-33c108-118,220-168,374-168c237-1,401,122,503,375l12,27h315h315L6155,4758
		z M6694,4755c3-8,1-15-4-15c-6,0-10,7-10,15s2,15,4,15S6690,4763,6694,4755z M7645,4740c4-6-9-17-29-25c-40-17-291-20-639-8
		c-154,5-197,9-197,19c0,11,79,14,423,17c232,1,425,3,429,5C7636,4749,7642,4745,7645,4740z M8360,4692c0-5-16-23-36-40
		c-25-23-42-30-58-26c-14,3-28-2-39-14c-25-27-205-98-217-86c-7,7,35,31,127,73c76,34,154,71,173,81C8349,4701,8360,4704,8360,4692z
		 M6675,4632c-17-16-17-16-11,8c3,14,6,32,7,40c0,9,5,6,11-8C6691,4653,6690,4646,6675,4632z M6950,4680c43-5,26-7-75-7
		c-80,0-117,2-95,7C6826,4690,6882,4690,6950,4680z M7867,4617c-24-24-48-58-51-74c-7-29-10-31-96-47c-48-10-114-26-147-37l-58-19
		l120,4c66,2,132,9,147,15c21,8,29,7,39-5c6-8,10-16,8-19c-8-7-430-26-440-20c-5,4-9,14-9,23c-2,69-89,68-113-1c-6-16-14-17-79-10
		c-91,10-167,10-334-1c-150-10-144-13-165,82c-8,40-7,57,5,86c17,42,36,47,36,11c0-18,7-26,25-31c31-8,57,12,53,40
		c-3,21,0,21,161,19c152-2,165-4,178-23c18-26,49-26,64,2c11,21,12,21,273,14c143-3,270-9,281-11c11-3,47,8,80,23c33,16,62,28,64,26
		S7892,4641,7867,4617z M8553,4646c-21-36-138-122-229-167c-83-42-113-52-170-57c-63-5-68-4-55,11c7,10,50,35,94,57
		c45,23,87,46,95,53c17,14,241,114,260,116C8556,4660,8558,4655,8553,4646z M5200,4630c0-10-52-40-71-40c-16,0,10,30,36,40
		C5192,4642,5200,4642,5200,4630z M9063,4613c42-10,76-22,74-28c-8-23-244-171-392-245c-89-44-166-80-173-80c-20,0-14,23,24,86
		l35,59l-29-28c-17-16-42-56-57-88c-25-56-38-69-49-51c-3,4,10,39,29,78c32,67,108,157,170,203l30,22l-35-17c-93-45-168-137-201-246
		c-12-37-26-68-31-68c-18,0,0,57,46,156c67,141,159,228,270,255C8833,4635,8983,4631,9063,4613z M8440,4431c0-17-81-100-128-130
		c-70-45-163-74-409-127c-265-57-325-63-573-59c-278,5-405,36-498,119c-41,37-90,132-75,147c4,4,28-6,53-23c70-48,160-87,241-105
		c158-35,549-17,838,38c99,19,365,91,481,130C8433,4442,8440,4443,8440,4431z M7300,4380c60-8,104-8,150-1c103,17,164,14,191-9
		l24-20l-23-19c-40-35-118-43-375-39c-218,3-246,5-282,23c-22,11-40,24-40,30c0,18,58,38,134,44C7161,4397,7170,4396,7300,4380z
		 M8340,4228c0-19-18-43-25-36c-4,3-2,16,5,27C8332,4243,8340,4246,8340,4228z M8260,4147c0-7-50-28-118-49c-143-46-182-54-182-40
		c0,12,94,75,135,90C8139,4163,8260,4163,8260,4147z M7938,4143c-2-5-18-34-36-65c-34-58-49-75-59-65c-8,8,27,105,44,122
		C7902,4150,7944,4156,7938,4143z M7588,4058c-34-49-60-78-71-78c-12,0-4,19,28,69c16,26,33,41,45,41C7610,4090,7610,4089,7588,4058
		z M7195,4033c84-29,186-108,171-132c-13-21-67-12-105,18c-69,54-124,73-209,73c-26-1-58-5-72-11c-19-7-12-8,31-4c36,4,75,0,110-10
		c62-19,156-75,143-86c-19-16-202-41-229-31c-44,17-83,11-143-19c-76-39-148-47-182-22l-24,19l35,45C6842,4029,7028,4092,7195,4033z
		 M7663,4045c-3-13-53-20-53-7c0,15,13,23,35,20C7656,4056,7664,4051,7663,4045z M7675,3971c-6-5-28-12-50-16c-37-6-39-5-21,9
		C7625,3981,7691,3987,7675,3971z M6689,3801c7-5,9-11,5-14c-13-7-134-20-134-13c0,3,12,12,28,20C6618,3811,6668,3814,6689,3801z"/>
	<path class="st0" d="M6250,6210c-80-3-143-7-140-9c3-3,75-7,160-10l155-6l-45-24c-48-25-149-89-165-104c-5-5,64,28,155,73
		s167,84,169,86C6544,6220,6469,6219,6250,6210z"/>
	<path class="st0" d="M4433,6131c-105-42-194-79-198-83c-3-3,126-4,287-1l293,6l184,63c182,63,228,83,162,70c-18-3-95-7-170-8
		c-135-2-136-2-41-8c66-4,89-8,75-14c-209-91-202-89-412-79c-125,7-180,13-163,18c14,5,61,28,105,51l80,42l265,9l265,10h-270l-270,1
		L4433,6131z"/>
	<path class="st0" d="M5415,6051c-27-6,15-9,125-10c91-1,224-3,295-6c99-3,122-2,95,6C5887,6054,5470,6061,5415,6051z"/>
	<path class="st0" d="M3920,5659c0-118,4-219,8-226c6-9,76-10,312-2c168,5,314,11,325,13s-54,5-145,6c-91,2-183,4-205,5s-88,2-148,3
		l-107,2l2,183l3,182l325,5c179,3,331,3,338,1c8-2,12-28,13-80c1-42,4-114,8-161c6-79,7-72,12,90c3,96,5,177,3,179s-170,6-374,9
		l-370,5V5659z"/>
	<path class="st0" d="M5754,5846c-10-26,4-48,28-44c17,2,23,10,23,28s-6,26-23,28C5769,5860,5757,5855,5754,5846z"/>
	<path class="st0" d="M6106,5768c-12-98-19-422-11-551c4-71,8-127,10-125c5,5,18,728,13,728C6115,5820,6110,5796,6106,5768z"/>
	<path class="st0" d="M5332,5653l3-128l35-3c38-4,543,8,538,13c-3,3-139,12-213,15c-26,1-27,3-10,10c11,5,40,9,64,9c24,1,42,3,39,6
		c-5,5-329,6-388,2c-25-2-25-1-28,81l-3,82h78c43,0,178,3,301,7l222,6l1-44c0-24,4-66,9-94c6-42,8-33,9,58l1,107h-330h-331
		L5332,5653z"/>
	<path class="st0" d="M4404,5746c-122-54-99-222,33-241c69-11,136,50,136,125C4573,5717,4482,5780,4404,5746z M4498,5710
		c35-22,39-32,18-49c-7-6-26-38-40-72c-24-52-30-59-49-53c-33,10-65,43-72,75c-9,38,19,87,58,104C4455,5734,4459,5733,4498,5710z
		 M4544,5613c-6-31-49-82-59-71c-3,3,7,31,21,62C4533,5664,4555,5669,4544,5613z"/>
	<path class="st0" d="M4446,5646c-26-55-18-77,9-26c27,50,29,60,16,60C4466,5680,4455,5665,4446,5646z"/>
	<path class="st0" d="M4107,5738c-28-22-32-63-8-87c29-29,65-27,90,6c32,40,7,93-44,93C4133,5750,4116,5744,4107,5738z M4165,5690
		c0-16-6-26-18-28c-19-4-32,20-23,44C4133,5731,4165,5719,4165,5690z"/>
	<path class="st0" d="M5845,5724l-70-11l60-4c52-3,60-7,60-24s-8-20-59-23c-46-2-61,1-72,15c-14,17-14,16-12-7c3-24,6-25,81-28
		c86-3,91,0,85,59l-3,34L5845,5724z"/>
	<path class="st0" d="M4097,5613l-98-4l3-62l3-62l114-3c75-2,118,1,127,9c9,7,14,32,14,70v59l-32-2C4210,5617,4151,5614,4097,5613z
		 M4192,5555c3-43,2-45-24-45c-25,0-26,3-26,45c1,40,4,45,24,45C4185,5600,4188,5594,4192,5555z M4238,5549c-2-19-7-33-13-32
		c-12,3-19,49-10,71C4225,5614,4242,5586,4238,5549z"/>
	<path class="st0" d="M6031,5288c-1-81,3-139,9-143c12-8,12,231,0,260C6035,5418,6031,5374,6031,5288z"/>
	<path class="st0" d="M3892,5150c0-113,4-218,8-235s8,66,8,185c0,118-3,224-8,235C3895,5347,3892,5273,3892,5150z"/>
	<path class="st0" d="M5967,5324c-10-10-9-106,2-123c6-10,11-2,15,25C5990,5269,5979,5336,5967,5324z"/>
	<path class="st0" d="M1585,5882c-7-7-6-77,1-96c5-13,26-16,130-16h124v43c0,23-4,47-8,53C1825,5877,1596,5892,1585,5882z
		 M1808,5818c3-16-7-18-98-18c-77,0-101,3-98,13c6,16,58,25,133,23C1793,5835,1805,5832,1808,5818z"/>
	<path class="st0" d="M1570,5596c0-149,2-151,156-147c65,1,122,5,126,7c10,6,10,119,2,192l-7,52h-138h-139V5596z M1680,5664
		c0-4-13-22-30-41c-16-18-30-45-30-58s-4-27-10-30c-11-7-14,117-3,128C1615,5672,1680,5672,1680,5664z"/>
	<path class="st0" d="M6975,5698c-21-65-48-104-89-129c-29-18-30-19-7-19c14,0,39,15,61,38c29,29,40,50,50,95
		C7005,5758,6998,5766,6975,5698z"/>
	<path class="st0" d="M9011,5528c40-142,184-285,314-313c18-4,4,7-35,27c-89,45-204,161-249,251c-19,37-35,67-37,67
		C9003,5560,9006,5545,9011,5528z"/>
	<path class="st0" d="M9220,5364c0-17,24-46,50-59c39-20,38-7-3,33C9236,5368,9220,5377,9220,5364z"/>
	<path class="st0" d="M7715,5810c-22-3-49-11-59-17c-15-8-3-9,50-6c51,4,80,1,109-11l40-17l-20,21C7808,5806,7765,5817,7715,5810z"
		/>
	<path class="st0" d="M1056,5399c10-107-37-279-93-341c-9-10-14-20-11-23c9-9,80,95,100,147c27,72,33,171,14,228l-16,45L1056,5399z"
		/>
	<path class="st0" d="M1004,5254c-4-10-27-50-51-88c-24-37-42-70-40-73c10-10,88,93,98,129C1022,5263,1016,5288,1004,5254z"/>
	<path class="st0" d="M1180,4851c79-26,137-79,170-153c11-27,22-48,24-48s0,19-6,42c-20,90-88,156-170,164
		C1165,4859,1161,4858,1180,4851z"/>
	<path class="st0" d="M1290,4695c28-65,45-82,35-35c-4,19-18,46-31,60l-25,25L1290,4695z"/>
	<path class="st0" d="M2101,5074c0-11,3-14,6-6c3,7,2,16-1,19C2103,5091,2100,5085,2101,5074z"/>
	<path class="st0" d="M4201,5235c-21-67-47-242-38-252c3-2,8,22,11,54c4,32,17,103,30,158s22,102,20,103
		C4223,5300,4212,5272,4201,5235z"/>
	<path class="st0" d="M4196,5083c-3-21-5-81-4-133l1-95l7,130c5,72,7,131,5,133C4204,5119,4200,5104,4196,5083z"/>
	<path class="st0" d="M4512,5060c0-14,2-19,5-12c2,6,2,18,0,25C4514,5079,4512,5074,4512,5060z"/>
	<path class="st0" d="M1394,5290c23-35,20-89-6-117c-12-13-19-23-15-23c3,0,15,10,27,22c27,29,27,88-1,119l-21,24L1394,5290z"/>
	<path class="st0" d="M5353,5050c11-27,23-48,25-46c4,5-35,96-42,96C5334,5100,5341,5078,5353,5050z"/>
	<path class="st0" d="M5381,4974c0-11,3-14,6-6c3,7,2,16-1,19C5383,4991,5380,4985,5381,4974z"/>
	<path class="st0" d="M5393,4890c0-36,2-50,4-32c2,17,2,47,0,65C5395,4940,5393,4926,5393,4890z"/>
	<path class="st0" d="M5381,4804c0-11,3-14,6-6c3,7,2,16-1,19C5383,4821,5380,4815,5381,4804z"/>
	<path class="st0" d="M5371,4764c0-11,3-14,6-6c3,7,2,16-1,19C5373,4781,5370,4775,5371,4764z"/>
	<path class="st0" d="M7317,5103c-34-3-71-12-90-23c-21-13-53-20-92-22c-41-1-49-3-25-6c19-2,87,1,150,8c180,18,206,18,283,4
		c40-8,86-14,102-13c17,0-13,9-65,19s-108,23-123,29c-16,6-40,10-55,9S7349,5105,7317,5103z"/>
	<path class="st0" d="M9150,4938c-53-36-82-101-78-171c3-31,9-62,15-68c7-7,9,5,5,41c-6,63,18,128,66,182
		C9198,4966,9196,4969,9150,4938z"/>
	<path class="st0" d="M9157,4801c-21-35-22-80-3-106c12-17,14-11,18,56c3,41,4,75,3,76C9175,4828,9166,4816,9157,4801z"/>
	<path class="st0" d="M5201,4898c-10-24-21-63-24-88c-5-43-5-44,5-10c5,19,18,59,28,88C5231,4951,5226,4957,5201,4898z"/>
	<path class="st0" d="M5211,4814c0-11,3-14,6-6c3,7,2,16-1,19C5213,4831,5210,4825,5211,4814z"/>
	<path class="st0" d="M5026,4746c10-8,21-12,24-10c5,6-21,24-34,24C5010,4760,5015,4754,5026,4746z"/>
	<path class="st0" d="M2055,4722c76-37,177-129,227-207c43-69,50-59,12,17c-49,97-169,194-264,212C2002,4750,2007,4746,2055,4722z"
		/>
	<path class="st0" d="M2170,4574c0-9,79-114,86-114c10,0-8,44-28,69C2207,4557,2170,4585,2170,4574z"/>
	<path class="st0" d="M2810,4555c-79-23-137-54-189-104c-43-40-43-41-8-17c134,96,325,135,487,101c14-3,7,2-15,11
		C3028,4569,2879,4574,2810,4555z"/>
	<path class="st0" d="M2899,4490c-53-9-126-39-170-71c-40-28-31-35,12-10c50,28,154,58,239,67c72,7,73,8,35,15
		C2968,4500,2960,4500,2899,4490z"/>
	<path class="st0" d="M3755,4354c-55-19-109-66-141-120c-31-52-26-71,4-22c42,67,128,122,226,143l61,13h-55
		C3820,4368,3777,4362,3755,4354z"/>
	<path class="st0" d="M5438,4258c-62-58-98-158-80-223c8-27,9-25,16,29c8,75,34,132,81,185C5499,4298,5489,4304,5438,4258z"/>
	<path class="st0" d="M6510,4193c58-14,71-22,127-79c48-49,60-57,52-36c-30,80-109,133-195,131l-49-1L6510,4193z"/>
	<path class="st0" d="M4597,4180c-60-19-137-99-137-140c1-10,4-9,12,5c40,74,117,118,205,119c34,1,58,4,54,9
		C4719,4185,4628,4190,4597,4180z"/>
	<path class="st0" d="M7536,4564c-9-8-16-22-16-29c0-20,28-45,50-45c20,0,50,25,50,41C7620,4575,7567,4595,7536,4564z"/>
	<path class="st0" d="M6936,4557c-26-19-13-57,19-57c28,0,43,34,25,55C6965,4573,6959,4574,6936,4557z"/>
	<path class="st0" d="M3468,6266c-89-32-157-118-158-196c0-49,37-118,83-154c32-26,49-31,105-34c62-4,70-2,117,30
		c68,45,98,103,93,181C3699,6218,3577,6307,3468,6266z M3605,6187c54-54,66-100,39-159c-53-119-210-129-273-18
		c-58,104,14,219,138,220C3559,6230,3566,6227,3605,6187z"/>
	<path class="st0" d="M3585,6140c23-44,19-93-11-132l-26-33l31,33c23,24,31,42,31,68c0,32-23,94-36,94
		C3572,6170,3576,6157,3585,6140z"/>
	<path class="st0" d="M1152,5855c-16-14-33-36-36-50c-10-40,17-89,59-109c75-36,145,12,145,99C1320,5875,1218,5911,1152,5855z
		 M1251,5840c22-12,27-68,7-88c-17-17-64-15-82,4c-16,15-22,75-9,87C1177,5854,1229,5851,1251,5840z"/>
	<path class="st0" d="M1236,5783c-6-14-5-15,5-6c7,7,10,15,7,18S1239,5793,1236,5783z"/>
	<path class="st0" d="M9726,3937l-79-22l-23-101c-33-149-59-237-71-241c-6-2-26,60-48,147c-21,85-42,150-49,150c-18,0-357-78-362-83
		c-3-3,17-50,45-104c27-55,73-155,101-221c57-135,62-168,76-499l7-163h132h132l7,178c16,393,13,375,119,672c110,308,111,310,100,309
		C9809,3959,9769,3949,9726,3937z"/>
	<path class="st0" d="M335,3919c-101-23-156-118-158-269c-1-153,30-237,143-385c77-101,90-128,90-189c0-62-24-80-95-73
		c-31,3-55,2-55-4c0-35,34-195,42-201c19-11,117-20,151-13c51,11,111,51,139,92c64,94,64,195-1,345c-48,114-52,158-15,194
		c25,26,39,27,89,8c15-6,16,1,11,62c-3,38-8,135-12,216l-6,146l-56,25C493,3921,406,3936,335,3919z"/>
	<path class="st0" d="M716,3694c2-77,7-172,10-211l6-73h66c37,0,73-4,79-8c12-8,16-53,41-482l7-125h125h125l7,230
		c5,127,11,254,14,284l6,53l41-6c23-3,58-8,78-12l36-6l6,178c3,99,4,180,3,182c-3,2-564,118-628,129l-27,5L716,3694z"/>
	<path class="st0" d="M8585,3710c-49-11-121-28-160-38l-70-18v-70c0-38,4-232,9-431l9-363h148h149v94c0,52,4,97,9,100s35-46,66-109
		s63-119,70-125c9-8,40,4,119,45l106,56l-48,57c-26,32-62,81-81,110l-33,52l54,53c97,93,140,227,119,367c-18,111-58,173-141,216
		C8856,3733,8698,3735,8585,3710z M8795,3315c47-46,26-135-40-171c-37-20-70-16-69,9c0,9,1,55,2,102l2,85h40
		C8760,3340,8777,3333,8795,3315z"/>
	<path class="st0" d="M1404,3658c3-18,8-82,11-143c8-147,33-374,50-457c29-142,93-226,204-270c77-29,261-32,374-4l77,19l2,343
		c1,189,2,363,3,386v43l-123,19c-68,10-125,16-128,14c-2-3,0-56,6-119c13-144,30-560,24-571c-3-4-22-8-43-8c-49,0-87,29-102,78
		c-6,22-13,160-16,343l-6,306l-156,26c-86,15-162,27-169,27C1403,3690,1401,3680,1404,3658z"/>
	<path class="st0" d="M7825,3583c-87-13-231-45-239-53s12-740,21-750c3-3,80-5,171-5c193,0,253,13,343,74c111,77,169,202,169,366
		c0,137-26,215-94,281c-33,32-71,57-102,68C8045,3582,7886,3593,7825,3583z M8015,3244c92-43,83-226-15-290c-21-14-50-26-66-27
		l-29-2l4,160c2,88,5,163,8,168C7924,3265,7981,3261,8015,3244z"/>
	<path class="st0" d="M2170,3564c0-3,22-42,48-87c27-45,76-134,110-197l61-115l15-153c9-84,16-170,16-192v-40h134h134l6,63
		c3,34,8,116,12,182c7,136,4,129,123,319c45,71,81,130,81,131c0,2-132,16-167,17c-9,1-14-9-54-115c-19-48-38-86-44-84
		c-5,2-28,53-51,113l-41,109l-154,22c-85,12-171,24-191,27C2187,3568,2170,3568,2170,3564z"/>
	<path class="st0" d="M7181,3488l-74-10l7-73c4-43,3-76-3-79c-5-3-45,20-89,53c-114,84-100,81-247,68l-130-12l2-40
		c2-22,7-110,13-195c5-85,12-217,16-293l6-138l82,3l81,3l6,113c3,62,8,115,11,117c7,7,179-92,291-167c49-33,91-57,95-53
		c3,3,9,77,14,163c7,169,25,414,34,500C7303,3508,7312,3505,7181,3488z"/>
	<path class="st0" d="M3197,3368c48-113,154-377,193-485c18-48,37-94,43-100c6-9,38-13,92-13s86,4,92,13c5,6,32,72,59,145
		c27,72,53,131,58,129c6-2,31-66,57-143l48-139l93-3l94-3l57,151c32,82,89,218,127,302c38,83,69,153,67,154c-1,1-40,4-87,6l-85,5
		l-44-138c-25-77-47-139-51-139c-3,0-22,63-40,140c-24,96-39,141-50,144c-8,3-81,8-162,12l-147,6l30-83c32-88,32-108,4-176
		c-15-35-17-36-27-18c-6,11-30,77-53,148c-24,70-45,131-49,134c-5,6-271,31-333,33C3161,3450,3161,3448,3197,3368z"/>
	<path class="st0" d="M6143,3401c-56-3-105-9-109-13s-2-89,5-189c6-100,10-183,8-186c-2-2-35-6-72-10l-68-6l6,114
		c4,63,10,151,13,196l7,82l-154-5c-85-3-167-7-184-8l-30-3l4-64c2-35,8-170,15-299l11-235l148-3c81-1,147-1,147,0c0,2,3,44,7,93
		c5,85,11,112,19,90c2-5,13-24,24-42l19-32l42,14c23,8,43,15,45,15s4-24,4-54c0-89-5-86,140-86h129l5,43c3,23,12,150,21,282
		s18,257,22,278l6,37l-64-2C6274,3407,6199,3404,6143,3401z"/>
	<path class="st0" d="M5250,3379c-167-16-250-76-250-182c0-63,31-102,135-172c105-70,126-104,85-137c-20-16-36-19-83-16
		c-42,3-57,1-53-8c2-6,10-30,17-53c11-37,15-41,56-47c115-17,243,18,287,79c34,46,27,93-23,164c-34,47-42,67-37,86
		c7,30,60,51,100,41l25-6l-5,89c-8,136-12,152-37,157C5421,3384,5322,3386,5250,3379z"/>
	<path class="st0" d="M4466,3358c-2-7-16-62-31-123c-15-60-52-185-81-276c-30-92-54-171-54-178s25-11,71-11h70l15,35
		c8,19,18,35,22,35s16-16,26-35c11-19,24-35,30-35s33,11,60,25c62,31,74,31,82,0l6-25h144c79,0,144,3,144,6s-31,103-70,223
		c-38,119-79,250-92,291l-23,75l-158,3C4506,3370,4469,3368,4466,3358z M4607,2964c17-32,28-63,23-68c-11-11-140-21-140-11
		c0,22,65,145,74,142C4570,3025,4589,2997,4607,2964z"/>
	<path class="st0" d="M5413,2591c-26-49-29-62-18-71c7-6,16-27,19-48c11-59,16-72,31-72c9,0,12,10,8,38c-3,20,2,68,11,105
		c21,88,20,107-1,107C5451,2650,5433,2628,5413,2591z"/>
	<path class="st0" d="M5547,2638c-27-21-48-83-37-112c12-32,43-48,75-40c23,6,25,4,25-28c0-19,5-39,12-46c14-14,32-16,24-4
		c-3,5,4,51,14,102c18,87,18,96,3,112c-23,25-41,23-36-5c5-25-26-70-59-88c-19-10-20-9-14,17c4,16,16,38,27,50c23,25,24,40,3,48
		C5564,2652,5567,2652,5547,2638z"/>
	<path class="st0" d="M5051,2614c-55-46-33-82,24-38c20,15,38,24,42,21c6-7-56-107-89-144c-16-18-18-25-8-43c10-19,17-21,43-14
		c18,4,54,8,80,8l48,1l-26,22c-14,13-37,23-51,23c-30,0-30,4,1,44c40,53,50,92,31,121C5125,2647,5090,2647,5051,2614z"/>
	<path class="st0" d="M4533,2615c-27-12-33-20-33-45c0-29,5-34,66-61c38-17,64-35,61-42c-2-7-24-13-50-15c-41-3-47,0-61,25
		c-8,15-15,23-16,17c0-6-17-14-37-17c-21-3-53-9-70-12c-28-6-33-5-33,11c0,13,14,25,40,36c50,21,54,43,6,35c-25-4-36-1-40,9
		c-5,14,29,34,58,34c8,0,19,7,26,15c11,13,4,15-58,15h-70l-4-102c-2-57-1-107,3-112c7-8,95,20,146,46c19,9,25,7,48-21
		c50-58,135-34,135,39c0,31-6,43-27,58c-16,11-38,23-50,26c-36,11-27,24,24,35c39,8,49,7,56-5c4-8,21-14,37-14h30v-79
		c0-44,4-82,9-86c15-9,31,29,31,73c0,22,3,54,6,71c5,25,11,31,33,31c26,0,51,16,51,31c0,13-166,22-188,10c-14-7-23-8-27-1
		C4626,2634,4571,2632,4533,2615z"/>
	<path class="st0" d="M5199,2603c-6-16-9-57-7-92c4-55,8-67,32-87c15-13,38-24,52-24c56,0,97,83,78,159c-10,40-33,55-102,65
		C5212,2630,5209,2628,5199,2603z M5314,2577c9-36,7-75-5-83c-17-10-49,36-49,73C5260,2613,5302,2621,5314,2577z M5277,2491
		c20-25,21-31,8-47c-18-25-34-10-42,39C5236,2527,5247,2529,5277,2491z"/>
	<path class="st0" d="M3405,2540c-682-11-1091-23-975-31c151-10,1646-33,1664-26c12,5,16,16,14,34l-3,28l-125,1
		C3911,2546,3653,2543,3405,2540z"/>
	<path class="st0" d="M5852,2534c-5-9-7-25-5-35c5-18,18-19,162-19c259,0,1305,21,1466,29l150,8l-119,1c-65,1-261,6-435,12
		c-174,5-517,12-763,15C5900,2550,5860,2549,5852,2534z"/>
	<path class="st0" d="M4835,2461c-8-15,14-53,28-48c18,6,15,51-5,55C4849,2470,4839,2466,4835,2461z"/>
</g>
</svg>
